<?xml version="1.0" standalone="no"?>
<!DOCTYPE svg PUBLIC "-//W3C//DTD SVG 1.1//EN" "http://www.w3.org/Graphics/SVG/1.1/DTD/svg11.dtd" >
<svg>
<metadata>
Created by FontForge 20090914 at Sat Sep  4 19:08:55 2021
 By www-data
Copyright (c) 1996-2015 Pushpananda Ekanayake (pushpanandae@gmail.com) Copyright (c) 2015 Sol Matas (sol@sonnenshine.com.ar) Copyright (c) 2015 Mooniak (hello@mooniak.com)
</metadata>
<defs>
<font id="AbhayaLibre-Medium" horiz-adv-x="583" >
  <font-face 
    font-family="Abhaya Libre Medium"
    font-weight="500"
    font-stretch="normal"
    units-per-em="1024"
    panose-1="2 0 6 3 0 0 0 0 0 0"
    ascent="819"
    descent="-205"
    x-height="426"
    cap-height="600"
    bbox="-580 -340 1641 855.998"
    underline-thickness="0"
    underline-position="0"
    unicode-range="U+0020-U+FB02"
  />
<missing-glyph horiz-adv-x="631" 
d="M50 -93v847h531v-847h-531zM265 81c0 14.667 6.99902 24.667 20.999 30c2.66699 0.666992 5.66699 1 9 1c14.667 0 24.334 -7.33301 29.001 -22c0.666992 -3.33301 1 -6.33301 1 -9c0 -14 -6.66699 -23.333 -20 -28c-4 -1.33301 -7.33301 -2 -10 -2
c-14 0 -23.333 7 -28 21c-1.33301 3.33301 -2 6.33301 -2 9zM101.999 701v-742h426v742h-426zM177.999 489c36 46 79.999 69.334 131.999 70.001c60 0 102.333 -23.667 127 -71c11.333 -21.333 17.333 -45 18 -71c0.666992 -61.333 -24 -105 -74 -131
c-20 -10.667 -40.333 -16.334 -61 -17.001v-128h-50v173c74 0.666992 117.333 21.667 130 63c3.33301 10.667 5 22.667 5 36c0 39.333 -15.333 68 -46 86c-14.667 9.33301 -31.667 14 -51 14c-37.333 0 -69.666 -18 -96.999 -54z" />
    <glyph glyph-name="fi" unicode="fi" horiz-adv-x="584" 
d="M243 26l-53.001 0.00195312v374h211v-322c0 -29.333 -15 -46.333 -45 -51c-7.33301 -0.666992 -15.333 -1 -24 -1v-26h229c0 15.333 -4.33301 23.666 -13 24.999c-3.33301 0.666992 -7 1 -11 1h-50v400h-297v6c0 105.333 21.667 168 65 188c14 6.66699 30.667 10 50 10
c32 0 55.333 -14 70 -42c2 -4 4.66699 -9.66699 8 -17c12 -24.667 24 -40 36 -46c8 -3.33301 16.667 -5 26 -5c25.333 0 41 10.333 47 31c1.33301 4.66699 2 9 2 13c0 27.333 -17.333 50 -52 68c-30.667 15.333 -68.667 23 -114 23c-97.333 0 -163.333 -33.333 -198 -100
c-16.667 -32 -25 -70 -25 -114v-15h-73v-26h73v-322c-1.33301 -34.667 -26.666 -52 -75.999 -52v-26h238c0 15.333 -4.33301 23.666 -13 24.999c-3.33301 0.666992 -7 1 -11 1z" />
    <glyph glyph-name="fl" unicode="fl" horiz-adv-x="590" 
d="M567 0c0 15.333 -4.33301 23.668 -13 25.001c-3.33301 0.666992 -7 1 -11 1h-54v624h-124c-31.333 3.33301 -58 5 -80 5c-73.333 0 -125 -30.667 -155 -92c-16.667 -34 -25 -74.667 -25 -122v-15h-73v-26h73v-322c-1.33301 -34.667 -26.666 -52 -75.999 -52v-26h237
c0 15.333 -4.33301 23.666 -13 24.999c-3.33301 0.666992 -7 1 -11 1h-52v374h108v26h-108v6c0 93.333 13.667 152 41 176c16 14 38.333 21 67 21c38 0 73 -6.33301 105 -19v-530c0 -27.333 -9.33301 -44 -28 -50c-10.667 -2.66699 -25.334 -4 -44.001 -4v-26h236z" />
    <glyph glyph-name=".notdef" horiz-adv-x="631" 
d="M50 -93v847h531v-847h-531zM265 81c0 14.667 6.99902 24.667 20.999 30c2.66699 0.666992 5.66699 1 9 1c14.667 0 24.334 -7.33301 29.001 -22c0.666992 -3.33301 1 -6.33301 1 -9c0 -14 -6.66699 -23.333 -20 -28c-4 -1.33301 -7.33301 -2 -10 -2
c-14 0 -23.333 7 -28 21c-1.33301 3.33301 -2 6.33301 -2 9zM101.999 701v-742h426v742h-426zM177.999 489c36 46 79.999 69.334 131.999 70.001c60 0 102.333 -23.667 127 -71c11.333 -21.333 17.333 -45 18 -71c0.666992 -61.333 -24 -105 -74 -131
c-20 -10.667 -40.333 -16.334 -61 -17.001v-128h-50v173c74 0.666992 117.333 21.667 130 63c3.33301 10.667 5 22.667 5 36c0 39.333 -15.333 68 -46 86c-14.667 9.33301 -31.667 14 -51 14c-37.333 0 -69.666 -18 -96.999 -54z" />
    <glyph glyph-name="space" unicode=" " horiz-adv-x="195" 
 />
    <glyph glyph-name="exclam" unicode="!" horiz-adv-x="270" 
d="M150 172c0 84 9.66699 175.665 29 274.998c8.66699 44 13 76.667 13 98c-1.33301 42.667 -20 64.334 -56 65.001c-38 -1.33301 -57.333 -23.666 -58 -66.999c0 -19.333 6.33301 -62 19 -128c14.667 -79.333 22 -160.333 22 -243h31zM189 49.998
c0 23.333 -10.333 40 -31 50c-8 4 -16 6 -24 6c-22.667 0 -39 -10.333 -49 -31c-4 -8.66699 -6 -17 -6 -25c0 -23.333 10.667 -40 32 -50c7.33301 -3.33301 15 -5 23 -5c23.333 0 40 10.667 50 32c3.33301 7.33301 5 15 5 23z" />
    <glyph glyph-name="quotedbl" unicode="&#x22;" horiz-adv-x="306" 
d="M90 656c-24 0 -38.667 -10.332 -44 -30.999c-0.666992 -4 -1 -8 -1 -12c0 -8 5.66699 -36.667 17 -86c7.33301 -30 12 -57 14 -81h27c2 21.333 10 63.333 24 126c4.66699 19.333 7 33.666 7 42.999c0 22 -10.667 35.333 -32 40c-4 0.666992 -8 1 -12 1zM218 656.001
c-27.333 -4.66699 -42.333 -19.001 -45 -43.001c0 -7.33301 5.66699 -35.666 17 -84.999c6.66699 -30.667 11 -58 13 -82h28c1.33301 22.667 9.33301 65 24 127c4 18.667 6 32.667 6 42c0 22 -10.333 35.333 -31 40c-4 0.666992 -8 1 -12 1z" />
    <glyph glyph-name="numbersign" unicode="#" horiz-adv-x="579" 
d="M320 -10h32l27 204h127v48h-121l17 126h117v48h-111l24 184h-32l-24 -184h-140l24 184h-32l-24 -184h-131v-48h125l-17 -126h-121v-48h115l-27 -204h32l27 204h140zM353 242h-140l17 126h140z" />
    <glyph glyph-name="dollar" unicode="$" horiz-adv-x="543" 
d="M163 486c0 44 20.999 73.334 62.999 88.001c11.333 3.33301 23.333 5.66602 36 6.99902v-215c-57.333 28.667 -89.666 61.667 -96.999 99c-1.33301 7.33301 -2 14.333 -2 21zM400.999 131.001c-1.33301 -64 -38 -100.669 -110 -110.002v235
c58 -27.333 92.667 -57.666 104 -90.999c4 -11.333 6 -22.666 6 -33.999zM290.999 -91.001v82.9961c82.667 6 141.334 32.667 176.001 80c18.667 25.333 28 54.333 28 87c0 56.667 -31.333 103.334 -94 140.001c-14 8 -50.667 25.667 -110 53v230
c38.667 -2.66699 63.334 -19.667 74.001 -51c2 -5.33301 4.33301 -13.666 7 -24.999c6 -28 14.667 -45.667 26 -53c9.33301 -5.33301 21 -8 35 -8c30 4.66699 46.333 23 49 55c0 39.333 -27 69.333 -81 90c-32.667 12.667 -69.334 19.334 -110.001 20.001v89h-29v-90
c-74 -5.33301 -128.333 -28.666 -163 -69.999c-20 -24 -30 -51.667 -30 -83c0 -56 31.667 -102.667 95 -140c17.333 -10 50 -25.667 98 -47v-250h-5c-42.667 0 -69.334 16.333 -80.001 49c-2.66699 6.66699 -5.33398 17 -8.00098 31c-5.33301 30 -13.666 49.333 -24.999 58
c-10 6.66699 -23 10 -39 10c-30 0 -48.333 -14 -55 -42c-1.33301 -6 -2 -12 -2 -18c0 -39.333 26.333 -70 79 -92c38 -16 82.667 -24 134 -24h1v-82h29z" />
    <glyph glyph-name="percent" unicode="%" horiz-adv-x="810" 
d="M194 -30l435 640l-31 21l-436 -641zM212 618c-58.667 0 -102.332 -22.999 -130.999 -68.999c-16.667 -28 -25 -60.667 -25 -98c0 -72 24.667 -122.667 74 -152c23.333 -13.333 49.666 -20 78.999 -20c60 0 104.333 24 133 72c16 27.333 24 59.666 24 96.999
c0 75.333 -26.333 126.333 -79 153c-22.667 11.333 -47.667 17 -75 17zM211.002 299.001c-33.333 0 -54.668 20.667 -64.001 62c-4.66699 22 -7 51 -7 87c0 82 14 130 42 144c8.66699 4 18.334 6 29.001 6c32.667 0 53.667 -21 63 -63c4.66699 -21.333 7 -49.333 7 -84
c0 -94 -19.667 -144.333 -59 -151c-4 -0.666992 -7.66699 -1 -11 -1zM595 329.001c-58.667 0 -102.332 -22.999 -130.999 -68.999c-16.667 -28 -25 -60.667 -25 -98c0 -72 24.667 -122.667 74 -152c23.333 -13.333 49.666 -20 78.999 -20c60 0 104.333 24 133 72
c16 27.333 24 59.666 24 96.999c0 75.333 -26.333 126.333 -79 153c-22.667 11.333 -47.667 17 -75 17zM594.002 10.002c-33.333 0 -54.668 20.667 -64.001 62c-4.66699 22 -7 51 -7 87c0 82 14 130 42 144c8.66699 4 18.334 6 29.001 6c32.667 0 53.667 -21 63 -63
c4.66699 -22 7 -50 7 -84c0 -94 -19.667 -144.333 -59 -151c-4 -0.666992 -7.66699 -1 -11 -1z" />
    <glyph glyph-name="ampersand" unicode="&#x26;" horiz-adv-x="591" 
d="M230 505c0 38.667 15.332 63.668 45.999 75.001c8.66699 2.66699 17.334 4 26.001 4c36.667 0 59.667 -16.333 69 -49c2 -8 3 -16.333 3 -25c0 -30.667 -16 -58.334 -48 -83.001c-18 -14 -38.667 -24.333 -62 -31c-22.667 46.667 -34 83 -34 109zM268.999 20.001
c-84 0 -131.001 47.999 -141.001 143.999c-1.33301 12.667 -2 25.334 -2 38.001c0 60 16.667 103 50 129c8.66699 6 17.334 10.333 26.001 13c43.333 -83.333 108.333 -176.333 195 -279c-38 -30 -80.667 -45 -128 -45zM525.998 319l-1.00098 -0.00195312h3l31 1
c15.333 0 24 4 26 12c1.33301 4.66699 2 9.66699 2 15h-144v-26h55c0 -74 -15.667 -137.667 -47 -191c-78.667 94.667 -137 176 -175 244c54 16 91.667 45 113 87c8.66699 16.667 13 33 13 49c0 44 -19 74 -57 90c-15.333 6.66699 -31.666 10 -48.999 10
c-62 0 -104.333 -21.333 -127 -64c-9.33301 -18 -14 -38 -14 -60c0.666992 -30.667 12.667 -70.667 36 -120c-82 -23.333 -132.333 -68.666 -151 -135.999c-4.66699 -17.333 -7 -35.333 -7 -54c0 -60.667 23 -108.667 69 -144c36.667 -28 81.667 -42 135 -42
c71.333 0.666992 130.333 19.334 177 56.001c9.33301 -11.333 23 -26.666 41 -45.999h147c0 15.333 -5.33301 23.666 -16 24.999c-2.66699 0.666992 -5.66699 1 -9 1h-33l-74 82c37.333 58 56 128.333 56 211z" />
    <glyph glyph-name="quotesingle" unicode="'" horiz-adv-x="185" 
d="M93 656c-27.333 0 -42.999 -11 -46.999 -33c-0.666992 -4 -1 -7.33301 -1 -10c0 -8 6.33301 -35.333 19 -82c8 -32 13 -60.333 15 -85h27c2 22.667 10.667 64.334 26 125.001c5.33301 20 8 34.667 8 44c0 21.333 -11 34.666 -33 39.999
c-4.66699 0.666992 -9.33398 1 -14.001 1z" />
    <glyph glyph-name="parenleft" unicode="(" horiz-adv-x="336" 
d="M312 650c-94 -25.333 -165 -86.332 -213 -182.999c-32.667 -67.333 -49 -141 -49 -221c0 -112 29.667 -206 89 -282c45.333 -57.333 102 -95.333 170 -114l10 26c-74 27.333 -126 93.666 -156 198.999c-15.333 54 -23 111.667 -23 173c0 118.667 25 215 75 289
c30 42.667 65.333 71.667 106 87z" />
    <glyph glyph-name="parenright" unicode=")" horiz-adv-x="338" 
d="M26 650c94 -25.333 165 -86.332 213 -182.999c32.667 -67.333 49 -141 49 -221c0 -112 -29.667 -206 -89 -282c-45.333 -57.333 -102 -95.333 -170 -114l-10 26c74 27.333 126 93.666 156 198.999c15.333 54 23 111.667 23 173c0 118.667 -25 215 -75 289
c-30 42.667 -65.333 71.667 -106 87z" />
    <glyph glyph-name="asterisk" unicode="*" horiz-adv-x="343" 
d="M172 650c-20.667 0 -32.998 -8.33398 -36.998 -25.001c-0.666992 -3.33301 -1 -6 -1 -8c0 -6 5.66699 -28 17 -66c6 -18.667 10 -35 12 -49c-9.33301 7.33301 -28.666 26.666 -57.999 57.999c-18.667 18.667 -33.667 28.334 -45 29.001c-14.667 0 -25.667 -9 -33 -27
c-2 -5.33301 -3 -10.333 -3 -15c0.666992 -12.667 6 -22 16 -28c4.66699 -2.66699 27 -8.66699 67 -18c18 -4.66699 33.667 -9.33398 47 -14.001c-10.667 -4 -39.334 -12 -86.001 -24c-12.667 -3.33301 -22 -6.66602 -28 -9.99902
c-10.667 -6.66699 -16.334 -15.334 -17.001 -26.001c0 -16 7 -28.667 21 -38c5.33301 -3.33301 11 -5 17 -5c12 0 30 13 54 39c21.333 23.333 37.333 39.333 48 48c-1.33301 -10 -9 -38.667 -23 -86c-4 -13.333 -6 -23.333 -6 -30c4.66699 -18.667 17 -29.334 37 -32.001
c24 3.33301 37 14.333 39 33c0 6 -5.66699 27.667 -17 65c-6 19.333 -10 36.333 -12 51c8 -6 26.667 -24.667 56 -56c20 -21.333 35.333 -32 46 -32c16 0 27.333 8.66699 34 26c2 6 3 11.333 3 16c-0.666992 12.667 -6.33398 22 -17.001 28
c-4.66699 2.66699 -26.667 8.66699 -66 18c-18 4.66699 -33.333 9.33398 -46 14.001c8 3.33301 35.667 11 83 23c14 4 24 7.66699 30 11c11.333 6.66699 17 15.334 17 26.001c0 16 -7 28.667 -21 38c-6 3.33301 -12 5 -18 5c-12 0 -29.333 -12.667 -52 -38
c-21.333 -24 -37.666 -40.333 -48.999 -49c1.33301 9.33301 9 37.333 23 84c4 14 6 24.667 6 32c-4.66699 18.667 -17.334 29.334 -38.001 32.001z" />
    <glyph glyph-name="plus" unicode="+" horiz-adv-x="465" 
d="M423 215v38h-167v178h-47v-178h-167v-38h167v-178h47v178h167z" />
    <glyph glyph-name="comma" unicode="," horiz-adv-x="192" 
d="M156 40c0 36.667 -13.666 59.001 -40.999 67.001c-6 2 -12 3 -18 3c-22 0 -37.667 -10.667 -47 -32c-3.33301 -7.33301 -5 -15 -5 -23c0 -22.667 11 -38.334 33 -47.001c3.33301 -1.33301 6.66602 -2.33301 9.99902 -3c15.333 -4 23.333 -10.333 24 -19
c-0.666992 -18.667 -15 -42.667 -43 -72l21 -15c41.333 47.333 63.333 94.333 66 141z" />
    <glyph glyph-name="short_dash1" unicode="-" horiz-adv-x="335" 
d="M43 232h223v-45h-223v45z" />
    <glyph glyph-name="period" unicode="." horiz-adv-x="200" 
d="M155 50c0 23.333 -10.333 40 -31 50c-8 4 -16 6 -24 6c-22.667 0 -39 -10.333 -49 -31c-4 -8.66699 -6 -17 -6 -25c0 -23.333 10.667 -40 32 -50c7.33301 -3.33301 15 -5 23 -5c23.333 0 40 10.667 50 32c3.33301 7.33301 5 15 5 23z" />
    <glyph glyph-name="slash" unicode="/" horiz-adv-x="416" 
d="M65 -155l341 865h-65l-341 -865h65z" />
    <glyph glyph-name="zero" unicode="0" horiz-adv-x="532" 
d="M270 542c-75.333 0 -134 -29.998 -176 -89.998c-34 -48.667 -51 -109.334 -51 -182.001c0 -111.333 32.333 -191.333 97 -240c36 -26.667 77.667 -40 125 -40c74.667 0 132.667 30.667 174 92c33.333 49.333 50 110.666 50 183.999c0 116.667 -34.333 197.667 -103 243
c-33.333 22 -72 33 -116 33zM268 16.002c-56.667 0 -93.999 34.333 -111.999 103c-9.33301 38 -14 87 -14 147c0 140 28 221 84 243c12 4.66699 25.667 7 41 7c53.333 0 88.666 -30 105.999 -90c11.333 -38 17 -90 17 -156c0 -142.667 -27.333 -225 -82 -247
c-12 -4.66699 -25.333 -7 -40 -7z" />
    <glyph glyph-name="one" unicode="1" horiz-adv-x="423" 
d="M223 532l-202.999 -133.001l18 -29l154 97v-432l-135 -9v-26h351c0 14.667 -6.33301 23.334 -19 26.001c-2.66699 0.666992 -5.33398 1 -8.00098 1l-99 8v497h-59z" />
    <glyph glyph-name="two" unicode="2" horiz-adv-x="473" 
d="M83 76c0 20.667 24.0039 45.668 72.0039 75.001c9.33301 6 24.666 15.333 45.999 28c74 42.667 124.667 78.334 152 107.001c33.333 35.333 50 72.666 50 111.999c0 62 -31.667 104.667 -95 128c-28 10.667 -59.333 16 -94 16c-62.667 0 -112 -16.333 -148 -49
c-23.333 -22.667 -35 -49 -35 -79c0 -28 10.333 -45.667 31 -53c5.33301 -2 10.666 -3 15.999 -3c27.333 0 44 14 50 42c1.33301 6.66699 2.66602 17 3.99902 31c3.33301 35.333 11.333 58.666 24 69.999c11.333 10 27.666 15 48.999 15c56 0 89.333 -27 100 -81
c2 -10.667 3 -22 3 -34c0 -63.333 -27.667 -117 -83 -161c-6.66699 -5.33301 -36 -25.333 -88 -60c-48.667 -32.667 -80 -64.667 -94 -96c-8.66699 -19.333 -13 -40 -13 -62v-22h386l2 172h-20l-16 -52c-8 -24 -21 -38 -39 -42c-8 -1.33301 -19.333 -2 -34 -2h-226z" />
    <glyph glyph-name="three" unicode="3" horiz-adv-x="506" 
d="M436 511l-0.00292969 21.001h-378l-2 -169h24l18 54c7.33301 23.333 22.333 36.666 45 39.999c7.33301 0.666992 18.333 1 33 1h158l-179 -207l23 -19c24 10 47.333 15 70 15c46.667 0 80 -23.333 100 -70c9.33301 -22.667 14 -48.334 14 -77.001
c-1.33301 -102.667 -50 -154.334 -146 -155.001c-36.667 0 -59 16.333 -67 49c-1.33301 6.66699 -3 17.667 -5 33c-3.33301 32.667 -10.666 53.334 -21.999 62.001c-8.66699 6 -19.667 9 -33 9c-25.333 0 -41 -12 -47 -36c-1.33301 -5.33301 -2 -10.666 -2 -15.999
c0 -46.667 26.333 -81.667 79 -105c32 -14 68.667 -21 110 -21c82.667 0 145.334 27.667 188.001 83c25.333 34 38 71 38 111c0 54 -20 96.667 -60 128c-31.333 24 -69.666 36 -114.999 36c-20.667 0 -43 -2.66699 -67 -8z" />
    <glyph glyph-name="four" unicode="4" horiz-adv-x="503" 
d="M463 -69c0 16 -4.33203 24.667 -12.999 26c-3.33301 0.666992 -7 1 -11 1h-67v128h91v30h-91v199h-21l-11 -39c-6 -22.667 -15.333 -35.667 -28 -39c-5.33301 -2 -12 -3 -20 -3h-7v-117l-232 1c199.333 165.333 306 284.333 320 357c1.33301 6 2 11.667 2 17
c-1.33301 33.333 -18.333 50.333 -51 51c-24 0 -42 -13 -54 -39c-4 -8 -9.66699 -23 -17 -45c-26.667 -76 -59.334 -140 -98.001 -192c-39.333 -51.333 -88 -101 -146 -149l6 -30l270 -1v-129h-108v-27h286z" />
    <glyph glyph-name="five" unicode="5" horiz-adv-x="485" 
d="M451 115c0 63.333 -23.6689 112.33 -71.002 146.997c-34 25.333 -75.333 38 -124 38c-52 -0.666992 -97 -13.667 -135 -39v191c54.667 -5.33301 100.334 -8 137.001 -8c69.333 0 113 9 131 27c16 17.333 24 51 24 101h-24c-6 -22 -19 -35.667 -39 -41
c-15.333 -4.66699 -39.666 -7 -72.999 -7c-20.667 0 -83.667 2.66699 -189 8v-282l33 -25c33.333 26 69.333 39 108 39c62.667 0 103 -30.333 121 -91c5.33301 -19.333 8 -40.333 8 -63c0 -77.333 -25 -128 -75 -152c-18.667 -8.66699 -39.334 -13 -62.001 -13
c-35.333 0 -56.666 15.667 -63.999 47c-2 7.33301 -3.66699 18.333 -5 33c-3.33301 32.667 -10.333 53.334 -21 62.001c-8.66699 6.66699 -20 10 -34 10c-30 -5.33301 -46.667 -22.666 -50 -51.999c0 -40 21 -72.333 63 -97c32.667 -18.667 71 -28 115 -28
c84 0 146.667 27.333 188 82c25.333 32.667 38 70.334 38 113.001z" />
    <glyph glyph-name="six" unicode="6" horiz-adv-x="515" 
d="M472 185c0 70.667 -27.667 122.999 -83 156.999c-32.667 19.333 -69.334 29 -110.001 29c-49.333 -0.666992 -92.666 -14.667 -129.999 -42c6 118 26.667 194.333 62 229c20 18.667 44.667 28 74 28c38.667 0 62 -15 70 -45c2 -6 3.66699 -15.333 5 -28
c4 -27.333 11.333 -44.666 22 -51.999c8 -4.66699 18 -7 30 -7c28 0 44.667 13.333 50 40c0.666992 4.66699 1 9 1 13c0 35.333 -21.667 63.333 -65 84c-30 14 -64.333 21 -103 21c-95.333 0 -164.333 -44 -207 -132c-26 -54 -39 -118.333 -39 -193
c0 -126 33 -213.333 99 -262c32.667 -23.333 71 -35 115 -35c72 0 127.667 24.333 167 73c28 34 42 74.667 42 122zM144 173.999c0 86 26.335 139.332 79.002 159.999c13.333 5.33301 27.333 8 42 8c57.333 0 93 -31.333 107 -94c4 -18.667 6 -39 6 -61
c-0.666992 -113.333 -39.334 -170.333 -116.001 -171c-56.667 0 -93.334 30 -110.001 90c-5.33301 20.667 -8 43.334 -8 68.001z" />
    <glyph glyph-name="seven" unicode="7" horiz-adv-x="454" 
d="M461 510l-0.00195312 21.9971h-431l-2 -177h23l18 54c8 26 24 40.667 48 44c8 1.33301 18 2 30 2h242c-129.333 -187.333 -203.333 -295.666 -222 -324.999c-45.333 -73.333 -68 -126.333 -68 -159c0 -28 13 -44.667 39 -50c4.66699 -0.666992 9.33398 -1 14.001 -1
c24.667 0 42 10.333 52 31c3.33301 6.66699 13.333 39.334 30 98.001c40.667 144.667 116.334 298.334 227.001 461.001z" />
    <glyph glyph-name="eight" unicode="8" horiz-adv-x="539" 
d="M255 -10c70.667 0 128 19.6719 172 59.0049c32 30 48.333 65.667 49 107c0 51.333 -30 96.666 -90 135.999c-12.667 8.66699 -27.667 17.667 -45 27c56.667 29.333 89.334 71 98.001 125c1.33301 8 2 15.667 2 23c0 59.333 -28 101.666 -84 126.999
c-26.667 12 -56.667 18 -90 18c-68 0 -120 -20.667 -156 -62c-22.667 -26.667 -34 -58.334 -34 -95.001c0 -49.333 30.333 -93.333 91 -132l27 -16c-70 -20.667 -113.667 -59.334 -131 -116.001c-4 -14.667 -6 -29.334 -6 -44.001c0 -59.333 27.333 -103.333 82 -132
c33.333 -16.667 71.666 -25 114.999 -25zM162 492.005c0 44 22.666 72.666 67.999 85.999c14.667 4 30.334 6 47.001 6c46 0 81.333 -16 106 -48c16 -20 24 -43.333 24 -70c0 -44.667 -19.333 -81.667 -58 -111c-11.333 -8 -23.333 -15 -36 -21
c-60 32.667 -99.667 59.334 -119 80.001c-21.333 24 -32 50 -32 78zM91.999 149.004c0 46 20.999 82.999 62.999 110.999c21.333 13.333 45.666 23 72.999 29c62.667 -33.333 103.334 -58.666 122.001 -75.999c28 -25.333 42 -53.333 42 -84c0 -51.333 -27 -85.333 -81 -102
c-19.333 -6 -40.666 -9 -63.999 -9c-53.333 0 -95 17 -125 51c-20 22 -30 48.667 -30 80z" />
    <glyph glyph-name="nine" unicode="9" horiz-adv-x="518" 
d="M469 248c0 120.667 -32.666 205.667 -97.999 255c-34.667 26 -75.667 39 -123 39c-76 0 -133 -25.333 -171 -76c-22.667 -32 -34 -68.667 -34 -110c0 -70 28 -121 84 -153c31.333 -17.333 67 -26 107 -26c52.667 0.666992 98 16.334 136 47.001
c-3.33301 -156.667 -36.666 -247 -99.999 -271c-12.667 -4.66699 -26.334 -7 -41.001 -7c-38 0 -61 15.333 -69 46c-1.33301 5.33301 -3 14.333 -5 27c-3.33301 27.333 -10.333 44.666 -21 51.999c-8 5.33301 -18.333 8 -31 8c-26.667 0 -43 -12 -49 -36
c-1.33301 -4.66699 -2 -9.66699 -2 -15c0 -37.333 21.667 -66.333 65 -87c29.333 -14 62.666 -21 99.999 -21c104.667 0 177.667 48.333 219 145c22 51.333 33 112.333 33 183zM137.001 370c1.33301 96.667 38.6689 145.333 112.002 146c59.333 0 96.666 -32 111.999 -96
c4.66699 -18.667 7 -39 7 -61c0 -84 -29.333 -133 -88 -147c-10.667 -2.66699 -21.667 -4 -33 -4c-72.667 1.33301 -109.334 55.333 -110.001 162z" />
    <glyph glyph-name="colon" unicode=":" horiz-adv-x="207" 
d="M157 334c0 22.667 -10.333 39 -31 49c-7.33301 3.33301 -15 5 -23 5c-22 0 -38 -10.333 -48 -31c-3.33301 -7.33301 -5 -15 -5 -23c0 -22 10 -38 30 -48c7.33301 -3.33301 15 -5 23 -5c22.667 0 39 10 49 30c3.33301 8 5 15.667 5 23zM157 102
c0 22.667 -10.333 39 -31 49c-7.33301 3.33301 -15 5 -23 5c-22 0 -38 -10.333 -48 -31c-3.33301 -8 -5 -15.667 -5 -23c0 -22.667 10 -39 30 -49c8 -3.33301 15.667 -5 23 -5c22.667 0 39 10.333 49 31c3.33301 7.33301 5 15 5 23z" />
    <glyph glyph-name="semicolon" unicode=";" horiz-adv-x="192" 
d="M152 286c0 22 -10.332 38.001 -30.999 48.001c-7.33301 3.33301 -15 5 -23 5c-22 0 -38 -10 -48 -30c-3.33301 -7.33301 -5 -15 -5 -23c0 -23.333 10.333 -39.333 31 -48c7.33301 -3.33301 14.666 -5 21.999 -5c24 0 40.333 10.333 49 31
c3.33301 7.33301 5 14.666 5 21.999zM156.001 56.001c0 36.667 -13.667 59 -41 67c-6 2 -12 3 -18 3c-22 0 -37.667 -10.333 -47 -31c-3.33301 -7.33301 -5 -15 -5 -23c0 -23.333 11 -39.333 33 -48c4 -1.33301 7.33301 -2.33301 10 -3c15.333 -4 23.333 -10.333 24 -19
c-0.666992 -18.667 -15 -42.667 -43 -72l21 -15c41.333 47.333 63.333 94.333 66 141z" />
    <glyph glyph-name="less" unicode="&#x3c;" horiz-adv-x="458" 
d="M401 75l15 34l-313 127l313 128l-13 31l-361 -145v-30z" />
    <glyph glyph-name="equal" unicode="=" horiz-adv-x="465" 
d="M423 270v38h-381v-38h381zM423 160v38h-381v-38h381z" />
    <glyph glyph-name="greater" unicode="&#x3e;" horiz-adv-x="458" 
d="M57 395l-15 -34l313 -127l-313 -128l13 -31l361 145v30z" />
    <glyph glyph-name="question" unicode="?" horiz-adv-x="459" 
d="M223 172c0 54.667 22.335 103.333 67.002 146c7.33301 7.33301 18.666 17.333 33.999 30c36.667 31.333 60 57.333 70 78c8.66699 17.333 13 35.666 13 54.999c0 60 -32.667 99.667 -98 119c-24 6.66699 -50.333 10 -79 10c-62.667 0 -110.667 -15 -144 -45
c-18 -17.333 -27.333 -37 -28 -59c2.66699 -34 19.667 -51.667 51 -53c26 0 41.667 12.667 47 38c1.33301 4.66699 2.66602 12.667 3.99902 24c3.33301 30.667 11 50.334 23 59.001c10 6.66699 23.333 10 40 10c54 -1.33301 81.333 -29.333 82 -84c0 -44 -14 -88 -42 -132
c-26.667 -42 -43 -70.333 -49 -85c-14 -33.333 -21 -70.333 -21 -111h30zM264.002 49.999c0 23.333 -10.333 40 -31 50c-8 4 -16 6 -24 6c-22.667 0 -39 -10.333 -49 -31c-4 -8 -6 -16.333 -6 -25c0 -23.333 10.667 -40 32 -50c7.33301 -3.33301 15 -5 23 -5
c23.333 0 40 10.667 50 32c3.33301 7.33301 5 15 5 23z" />
    <glyph glyph-name="at" unicode="@" horiz-adv-x="892" 
d="M670 -118l-12.0049 25.001c-58 -28 -116.667 -42 -176 -42c-94 0 -173 32 -237 96c-66 67.333 -99 152.666 -99 255.999c0 107.333 30.667 192.333 92 255c54.667 55.333 125.334 83 212.001 83c86 0 157.333 -30.333 214 -91c60 -64 90 -150 90 -258
c0 -76.667 -19.667 -128.667 -59 -156c-13.333 -10 -27.666 -15 -42.999 -15c-32 1.33301 -48.333 21 -49 59v183c-1.33301 92.667 -52 139.334 -152 140.001c-72 0 -119.333 -16.667 -142 -50c-6 -9.33301 -9 -19 -9 -29c0 -18.667 8.33301 -30.334 25 -35.001
c4.66699 -1.33301 9 -2 13 -2c22.667 0 37.334 10.667 44.001 32c0.666992 2.66699 2 7 4 13c5.33301 22.667 14 36.667 26 42c8 4 17.667 6 29 6c51.333 -1.33301 77.333 -32.666 78 -93.999v-57c-128 -1.33301 -205.333 -26 -232 -74c-8 -15.333 -12 -33 -12 -53
c0 -51.333 23.667 -84.333 71 -99c14 -4 28.667 -6 44 -6c46 0 83 16.667 111 50c7.33301 9.33301 13.333 19 18 29c7.33301 -42 36.333 -67.667 87 -77c12 -2 24 -3 36 -3c58.667 0 105.334 22.667 140.001 68c29.333 38 44 85 44 141c0 129.333 -45.333 227.333 -136 294
c-65.333 46.667 -142.333 70 -231 70c-136 0 -240.667 -45.667 -314 -137c-56 -70 -84 -154.667 -84 -254c0 -110.667 40.667 -200.334 122 -269.001c74.667 -62.667 164.334 -94 269.001 -94c76 0 148.667 17.667 218 53zM422.995 49.001c-30 0 -49 17 -57 51
c-2 10 -3 20.333 -3 31c0 44.667 31.667 71.667 95 81c18 2.66699 38.333 4.33398 61 5.00098v-73c-11.333 -44.667 -33.333 -74.334 -66 -89.001c-10 -4 -20 -6 -30 -6z" />
    <glyph glyph-name="A" unicode="A" horiz-adv-x="620" 
d="M620 0c0 15.333 -5.33496 23.668 -16.002 25.001c-3.33301 0.666992 -6.66602 1 -9.99902 1h-33l-230 574h-45l-223 -574h-63v-26h179c0 15.333 -5 23.666 -15 24.999c-3.33301 0.666992 -6.66602 1 -9.99902 1h-51l75 194h207l75 -194h-67v-26h227zM372.998 249.002
h-184l92 239z" />
    <glyph glyph-name="B" unicode="B" horiz-adv-x="594" 
d="M514 464c0 52 -25.334 90 -76.001 114c-31.333 14.667 -68.666 22 -111.999 22h-290v-26h80v-548h-80v-26h296c86.667 0 150 27 190 81c20.667 28.667 31 60 31 94c0 57.333 -26.333 100 -79 128c-21.333 11.333 -45.333 19.333 -72 24c50.667 18 84.667 48.333 102 91
c6.66699 16 10 31.333 10 46zM294.999 574c69.333 0 108.001 -31.333 116.001 -94c1.33301 -8 2 -16 2 -24c0 -46 -17.667 -79.333 -53 -100c-18.667 -11.333 -40.334 -17 -65.001 -17h-83v235h83zM316 312c59.333 0 98.999 -25.667 118.999 -77
c7.33301 -18.667 11 -38.667 11 -60c0 -54.667 -17.667 -96 -53 -124c-21.333 -16.667 -46.666 -25 -75.999 -25h-105v286h104z" />
    <glyph glyph-name="C" unicode="C" horiz-adv-x="619" 
d="M547 45c0 -28 4.66797 -44.001 14.001 -48.001c4 -1.33301 10 -2 18 -2v191h-26c-33.333 -111.333 -100.333 -167.333 -201 -168c-92.667 0 -152.334 51.333 -179.001 154c-10 38 -15 81 -15 129c0 127.333 34.667 212.333 104 255c28 17.333 59.333 26 94 26
c97.333 -1.33301 162 -56 194 -164h26l-3 187c-15.333 0 -24.666 -5 -27.999 -15c-1.33301 -8 -2 -20 -2 -36c-38 29.333 -88.333 47.333 -151 54c-14 1.33301 -28 2 -42 2c-106.667 0 -188.334 -39 -245.001 -117c-39.333 -55.333 -59 -119 -59 -191
c0 -87.333 27.333 -160.666 82 -219.999c57.333 -61.333 132.333 -92 225 -92c68 0.666992 132.667 19 194 55z" />
    <glyph glyph-name="D" unicode="D" horiz-adv-x="677" 
d="M36 600v-26h80v-548h-80v-26h280c91.333 -0 166.333 28.333 225 85c56.667 55.333 85 127 85 215c0 114 -42 197.667 -126 251c-52 32.667 -112.667 49 -182 49h-282zM316 574c99.333 0 162 -46.666 188 -139.999c10 -36.667 15 -80 15 -130
c-0.666992 -184.667 -67.667 -277.334 -201 -278.001h-106v548h104z" />
    <glyph glyph-name="E" unicode="E" horiz-adv-x="559" 
d="M510 418l-5 181.999h-469v-26h80v-548h-80v-26h469l5 182h-22l-16 -51c-17.333 -57.333 -44 -91 -80 -101c-9.33301 -2.66699 -19 -4 -29 -4h-151v269h204v29h-204v250h151c51.333 0 87.333 -33.667 108 -101c0.666992 -1.33301 1 -2.66602 1 -3.99902l16 -51h22z" />
    <glyph glyph-name="F" unicode="F" horiz-adv-x="519" 
d="M332 0v25.999h-120v269h204v29h-204v250h151c51.333 0 87.333 -33.667 108 -101c0.666992 -1.33301 1 -2.66602 1 -3.99902l16 -52h22l-5 183h-469v-26h80v-548h-80v-26h296z" />
    <glyph glyph-name="G" unicode="G" horiz-adv-x="694" 
d="M409 271l0.000976562 -26h89v-165c-39.333 -37.333 -86.333 -57.333 -141 -60c-118.667 0 -183 77 -193 231c-1.33301 16 -2 32.333 -2 49c0 166 51.667 258.667 155 278c12.667 2 25.667 3 39 3c68 0 117.333 -20.667 148 -62c19.333 -26.667 36 -66.334 50 -119.001h27
l-4 198l-89 -19c-42 20.667 -87.333 31 -136 31c-82 0 -151.667 -26.667 -209 -80c-61.333 -57.333 -92 -132.666 -92 -225.999c0 -109.333 38.667 -193.333 116 -252c54.667 -41.333 116.667 -62 186 -62c51.333 0 97.666 11.333 138.999 34c3.33301 2 6.33301 3.66699 9 5
l92 -29v245h73v26h-257z" />
    <glyph glyph-name="H" unicode="H" horiz-adv-x="721" 
d="M292 0c0 14.667 -5.33496 23 -16.002 25c-3.33301 0.666992 -6.66602 1 -9.99902 1h-54v269h297v-269h-80v-26h256c0 14.667 -5.33301 23 -16 25c-3.33301 0.666992 -6.66602 1 -9.99902 1h-54v548h80v26h-256v-26h80v-250h-297v250h80v26h-256v-26h80v-548h-80v-26h256z
" />
    <glyph glyph-name="I" unicode="I" horiz-adv-x="328" 
d="M292 0c0 14.667 -5.33398 23 -16.001 25c-3.33301 0.666992 -6.66602 1 -9.99902 1h-54v548h80v26h-256v-26h80v-548h-80v-26h256z" />
    <glyph glyph-name="J" unicode="J" horiz-adv-x="375" 
d="M344 574l-0.00195312 26h-265v-26h90v-406c0 -84.667 -9.66699 -135.334 -29 -152.001c-8 -6 -17.333 -9 -28 -9c-18 0 -30 10.333 -36 31c-7.33301 25.333 -11.666 39 -12.999 41c-8.66699 14 -22.667 21.333 -42 22c-21.333 0 -35.666 -9.66699 -42.999 -29
c-2 -6 -3 -11.667 -3 -17c0 -27.333 17.333 -47.666 52 -60.999c20 -8 43 -12 69 -12c61.333 0 107 23.333 137 70c21.333 33.333 32 75 32 125v397h79z" />
    <glyph glyph-name="K" unicode="K" horiz-adv-x="638" 
d="M292 0c0 14.667 -5.33398 23.001 -16.001 25.001c-3.33301 0.666992 -6.66602 1 -9.99902 1h-54v233l49 46l228 -305h149c0 14.667 -5.33301 23 -16 25c-3.33301 0.666992 -6.66602 1 -9.99902 1h-24l-258 343l174 162c25.333 24 44 37.667 56 41
c6 1.33301 12.333 2 19 2c15.333 0 23.666 5.33301 24.999 16c0.666992 3.33301 1 6.66602 1 9.99902h-181v-26h80l-292 -268v268h80v26h-256v-26h80v-548h-80v-26h256z" />
    <glyph glyph-name="L" unicode="L" horiz-adv-x="497" 
d="M484 0l5 203h-22l-19 -72c-15.333 -58.667 -41.333 -92.667 -78 -102c-8.66699 -2 -17.667 -3 -27 -3h-131v548h85v26h-261v-26h80v-548h-80v-26h448z" />
    <glyph glyph-name="M" unicode="M" horiz-adv-x="809" 
d="M783 600h-171.002l-208 -477l-228 477h-150v-26h80v-548h-80v-26h200c0 14.667 -5.33301 23 -16 25c-3.33301 0.666992 -6.66602 1 -9.99902 1h-54v420l218 -452h21l227 513v-481h-80v-26h251c0 14.667 -5.33301 23 -16 25c-3.33301 0.666992 -6.66602 1 -9.99902 1h-54
v548h80v26z" />
    <glyph glyph-name="N" unicode="N" horiz-adv-x="668" 
d="M455 574h83.999v-437l-375 463h-145v-26h80v-548h-80v-26h205c0 14.667 -5.33301 23 -16 25c-3.33301 0.666992 -6.66602 1 -9.99902 1h-59v454l392 -485l48 10v569h80v26h-204v-26z" />
    <glyph glyph-name="O" unicode="O" horiz-adv-x="705" 
d="M355 610c-81.333 0 -151.333 -26.666 -210 -79.999c-62.667 -58.667 -94 -134 -94 -226c0 -106.667 37 -189.667 111 -249c55.333 -43.333 118.666 -65 189.999 -65c80.667 0 150 27 208 81c62.667 59.333 94 135.666 94 228.999c0 110 -38.333 193.667 -115 251
c-53.333 39.333 -114.666 59 -183.999 59zM355 18.001c-120 0 -184 82 -192 246c-0.666992 12 -1 24 -1 36c0 172.667 53.667 266 161 280c10 1.33301 19.667 2 29 2c126 -1.33301 189.333 -94 190 -278c0 -163.333 -47 -257 -141 -281c-14.667 -3.33301 -30 -5 -46 -5z" />
    <glyph glyph-name="P" unicode="P" horiz-adv-x="562" 
d="M311 574c60.667 0 98.667 -28.667 114 -86c4 -16 6 -33 6 -51c0 -86.667 -37.667 -134 -113 -142c-7.33301 -0.666992 -14.333 -1 -21 -1h-85v280h99zM313 0c0 14.667 -5.33301 23.001 -16 25.001c-3.33301 0.666992 -6.66602 1 -9.99902 1h-75v239h88
c108.667 0 180.667 31.333 216 94c13.333 24 20 51 20 81c0 65.333 -28.667 111.666 -86 138.999c-30.667 14 -67.334 21 -110.001 21h-304v-26h80v-548h-80v-26h277z" />
    <glyph glyph-name="Q" unicode="Q" horiz-adv-x="707" 
d="M357 610c-82 0 -151.999 -26.665 -209.999 -79.998c-62.667 -58.667 -94 -135 -94 -229c0 -104 36.667 -185.667 110 -245c55.333 -44 119 -66 191 -66c28 0 54.333 3.33301 79 10c31.333 -51.333 53 -83.333 65 -96c27.333 -32 57.666 -48 90.999 -48
c54 1.33301 98 40.666 132 117.999l-21 12c-35.333 -39.333 -68 -59.333 -98 -60c-28 0 -59.333 20.667 -94 62c-4.66699 5.33301 -12.667 15.333 -24 30c74.667 34.667 125.667 91 153 169c12.667 36 19 74.333 19 115c0 107.333 -37.667 189.666 -113 246.999
c-54 40.667 -116 61 -186 61zM342.001 120.002c-37.333 -0.666992 -70.999 -22.001 -100.999 -64.001c-51.333 45.333 -77 126.666 -77 243.999c0 181.333 59.667 275.333 179 282h13c125.333 -1.33301 188.333 -93.666 189 -276.999
c-0.666992 -126.667 -29.334 -212 -86.001 -256c-40.667 46.667 -79.667 70.334 -117 71.001zM355.002 18.001c-34.667 0 -64.999 7.33398 -90.999 22.001c25.333 28 49.666 42.333 72.999 43c26.667 -0.666992 52.667 -19.334 78 -56.001c-18 -6 -38 -9 -60 -9z" />
    <glyph glyph-name="R" unicode="R" horiz-adv-x="612" 
d="M292 0v26h-80v249h86l158 -275h156c0 15.333 -4.33301 23.666 -13 24.999c-3.33301 0.666992 -7 1 -11 1h-33l-160 258c64 16.667 107.333 50.334 130 101.001c8 19.333 12 39 12 59c0 50 -21.667 90 -65 120c-36 24 -80 36 -132 36h-304v-26h80v-548h-80v-26h256z
M304 574c56 0 94.668 -23.668 116.001 -71.001c8 -19.333 12 -39.666 12 -60.999c0 -49.333 -16.667 -87 -50 -113c-20.667 -16.667 -45.334 -25 -74.001 -25h-96v270h92z" />
    <glyph glyph-name="S" unicode="S" horiz-adv-x="540" 
d="M492 159c0 58.667 -31.999 106.333 -95.999 143c-10.667 6.66699 -48.667 24.667 -114 54c-58.667 26 -95.667 52.667 -111 80c-7.33301 14.667 -11 30 -11 46c0 42.667 20.667 72.334 62 89.001c18 7.33301 37.667 11 59 11c55.333 0 97.333 -19 126 -57
c20 -26 29.667 -58 29 -96h32v176c-17.333 0 -27 -5.66699 -29 -17c-1.33301 -4.66699 -2 -10.334 -2 -17.001c-49.333 26 -103.666 39 -162.999 39c-72.667 0 -129.334 -20 -170.001 -60c-27.333 -27.333 -41 -60 -41 -98c0 -56 31 -101.667 93 -137
c11.333 -6.66699 49.333 -24.667 114 -54c59.333 -26.667 97 -54 113 -82c8 -14.667 12 -30.667 12 -48c0 -46.667 -22 -80 -66 -100c-20.667 -8.66699 -43.334 -13 -68.001 -13c-96.667 0 -152.667 55.667 -168 167l-2 21h-32v-208c16 0 25.667 4.66699 29 14
c1.33301 6 2 15.667 2 29c51.333 -34 110.333 -51 177 -51c77.333 0 137.333 20.667 180 62c30 30 45 65.667 45 107z" />
    <glyph glyph-name="T" unicode="T" horiz-adv-x="570" 
d="M426 0c0 14.667 -5.33398 23 -16.001 25c-3.33301 0.666992 -6.66602 1 -9.99902 1h-69v548h51c55.333 -0.666992 92 -35 110 -103l19 -71h28l-4 200h-499l-5 -200h28l19 71c18.667 68 55.667 102.333 111 103h46v-548h-95v-26h286z" />
    <glyph glyph-name="U" unicode="U" horiz-adv-x="635" 
d="M10 574h80.001v-350c1.33301 -155.333 80.333 -233.333 237 -234c115.333 0 185.666 46.333 210.999 139c8 30 12 65 12 105v340h80v26h-195v-26h80v-346c0 -132.667 -50.667 -202.667 -152 -210h-15c-80 0 -130 36 -150 108c-8 29.333 -12 64 -12 104v344h79v26h-255
v-26z" />
    <glyph glyph-name="V" unicode="V" horiz-adv-x="580" 
d="M324 -5l206 579h50v26h-168v-26h80l-164 -463l-179 463h80v26h-235v-26h58l192 -503c14.667 -39.333 26.667 -62.333 36 -69c7.33301 -4.66699 17.333 -7 30 -7h14z" />
    <glyph glyph-name="W" unicode="W" horiz-adv-x="843" 
d="M596 0l196.998 574h50v26h-163v-26h80l-154 -463l-160 463h81v26h-183l69 -193l-103 -297l-167 464h81v26h-230v-26h57l186 -511c14 -38 26.333 -59.333 37 -64c4.66699 -2 9.66699 -3 15 -3h11l130 365l107 -298c12.667 -35.333 23.334 -55.333 32.001 -60
c4.66699 -2 10.334 -3 17.001 -3h10z" />
    <glyph glyph-name="X" unicode="X" horiz-adv-x="611" 
d="M195 0l-0.000976562 26h-80l169 235l157 -235h-73v-26h243c0 14.667 -5.33301 23 -16 25c-3.33301 0.666992 -6.66602 1 -9.99902 1h-32l-207 307l154 213c12 17.333 25.667 26.666 41 27.999h12c16.667 5.33301 25.667 14 27 26h-175v-26h80l-156 -216l-145 216h72v26
h-242v-26h61l191 -287l-169 -233c-14 -18.667 -34.667 -28 -62 -28c-14.667 0 -23 -5.33301 -25 -16c-0.666992 -3.33301 -1 -6.66602 -1 -9.99902h186z" />
    <glyph glyph-name="Y" unicode="Y" horiz-adv-x="559" 
d="M413 0c-5.33301 16 -14.334 24.6689 -27.001 26.002h-54v225l148 295c14.667 17.333 32.334 26.666 53.001 27.999c14.667 0 23 5.33301 25 16c0.666992 3.33301 1 6.66602 1 9.99902h-178v-26h80l-148 -288l-157 288h76v26h-236v-26h53l187 -332v-216h-81v-26h258z" />
    <glyph glyph-name="Z" unicode="Z" horiz-adv-x="550" 
d="M519 0l2.00098 206.999h-23l-23 -96c-14.667 -56 -47.334 -84.333 -98.001 -85h-237l376 553v21h-446l-9 -181h22l40 90c20 42.667 47 64.334 81 65.001h207l-387 -554v-20h495z" />
    <glyph glyph-name="bracketleft" unicode="[" horiz-adv-x="355" 
d="M334 -136h-248v781h248v-28h-159v-723l159 -2v-28z" />
    <glyph glyph-name="backslash" unicode="\" horiz-adv-x="416" 
d="M326 -155l-341 865h65l341 -865h-65z" />
    <glyph glyph-name="bracketright" unicode="]" horiz-adv-x="368" 
d="M34 -136h248v781h-248v-28h159v-723l-159 -2v-28z" />
    <glyph glyph-name="asciicircum" unicode="^" horiz-adv-x="549" 
d="M85 333l29 -19l161 259l160 -259l29 19l-180 291h-19z" />
    <glyph glyph-name="underscore" unicode="_" horiz-adv-x="486" 
d="M10 -67h466v42h-466v-42z" />
    <glyph glyph-name="grave" unicode="`" horiz-adv-x="500" 
d="M348 501c-19.333 20 -45.999 55.001 -79.999 105.001c-12.667 18 -22.334 30.333 -29.001 37c-9.33301 8.66699 -19 13 -29 13c-18.667 0 -33 -9.33301 -43 -28c-3.33301 -6.66699 -5 -13.334 -5 -20.001c0.666992 -12.667 5.66699 -23 15 -31
c8 -7.33301 35.667 -24 83 -50c29.333 -16 53.333 -30.667 72 -44z" />
    <glyph glyph-name="a" unicode="a" horiz-adv-x="484" 
d="M390 -10c48 0 76.668 23.998 86.001 71.998c1.33301 10 2.33301 20.667 3 32l-26 1c-4.66699 -48 -17.334 -72.333 -38.001 -73c-16.667 1.33301 -25.334 18.333 -26.001 51v211c-1.33301 101.333 -56.333 152.333 -165 153c-77.333 0 -128.666 -17.667 -153.999 -53
c-8 -11.333 -12 -22.666 -12 -33.999c0 -21.333 10 -34.333 30 -39c4.66699 -0.666992 9 -1 13 -1c18 0 31 10.667 39 32c9.33301 26 15 40.667 17 44c12.667 17.333 31.667 26 57 26c59.333 -1.33301 89.333 -36 90 -104v-63c-166 -0.666992 -256 -39 -270 -115
c-1.33301 -7.33301 -2 -15.333 -2 -24c0 -52.667 23 -88 69 -106c17.333 -6.66699 36 -10 56 -10c48.667 0 89 16.667 121 50c12 12.667 21 26.334 27 41.001c8.66699 -60 37 -90.333 85 -91zM194.001 30.998c-42 0 -66 23.333 -72 70c-0.666992 6.66699 -1 13.667 -1 21
c0 44.667 24.667 73 74 85c26 6 62.333 9.33301 109 10v-83c-11.333 -46 -35.333 -77.667 -72 -95c-13.333 -5.33301 -26 -8 -38 -8z" />
    <glyph glyph-name="b" unicode="b" horiz-adv-x="551" 
d="M309 -10c59.333 0 108.998 22.334 148.998 67.001c37.333 42.667 56 97 56 163c0 76 -21.333 134.333 -64 175c-30 28 -66 42 -108 42c-73.333 0 -125.666 -34.333 -156.999 -103c-1.33301 -3.33301 -2.66602 -6.33301 -3.99902 -9v325h-157v-25h71v-541
c0 -30 -8.66699 -48 -26 -54c-10 -3.33301 -25 -5 -45 -5v-25h131l9 67c32.667 -50.667 81 -76.334 145 -77.001zM306.998 395.001c54 0 88.667 -35 104 -105c4.66699 -23.333 7 -49.333 7 -78c0 -96 -24.667 -157.667 -74 -185c-14.667 -8 -30.667 -12 -48 -12
c-47.333 0 -81 26.333 -101 79c-10 28 -15 61 -15 99c0 82.667 20 141.667 60 177c20 16.667 42.333 25 67 25z" />
    <glyph glyph-name="c" unicode="c" horiz-adv-x="439" 
d="M38 210c0 -84.667 31.002 -146.665 93.002 -185.998c36 -22.667 77.333 -34 124 -34c70 0 122.667 24 158 72c8.66699 11.333 15.667 23.333 21 36l-26 8c-23.333 -48.667 -61.333 -77.334 -114 -86.001c-8.66699 -1.33301 -17.334 -2 -26.001 -2
c-49.333 0 -86.333 25.333 -111 76c-16 33.333 -24 74 -24 122c0 103.333 27.667 166 83 188c13.333 5.33301 27.333 8 42 8c34.667 0 55.667 -14.333 63 -43c1.33301 -4.66699 2.66602 -12.667 3.99902 -24c4 -28 11.667 -45.333 23 -52c6.66699 -4 15 -6.33301 25 -7
c25.333 -0.666992 41 9.66602 47 30.999c1.33301 4.66699 2 9 2 13c0 32.667 -20.667 60 -62 82c-32 16.667 -67.333 25 -106 25c-84 0 -145 -32.333 -183 -97c-22 -38 -33 -81.333 -33 -130z" />
    <glyph glyph-name="d" unicode="d" horiz-adv-x="553" 
d="M380 0h149.999c0 14 -4.33301 22 -13 24c-3.33301 0.666992 -7 1 -11 1h-50l-1 625h-180v-25h94v-239c-33.333 34 -76.666 51 -129.999 51c-70.667 0 -125 -30.333 -163 -91c-25.333 -42 -38 -89.667 -38 -143c0 -82 26.333 -142.333 79 -181
c29.333 -21.333 62 -32 98 -32c73.333 1.33301 125.333 39.333 156 114zM132.999 215c0 93.333 24.002 154 72.002 182c15.333 9.33301 32.666 14 51.999 14c47.333 0 80.666 -26.333 99.999 -79c10 -28 15 -60.667 15 -98c0 -84 -20.333 -143.667 -61 -179
c-19.333 -16 -41.333 -24 -66 -24c-51.333 0 -85.333 32.667 -102 98c-6.66699 25.333 -10 54 -10 86z" />
    <glyph glyph-name="e" unicode="e" horiz-adv-x="466" 
d="M250 412c45.333 0 74.667 -20.667 88 -62c4 -12.667 6 -26 6 -40c0 -32.667 -14.667 -52.667 -44 -60c-16.667 -4 -39.667 -5.66699 -69 -5l-98 3c2.66699 78.667 26.667 129.667 72 153c14 7.33301 29 11 45 11zM427.001 97l-24.999 8.99805
c-21.333 -46.667 -55.333 -75 -102 -85c-10.667 -2 -21 -3 -31 -3c-70.667 0 -114 44.667 -130 134c-3.33301 20.667 -5.33301 43.334 -6 68.001l115 -2c85.333 -1.33301 139.666 7.33398 162.999 26.001c15.333 13.333 23 31.333 23 54c0 47.333 -24 84.666 -72 111.999
c-33.333 18 -71.333 27 -114 27c-80.667 0 -140 -32.333 -178 -97c-21.333 -37.333 -32 -80.333 -32 -129c0 -85.333 31 -148 93 -188c35.333 -22 75.333 -33 120 -33c74.667 0 129 27 163 81c4.66699 8.66699 9 17.334 13 26.001z" />
    <glyph glyph-name="f" unicode="f" horiz-adv-x="312" 
d="M261 25l-71.001 0.000976562v376h115v25h-115v6c0 112 15.333 176 46 192c7.33301 4 15.666 6 24.999 6c20 0 36.667 -12.667 50 -38c12.667 -23.333 21.667 -37.333 27 -42c6.66699 -4.66699 13.667 -7 21 -7c23.333 0 37.333 9.66699 42 29
c0.666992 3.33301 1 6.66602 1 9.99902c0 26 -16.667 46 -50 60c-20.667 8.66699 -44 13 -70 13c-65.333 0 -113.666 -26 -144.999 -78c-21.333 -36 -32 -81.333 -32 -136v-15h-72v-25h72v-317c0 -30.667 -10 -49 -30 -55c-10 -2.66699 -25 -4 -45 -4v-25h255
c0 14.667 -4.66699 22.667 -14 24c-3.33301 0.666992 -6.66602 1 -9.99902 1z" />
    <glyph glyph-name="g" unicode="g" horiz-adv-x="486" 
d="M138 277c0 83.333 26.665 128 79.998 134c4.66699 0.666992 9.33398 1 14.001 1c54.667 0 85.334 -34 92.001 -102c0.666992 -10 1 -21 1 -33c-6 -88 -37 -134 -93 -138c-58.667 0 -90 40 -94 120v18zM232.998 437c-64 0 -113.669 -20.6689 -149.002 -62.002
c-23.333 -28 -35 -60.667 -35 -98c0 -50 24 -92 72 -126l17 -11c-41.333 0 -68 -18 -80 -54c-2.66699 -9.33301 -4 -19 -4 -29c0.666992 -35.333 14.667 -61.666 42 -78.999c-21.333 -23.333 -32 -46.333 -32 -69c0 -36.667 22 -64 66 -82
c28.667 -12 63.334 -18 104.001 -18c102.667 0 170.334 24.667 203.001 74c10.667 16.667 16 34.334 16 53.001c0 59.333 -33.667 93.333 -101 102c-8.66699 1.33301 -17.667 2 -27 2l-187 4c-28.667 2 -43.334 14.667 -44.001 38c0 16.667 10 27 30 31
c4.66699 1.33301 9.66699 2 15 2l89 -1h3c61.333 0 110 20.667 146 62c24.667 29.333 37 63.333 37 102c-0.666992 50 -19.667 89.667 -57 119c10 23.333 24 36 42 38c9.33301 0 19.666 -5.33301 30.999 -16c7.33301 -6.66699 14.333 -10 21 -10
c16.667 0 26.667 8.33301 30 25c0.666992 3.33301 1 6 1 8c0 22 -10.667 37 -32 45c-7.33301 2.66699 -15 4 -23 4c-31.333 0 -56.666 -15 -75.999 -45c-7.33301 -10.667 -12.666 -22 -15.999 -34c-30.667 16.667 -64.667 25 -102 25zM233.996 -165.002
c-68 0 -111 17.0029 -129 51.0029c-4.66699 9.33301 -7 18.666 -7 27.999c0.666992 17.333 8 34.666 22 51.999c12 -3.33301 23.667 -5 35 -5l164 -2c46.667 -0.666992 74 -10.334 82 -29.001c2.66699 -6.66699 4 -13.667 4 -21c0 -30 -27.667 -51.667 -83 -65
c-26.667 -6 -56 -9 -88 -9z" />
    <glyph glyph-name="h" unicode="h" horiz-adv-x="569" 
d="M232 25l-44.999 -0.000976562v221c0 61.333 20.333 104.333 61 129c16.667 10 33.334 15 50.001 15c40 0 67.333 -19.667 82 -59c5.33301 -15.333 8 -33 8 -53v-194c0 -29.333 -6.33301 -47 -19 -53c-8.66699 -4 -23.334 -6 -44.001 -6v-25h220
c0 14.667 -5 22.667 -15 24c-2.66699 0.666992 -6 1 -10 1h-46v250c0 74.667 -25 124.334 -75 149.001c-18 8.66699 -37.333 13 -58 13c-50 0 -91.667 -18.333 -125 -55c-12.667 -14.667 -22.334 -30.667 -29.001 -48v316h-157v-25h71v-541c0 -30.667 -9 -49 -27 -55
c-9.33301 -2.66699 -24 -4 -44 -4v-25h227c0 14.667 -5 22.667 -15 24c-2.66699 0.666992 -6 1 -10 1z" />
    <glyph glyph-name="i" unicode="i" horiz-adv-x="290" 
d="M237 25h-47v401h-161v-25h76v-317c0 -30.667 -10.333 -49 -31 -55c-10 -2.66699 -25 -4 -45 -4v-25h233c0 14.667 -5 22.667 -15 24c-2.66699 0.666992 -6 1 -10 1zM201 569c0 24 -10.665 41.667 -31.998 53c-8.66699 4 -17.334 6 -26.001 6
c-24.667 0 -42.334 -11 -53.001 -33c-4 -8.66699 -6 -17.334 -6 -26.001c0 -25.333 11.333 -43.333 34 -54c8 -3.33301 16.333 -5 25 -5c24 0 41.333 11 52 33c4 8.66699 6 17.334 6 26.001z" />
    <glyph glyph-name="j" unicode="j" horiz-adv-x="270" 
d="M205 569c0 24 -10.665 41.667 -31.998 53c-8.66699 4 -17.334 6 -26.001 6c-24.667 0 -42.334 -11 -53.001 -33c-4 -8.66699 -6 -17.334 -6 -26.001c0 -25.333 11.333 -43.333 34 -54c8 -3.33301 16.333 -5 25 -5c24 0 41.333 11 52 33c4 8.66699 6 17.334 6 26.001z
M34.002 426l0.00195312 -24.999h76v-388c0 -11.333 0.333008 -28.333 1 -51c0.666992 -18.667 1 -32 1 -40c-2 -58 -15 -87.333 -39 -88c-12.667 0 -21.667 9 -27 27c-6 22.667 -11 36.334 -15 41.001c-6.66699 6.66699 -15.334 10 -26.001 10c-20.667 0 -33.667 -9 -39 -27
c-0.666992 -4 -1 -7.66699 -1 -11c0 -24.667 14.333 -43.334 43 -56.001c15.333 -6 31.333 -9 48 -9c51.333 0 89.666 23.333 114.999 70c16.667 31.333 25 70.666 25 117.999v429h-162z" />
    <glyph glyph-name="k" unicode="k" horiz-adv-x="505" 
d="M235 25l-47.001 0.000976562v149l50 47l138 -221h139c0 14 -4.33301 22 -13 24c-3.33301 0.666992 -7 1 -11 1h-33l-161 252l91 85c23.333 22 41 34.333 53 37c5.33301 1.33301 11.333 2 18 2c14.667 0 22.667 5 24 15c0.666992 3.33301 1 6.66602 1 9.99902h-170v-25h75
l-201 -187v436h-160v-25h75v-541c0 -30.667 -10 -49 -30 -55c-10 -2.66699 -25 -4 -45 -4v-25h232c0 14.667 -5 22.667 -15 24c-3.33301 0.666992 -6.66602 1 -9.99902 1z" />
    <glyph glyph-name="l" unicode="l" horiz-adv-x="294" 
d="M244 25h-54.001v625h-161v-25h76v-541c0 -30 -9 -48 -27 -54c-10.667 -3.33301 -27 -5 -49 -5v-25h239c0 14.667 -4.66699 22.667 -14 24c-3.33301 0.666992 -6.66602 1 -9.99902 1z" />
    <glyph glyph-name="m" unicode="m" horiz-adv-x="814" 
d="M225 25h-40.001v220c1.33301 58 20.333 100.667 57 128c16.667 12.667 33.667 19 51 19c32 0 54 -18.333 66 -55c4.66699 -15.333 7 -32.333 7 -51v-202c0 -30 -6.66699 -48 -20 -54c-9.33301 -3.33301 -24 -5 -44 -5v-25h214c0 14.667 -5 22.667 -15 24
c-2.66699 0.666992 -6 1 -10 1h-39v250v11c10.667 48.667 33.334 81.667 68.001 99c12 6 23.667 9 35 9c33.333 0 56.666 -17.667 69.999 -53c6 -16 9 -34.333 9 -55v-202c0 -30 -7 -48 -21 -54c-9.33301 -3.33301 -24 -5 -44 -5v-25h222c0 14.667 -5 22.667 -15 24
c-2.66699 0.666992 -6 1 -10 1h-47v251c0 67.333 -22.333 115 -67 143c-20 12 -41.667 18 -65 18c-56 0 -99.667 -27.333 -131 -82c-4 -7.33301 -7.66699 -15 -11 -23c-12.667 50 -39 82.667 -79 98c-12 4.66699 -24.333 7 -37 7c-50.667 0 -92 -22 -124 -66
c-8 -12 -15 -24.667 -21 -38l-4 93h-152v-25h72v-317c0 -30.667 -9.33301 -49 -28 -55c-10 -2.66699 -24.667 -4 -44 -4v-25h221c0 14.667 -4.66699 22.667 -14 24c-3.33301 0.666992 -6.66602 1 -9.99902 1z" />
    <glyph glyph-name="n" unicode="n" horiz-adv-x="567" 
d="M226 25l-41 -0.000976562v220c1.33301 60.667 22 104.334 62 131.001c17.333 10.667 34.666 16 51.999 16c40.667 0 67.667 -19.333 81 -58c4.66699 -14.667 7 -30.667 7 -48v-202c0 -30 -8.66699 -48 -26 -54c-9.33301 -3.33301 -23.666 -5 -42.999 -5v-25h226
c0 14.667 -5 22.667 -15 24c-2.66699 0.666992 -6 1 -10 1h-47v250c0 70 -24 118.333 -72 145c-20.667 11.333 -42.667 17 -66 17c-49.333 0 -90.333 -20 -123 -60c-11.333 -13.333 -20.333 -28.333 -27 -45l-4 94h-152v-25h72v-317c0 -30.667 -9.33301 -49 -28 -55
c-10 -2.66699 -24.667 -4 -44 -4v-25h223c0 14.667 -5 22.667 -15 24c-2.66699 0.666992 -6 1 -10 1z" />
    <glyph glyph-name="o" unicode="o" horiz-adv-x="515" 
d="M133 214c0.666992 131.333 42.001 197.335 124.001 198.002c82 -1.33301 123.333 -66 124 -194c-0.666992 -134.667 -41.334 -202.334 -122.001 -203.001c-83.333 1.33301 -125.333 67.666 -126 198.999zM260.001 437.002c-67.333 0 -122.668 -22.999 -166.001 -68.999
c-37.333 -40.667 -56 -90.667 -56 -150c0 -81.333 29.333 -143.333 88 -186c38.667 -28 82 -42 130 -42c66 0 120.333 23.333 163 70c38.667 42 58 93.667 58 155c0 81.333 -30 142.666 -90 183.999c-37.333 25.333 -79.666 38 -126.999 38z" />
    <glyph glyph-name="p" unicode="p" horiz-adv-x="552" 
d="M182 -165l-0.000976562 206c34.667 -31.333 76.334 -48.333 125.001 -51c60.667 0 111 23 151 69c37.333 43.333 56 98.333 56 165c0 76.667 -21.667 134.667 -65 174c-29.333 26 -64.333 39 -105 39c-60 0 -106.333 -23 -139 -69c-10.667 -14.667 -19 -30.667 -25 -48
l-5 106h-150v-25h71v-507c0 -30 -8.66699 -48 -26 -54c-10 -3.33301 -25 -5 -45 -5v-25h248c0 14.667 -5 22.667 -15 24c-2.66699 0.666992 -6 1 -10 1h-66zM307.999 395c59.333 0 94.999 -40.999 106.999 -122.999c2.66699 -18.667 4 -38.334 4 -59.001
c0 -102 -26.333 -165 -79 -189c-13.333 -6 -27.666 -9 -42.999 -9c-48.667 0 -82.667 27 -102 81c-9.33301 27.333 -14 60 -14 98c0 86 21.333 145.667 64 179c19.333 14.667 40.333 22 63 22z" />
    <glyph glyph-name="q" unicode="q" horiz-adv-x="554" 
d="M38 198c0 -83.333 27 -143.334 81 -180.001c28.667 -18.667 60 -28 94 -28c58 0 104 23.333 138 70c8 10.667 14.667 22.334 20 35.001v-201c0 -29.333 -10.333 -47.333 -31 -54c-12 -3.33301 -31 -5 -57 -5v-25h247c0 14.667 -4.33301 22.667 -13 24
c-3.33301 0.666992 -7.33301 1 -12 1h-49v566h73v25h-148l-5 -41c-37.333 34.667 -82.333 52 -135 52c-62.667 0 -113 -24 -151 -72c-34.667 -43.333 -52 -99 -52 -167zM372 232.999c0 -93.333 -23 -155.333 -69 -186c-17.333 -10.667 -36 -16 -56 -16
c-56 0 -91.667 35.333 -107 106c-4.66699 23.333 -7 49 -7 77c0 96 24.333 157.667 73 185c15.333 8 32.333 12 51 12c58.667 0 95 -36.333 109 -109c4 -20.667 6 -43.667 6 -69z" />
    <glyph glyph-name="r" unicode="r" horiz-adv-x="399" 
d="M259 25h-72.002v220c4.66699 57.333 24 100.333 58 129c11.333 9.33301 21 14 29 14c10 0 19.667 -8.33301 29 -25c10.667 -18.667 21.334 -29.667 32.001 -33c4.66699 -1.33301 9.33398 -2 14.001 -2c22 0 36.333 10.333 43 31c1.33301 5.33301 2 10.333 2 15
c0 30.667 -15.333 49.334 -46 56.001c-6.66699 1.33301 -13.667 2 -21 2c-41.333 0 -78 -17.333 -110 -52c-13.333 -14.667 -24 -31.334 -32 -50.001l-4 96h-151v-25h71v-317c0 -30.667 -9 -49 -27 -55c-9.33301 -2.66699 -24 -4 -44 -4v-25h254c0 14.667 -5 22.667 -15 24
c-2.66699 0.666992 -6 1 -10 1z" />
    <glyph glyph-name="s" unicode="s" horiz-adv-x="404" 
d="M191 17c46 0 76.0029 14.3311 90.0029 42.998c4.66699 9.33301 7 19 7 29c0 29.333 -20.667 54.333 -62 75c-8.66699 4.66699 -23 11.334 -43 20.001c-53.333 22.667 -89 44 -107 64c-18.667 21.333 -28 46.333 -28 75c0 47.333 26 81 78 101
c24.667 8.66699 51.334 13 80.001 13c45.333 0 83.666 -9.33301 114.999 -28c0 19.333 4.66699 30.333 14 33c3.33301 0.666992 7.66602 1 12.999 1v-125h-27c-1.33301 61.333 -35.333 92.333 -102 93c-48 0 -78 -14.667 -90 -44c-2.66699 -8 -4 -16 -4 -24
c0 -28.667 20.333 -53 61 -73c9.33301 -4.66699 23.666 -11 42.999 -19c54 -22 90 -42.667 108 -62c19.333 -22 29 -48 29 -78c0 -55.333 -29 -92 -87 -110c-22.667 -7.33301 -47.334 -11 -74.001 -11c-50 0.666992 -93.333 12.334 -130 35.001
c0 -17.333 -4.33301 -27.333 -13 -30c-4 -0.666992 -8.66699 -1 -14 -1v152h29c1.33301 -85.333 39.333 -128.333 114 -129z" />
    <glyph glyph-name="t" unicode="t" horiz-adv-x="332" 
d="M19 400h70v-276c4.66699 -87.333 45 -132.333 121 -135c62.667 0 101.667 37.667 117 113v2l-27 5c-14 -59.333 -38 -89.333 -72 -90c-35.333 1.33301 -53.333 27 -54 77v304h151v25h-151v116l-85 -21v-95h-70v-25z" />
    <glyph glyph-name="u" unicode="u" horiz-adv-x="566" 
d="M516 25h-47.001v401h-161v-25h75v-223c-0.666992 -58.667 -21.334 -101 -62.001 -127c-16.667 -10.667 -34 -16 -52 -16c-52 0 -81.667 28 -89 84c-1.33301 8.66699 -2 17.334 -2 26.001v281h-159v-25h73v-241c0.666992 -112.667 48.334 -169.334 143.001 -170.001
c50.667 0 92 20.667 124 62c10.667 14 19.334 29.333 26.001 46l7 -98h148c0 14 -4.33301 22 -13 24c-3.33301 0.666992 -7 1 -11 1z" />
    <glyph glyph-name="v" unicode="v" horiz-adv-x="466" 
d="M204 401l0.000976562 25h-201v-25h44l122 -335c14 -38 28.333 -60 43 -66c8 -3.33301 18 -5 30 -5h18l141 372c8 19.333 17.333 30.333 28 33c3.33301 0.666992 6.66602 1 9.99902 1c13.333 0 21 3.66699 23 11c0.666992 3.33301 1 8 1 14h-155v-25h76l-125 -334
l-124 334h69z" />
    <glyph glyph-name="w" unicode="w" horiz-adv-x="689" 
d="M210 401v25h-204v-25h44l123 -335c14 -38 28.333 -60.333 43 -67c6.66699 -2.66699 15.667 -4 27 -4h22l88 267l69 -196c12.667 -38 25.334 -60 38.001 -66c6.66699 -3.33301 16 -5 28 -5h19l122 371c6.66699 20.667 15 32 25 34c3.33301 0.666992 6.66602 1 9.99902 1
c14.667 0 22.667 5.33301 24 16c0.666992 2.66699 1 5.66699 1 9h-147v-25h69l-108 -334l-114 334h68v25h-161l43 -122l-79 -241l-122 338h72z" />
    <glyph glyph-name="x" unicode="x" horiz-adv-x="444" 
d="M2 0h153.998v25h-74l119 156l107 -156h-59v-25h195c0 14.667 -5 22.667 -15 24c-3.33301 0.666992 -6.66602 1 -9.99902 1h-20l-139 205l102 141c12.667 18 29.334 28.333 50.001 31c10.667 0.666992 17 4.33398 19 11.001c0.666992 3.33301 1 7.66602 1 12.999h-150v-25
h69l-107 -148l-100 148h64v25h-206v-25h48l135 -197l-115 -149c-14 -17.333 -30.667 -27.333 -50 -30c-10 -1.33301 -15.667 -5.33301 -17 -12c-0.666992 -4 -1 -8.33301 -1 -13z" />
    <glyph glyph-name="y" unicode="y" horiz-adv-x="485" 
d="M108 -159c-10.667 0 -19.002 8.33105 -25.002 24.998c-8 20.667 -15.667 33.334 -23 38.001c-6 4 -13 6 -21 6c-22 0 -35 -9.33301 -39 -28c-0.666992 -3.33301 -1 -6.33301 -1 -9c0 -24.667 14.667 -43 44 -55c14.667 -6 30 -9 46 -9c52.667 0 98.334 32 137.001 96
c15.333 25.333 30.333 56 45 92l148 370c6.66699 18.667 14.334 29.334 23.001 32.001c4 0.666992 8.66699 1 14 1c14 0 22 3.66699 24 11c0.666992 4 1 9 1 15h-152v-26h73l-125 -311l-133 311h66v26h-203v-26h47l183 -404c-36 -86 -70 -136 -102 -150
c-9.33301 -3.33301 -18.333 -5 -27 -5z" />
    <glyph glyph-name="z" unicode="z" horiz-adv-x="421" 
d="M121 26l268 383v21h-342l-9 -134h17l26 59c15.333 32 37 48.333 65 49h152l-278 -382v-22h369l3 155h-17l-13 -60c-9.33301 -39.333 -29 -62 -59 -68c-4.66699 -0.666992 -9 -1 -13 -1h-169z" />
    <glyph glyph-name="braceleft" unicode="{" horiz-adv-x="400" 
d="M239 148v-150.998c0 -44.667 8.33301 -73.334 25 -86.001c18 -12.667 56.667 -19 116 -19v-28c-85.333 0 -141 5.33301 -167 16c-34.667 14.667 -54 46.667 -58 96c-0.666992 9.33301 -1 18.666 -1 27.999v149c0 36.667 -8.66699 61 -26 73
c-11.333 7.33301 -28 13.333 -50 18v21c37.333 8 60.333 21.667 69 41c4.66699 12 7 28.667 7 50v149c0 60.667 16 100 48 118c24.667 14 76.334 21.333 155.001 22h23v-28c-63.333 0 -103 -7.33301 -119 -22c-14.667 -14 -22 -41.667 -22 -83v-151
c0 -42.667 -16.667 -73 -50 -91c-6.66699 -4 -15.334 -8.33301 -26.001 -13v-5c32.667 -14 54 -29.667 64 -47c8 -16 12 -35 12 -57z" />
    <glyph glyph-name="bar" unicode="|" horiz-adv-x="274" 
d="M106 -136v786h62v-786h-62z" />
    <glyph glyph-name="braceright" unicode="}" horiz-adv-x="392" 
d="M161 359v150.998c0 44.667 -8.33301 73.334 -25 86.001c-18 12.667 -56.667 19 -116 19v28c85.333 0 141 -5.33301 167 -16c34.667 -14.667 54 -46.667 58 -96c0.666992 -9.33301 1 -18.666 1 -27.999v-149c0 -36.667 8.66699 -61 26 -73
c11.333 -7.33301 28 -13.333 50 -18v-21c-37.333 -8 -60.333 -21.667 -69 -41c-4.66699 -12 -7 -28.667 -7 -50v-149c0 -60.667 -16 -100 -48 -118c-24.667 -14 -76.334 -21.333 -155.001 -22h-23v28c63.333 0 103 7.33301 119 22c14.667 14 22 41.667 22 83v151
c0 42.667 16.667 73 50 91c6.66699 4 15.334 8.33301 26.001 13v5c-32.667 14 -54 29.667 -64 47c-8 16 -12 35 -12 57z" />
    <glyph glyph-name="asciitilde" unicode="~" horiz-adv-x="492" 
d="M160 312c25.333 0 61.001 -12.333 107.001 -37c38.667 -21.333 66.667 -32 84 -32c35.333 1.33301 61.666 24.333 78.999 69l24 -7c-12 -60 -38.333 -98.667 -79 -116c-12.667 -4.66699 -25 -7 -37 -7c-25.333 0 -62 12.333 -110 37
c-40.667 20.667 -70.334 31 -89.001 31c-34 -1.33301 -59.333 -24 -76 -68l-25 8c14.667 63.333 44.667 102.333 90 117c10.667 3.33301 21.334 5 32.001 5z" />
    <glyph glyph-name="uni00A0" unicode="&#xa0;" horiz-adv-x="201" 
 />
    <glyph glyph-name="exclamdown" unicode="&#xa1;" horiz-adv-x="261" 
d="M93 260c0 -84 -9.66699 -175.665 -29 -274.998c-8.66699 -44 -13 -76.667 -13 -98c1.33301 -42.667 20 -64.334 56 -65.001c38 1.33301 57.333 23.666 58 66.999c0 19.333 -6.33301 62 -19 128c-14.667 79.333 -22 160.333 -22 243h-31zM54 382.002
c0 -23.333 10.333 -40 31 -50c8 -4 16 -6 24 -6c22.667 0 39 10.333 49 31c4 8 6 16.333 6 25c0 23.333 -10.667 40 -32 50c-7.33301 3.33301 -15 5 -23 5c-23.333 0 -40 -10.667 -50 -32c-3.33301 -7.33301 -5 -15 -5 -23z" />
    <glyph glyph-name="cent" unicode="&#xa2;" horiz-adv-x="462" 
d="M38 273c0 -84 30.665 -145.668 91.998 -185.001c30.667 -19.333 65.334 -30.666 104.001 -33.999v-74h29v73c71.333 2.66699 123.333 29.334 156 80.001c6 10 11 20 15 30l-26 6c-21.333 -46.667 -56.666 -75 -105.999 -85c-11.333 -2.66699 -22.666 -4 -33.999 -4h-5
v395c33.333 0 53.333 -14 60 -42c1.33301 -5.33301 2.66602 -13.333 3.99902 -24c3.33301 -28 10.333 -45.667 21 -53c7.33301 -4 15.666 -6.33301 24.999 -7c25.333 -0.666992 41 9.66602 47 30.999c1.33301 4.66699 2 9 2 13c0 32.667 -20.667 60 -62 82
c-29.333 14.667 -61.666 23 -96.999 25v70h-29v-71c-78.667 -4.66699 -135 -40 -169 -106c-18 -35.333 -27 -75.333 -27 -120zM131.998 278.999c0 106 29.332 169.333 87.999 190c4.66699 2 9.33398 3.33301 14.001 4v-388c-49.333 14.667 -81 55.667 -95 123
c-4.66699 22 -7 45.667 -7 71z" />
    <glyph glyph-name="sterling" unicode="&#xa3;" horiz-adv-x="573" 
d="M549 156l-20.998 -0.00195312c-16 -48.667 -60 -73 -132 -73c-43.333 0 -100 9 -170 27c7.33301 28 11 58.667 11 92c0 28.667 -1.66699 61 -5 97h154v29h-157c-4.66699 44.667 -7 81.334 -7 110.001c3.33301 94.667 36 143 98 145c37.333 0 61.333 -15.667 72 -47
c2 -6.66699 4.33301 -16.667 7 -30c6 -30 14.667 -49 26 -57c8.66699 -5.33301 19.334 -8 32.001 -8c26.667 0 43.667 12 51 36c2 6 3 12.333 3 19c0 42 -27 73.667 -81 95c-30.667 12.667 -65.334 19 -104.001 19c-86.667 0 -148.334 -28 -185.001 -84
c-18.667 -29.333 -28 -63 -28 -101c0 -27.333 5.33301 -59.666 16 -96.999h-69v-29h77c22.667 -70.667 35.667 -114.667 39 -132c3.33301 -16.667 5.33301 -32 6 -46c-26.667 6 -45.334 9 -56.001 9c-40 0 -65 -15.667 -75 -47c-2 -6.66699 -3 -13.667 -3 -21
c0 -26 12 -44.333 36 -55c9.33301 -4.66699 19.666 -7 30.999 -7c40.667 0 72.334 22.667 95.001 68c1.33301 1.33301 2 2.33301 2 3l34 -21c54 -34.667 96.667 -54.667 128 -60c10.667 -2 21 -3 31 -3c66 0 109.667 29.333 131 88c8.66699 23.333 13 50.333 13 81z
M114.002 27.998c-18 0 -29 8.33203 -33 24.999c-0.666992 2.66699 -1 5.33398 -1 8.00098c0 19.333 9 32 27 38c6 2 11.667 3 17 3c18 0 36.667 -4.66699 56 -14c-6 -29.333 -21.667 -48.333 -47 -57c-6.66699 -2 -13 -3 -19 -3z" />
    <glyph glyph-name="currency" unicode="&#xa4;" horiz-adv-x="604" 
d="M297 110c-52 0 -93.332 20 -123.999 60c-22.667 30 -34 67 -34 111c0 68 25 117 75 147c25.333 14.667 52.666 22 81.999 22c51.333 0 92 -19.667 122 -59c23.333 -30.667 35 -67.667 35 -111c0 -69.333 -25.667 -119 -77 -149c-24 -14 -50.333 -21 -79 -21zM295.001 77
c52 0.666992 96.3311 16.667 132.998 48l86 -87l24 24l-87 88c28 36 42 80 42 132c-0.666992 49.333 -13.667 91.333 -39 126l86 86l-24 25l-85 -85c-36 32.667 -80.333 49 -133 49c-52 -0.666992 -96 -16.667 -132 -48l-86 85l-24 -24l86 -85
c-28.667 -36.667 -43 -80.667 -43 -132c0.666992 -54 15.334 -98.333 44.001 -133l-85 -85l25 -24l84 84c36.667 -29.333 79.334 -44 128.001 -44z" />
    <glyph glyph-name="yen" unicode="&#xa5;" horiz-adv-x="568" 
d="M416 0c0 15.333 -4.33301 23.667 -13 25c-3.33301 0.666992 -7 1 -11 1h-54l2 194h134v29h-134l1 50h133v29h-122l127 218c8.66699 14 18 22.333 28 25c8 2 18.667 3 32 3c12 6 18.667 14.667 20 26h-179v-26h81l-138 -235l-146 235h66v26h-225v-26h53l156 -246h-116v-29
h134l-1 -50h-133v-29h133l-2 -194h-77v-26h251z" />
    <glyph glyph-name="brokenbar" unicode="&#xa6;" horiz-adv-x="274" 
d="M168 315v335h-62v-335h62zM168 -136v335h-62v-335h62z" />
    <glyph glyph-name="section" unicode="&#xa7;" horiz-adv-x="467" 
d="M129 321c0.666992 28 15.667 48.333 45 61c12 -6 30 -14.333 54 -25c53.333 -24 86.666 -44 99.999 -60c8.66699 -11.333 13 -23 13 -35c-0.666992 -29.333 -16 -50.333 -46 -63c-11.333 6 -29 14.667 -53 26c-53.333 24.667 -86.666 45 -99.999 61
c-8.66699 11.333 -13 23 -13 35zM420 283c0 45.333 -28.332 83.667 -84.999 115c-13.333 6.66699 -34 16.334 -62 29.001c-52.667 23.333 -86 43.333 -100 60c-10.667 12.667 -16 26.334 -16 41.001c0 26 13 45 39 57c12 5.33301 25 8 39 8c38 0 61.333 -13.333 70 -40
c1.33301 -4 3 -10 5 -18c5.33301 -22 13.333 -35 24 -39c6 -2.66699 12.667 -4 20 -4c22.667 1.33301 34.334 15 35.001 41c0 31.333 -22.333 55.333 -67 72c-25.333 8.66699 -52 13 -80 13c-64 0 -110.667 -17.333 -140 -52c-16 -18.667 -24 -40.667 -24 -66
c0.666992 -39.333 23.667 -73.333 69 -102c-57.333 -13.333 -89 -41.666 -95 -84.999c-0.666992 -4.66699 -1 -9.33398 -1 -14.001c0 -45.333 29.333 -84.333 88 -117c12.667 -7.33301 32.334 -17.333 59.001 -30c52 -24.667 84.333 -44.667 97 -60
c9.33301 -11.333 14 -23.333 14 -36c0 -30.667 -14.333 -51.334 -43 -62.001c-10.667 -4 -22 -6 -34 -6c-36.667 0 -59.667 14 -69 42c-1.33301 4 -3 10 -5 18c-6 22.667 -14.333 36.334 -25 41.001c-5.33301 2 -11 3 -17 3
c-24.667 -4.66699 -38.334 -18.334 -41.001 -41.001c0 -32.667 22.333 -57.334 67 -74.001c25.333 -9.33301 52.666 -14 81.999 -14c62.667 0 109 16.667 139 50c17.333 19.333 26 42 26 68c-0.666992 39.333 -23.334 73.333 -68.001 102c57.333 13.333 90 41 98 83
c0.666992 6 1 11.667 1 17z" />
    <glyph glyph-name="dieresis" unicode="&#xa8;" horiz-adv-x="500" 
d="M212 571c0 23.333 -10.333 39.333 -31 48c-7.33301 3.33301 -14.666 5 -21.999 5c-24 0 -40.333 -10.333 -49 -31c-3.33301 -7.33301 -5 -14.666 -5 -21.999c0 -24 10.667 -40.667 32 -50c7.33301 -2.66699 14.666 -4 21.999 -4c23.333 0 39.333 10.667 48 32
c3.33301 7.33301 5 14.666 5 21.999zM396 571c0 23.333 -10.6689 39.668 -32.002 49.001c-7.33301 2.66699 -14.666 4 -21.999 4c-24 0 -40.333 -10.667 -49 -32c-2.66699 -7.33301 -4 -14.333 -4 -21c0 -24.667 11 -41.334 33 -50.001
c6.66699 -2.66699 13.334 -4 20.001 -4c24 0 40.333 10.667 49 32c3.33301 6.66699 5 14 5 22z" />
    <glyph glyph-name="copyright" unicode="&#xa9;" horiz-adv-x="655" 
d="M613 275c0 84 -29.001 153.334 -87.001 208.001c-53.333 50.667 -119.333 76 -198 76c-90 0 -162.667 -31.667 -218 -95c-45.333 -52.667 -68 -115.667 -68 -189c0 -84.667 29.333 -154.334 88 -209.001c54 -50.667 120 -76 198 -76c88.667 0 160.334 31.333 215.001 94
c46.667 53.333 70 117 70 191zM72.999 275.001c0 82 28 147.333 84 196c46.667 40.667 103.667 61 171 61c83.333 0 149.333 -30 198 -90c38 -47.333 57 -103 57 -167c0 -79.333 -27.333 -144 -82 -194c-47.333 -42.667 -105 -64 -173 -64c-84 0 -150.333 30.333 -199 91
c-37.333 47.333 -56 103 -56 167zM332.999 455.001c-64 0 -112.335 -25.667 -145.002 -77c-19.333 -30.667 -29 -65.334 -29 -104.001c0 -60 21.667 -106.667 65 -140c30.667 -23.333 67 -35 109 -35c60.667 0 104.667 22.667 132 68c3.33301 4.66699 6 9.33398 8 14.001
l-21 9c-23.333 -41.333 -57.666 -63 -102.999 -65c-42.667 0 -72 27.333 -88 82c-6.66699 22.667 -10 48 -10 76c0 63.333 14.333 107.333 43 132c12 10 25 15 39 15c24 0 38.667 -11 44 -33l3 -18c4 -24.667 11.333 -40 22 -46c7.33301 -4 16.333 -6 27 -6
c24.667 4 38.334 15.667 41.001 35c0 34 -20.667 60 -62 78c-23.333 10 -48.333 15 -75 15z" />
    <glyph glyph-name="ordfeminine" unicode="&#xaa;" horiz-adv-x="310" 
d="M280 244v35h-256v-35h256zM292 394l-19 0.00195312c-2.66699 -24.667 -9.33398 -37.334 -20.001 -38.001c-10 1.33301 -15 10.666 -15 27.999v121c-1.33301 62.667 -37.666 94.334 -108.999 95.001c-48.667 0 -80.334 -12 -95.001 -36c-4 -7.33301 -6 -14.333 -6 -21
c4 -17.333 14.667 -27.333 32 -30c18.667 0 30.334 8.66699 35.001 26c5.33301 18 9 28.333 11 31c6 6.66699 14.333 10 25 10c28 -4 42.333 -26.667 43 -68v-29c-86.667 0 -138 -16 -154 -48c-4.66699 -10 -7 -21.333 -7 -34c0 -34.667 16.333 -57.334 49 -68.001
c9.33301 -2.66699 19 -4 29 -4c39.333 0.666992 67 18.667 83 54c10.667 -33.333 31.667 -51.333 63 -54c30.667 0 48.667 17.667 54 53c0.666992 4.66699 1 8.66699 1 12zM115 362.002c-21.333 1.33301 -32.333 16.667 -33 46c0 28.667 18.667 46 56 52
c11.333 2 23.333 3 36 3v-39c-9.33301 -32.667 -25 -52.667 -47 -60c-4 -1.33301 -8 -2 -12 -2z" />
    <glyph glyph-name="guillemotleft" unicode="&#xab;" horiz-adv-x="415" 
d="M218 378l-18 17.001c-12.667 -13.333 -56.334 -55.666 -131.001 -126.999c-15.333 -14.667 -26 -25.334 -32 -32.001c-9.33301 -10.667 -14 -21 -14 -31c0.666992 -12.667 5.33398 -23.667 14.001 -33c5.33301 -6 44 -42.667 116 -110l47 -46l18 16
c-9.33301 13.333 -39 62.666 -89 147.999l-15 25l28 48c34 59.333 59.333 101 76 125zM392 378.001l-18 17c-14 -14.667 -59 -58.334 -135 -131.001l-29 -28c-8.66699 -11.333 -13 -21.666 -13 -30.999c0.666992 -12.667 5 -23.667 13 -33c4 -4 42.667 -40.667 116 -110
l48 -46l18 16c-8 12 -36.333 59 -85 141c-8 13.333 -14.667 24 -20 32c6.66699 10.667 18 30 34 58c32 54.667 55.667 93 71 115z" />
    <glyph glyph-name="logicalnot" unicode="&#xac;" horiz-adv-x="490" 
d="M401 116h47v218h-406v-38h359v-180z" />
    <glyph glyph-name="uni00AD" unicode="&#xad;" horiz-adv-x="374" 
d="M45 199h284v41h-284v-41z" />
    <glyph glyph-name="registered" unicode="&#xae;" horiz-adv-x="395" 
d="M370 473c0 57.333 -22 102.334 -66 135.001c-31.333 23.333 -67 35 -107 35c-60.667 0 -107.667 -22.667 -141 -68c-22 -29.333 -33 -63.333 -33 -102c0 -58.667 22.667 -104.334 68 -137.001c30.667 -22 66 -33 106 -33c60 0 106.667 22.333 140 67
c22 30 33 64.333 33 103zM48 473.001c0 53.333 20.332 94.001 60.999 122.001c26 18 55.333 27 88 27c52.667 -0.666992 93.334 -21.334 122.001 -62.001c17.333 -26 26 -55 26 -87c0 -53.333 -20.667 -94.333 -62 -123c-25.333 -17.333 -54 -26 -86 -26
c-53.333 0 -94 20.333 -122 61c-18 26 -27 55.333 -27 88zM304.999 376.002c-1.33301 8.66699 -5.33398 13.333 -12.001 14h-9l-48 77c30.667 8.66699 46.334 26.667 47.001 54c0 23.333 -13.667 39.333 -41 48c-10.667 2.66699 -22 4 -34 4l-105 1v-15h23v-169h-23v-15h95
v15h-24v73h19l48 -89zM173.998 559.001l23 -0.00195312c17.333 0 28 -9.33301 32 -28c0.666992 -3.33301 1 -6.66602 1 -9.99902c0 -21.333 -8 -34.666 -24 -39.999c-3.33301 -0.666992 -6.33301 -1 -9 -1h-23v79z" />
    <glyph glyph-name="macron" unicode="&#xaf;" horiz-adv-x="500" 
d="M98 540h304v51h-304v-51z" />
    <glyph glyph-name="degree" unicode="&#xb0;" horiz-adv-x="294" 
d="M78 542c0 30.667 12.333 52.667 37 66c10.667 5.33301 21.334 8 32.001 8c26.667 0 46.667 -12.333 60 -37c6 -11.333 9 -23.666 9 -36.999c0 -28.667 -12.667 -49.334 -38 -62.001c-10 -4.66699 -20.333 -7 -31 -7c-28.667 0 -49.334 12.667 -62.001 38
c-4.66699 10 -7 20.333 -7 31zM246 542c0 36 -15.001 63.999 -45.001 83.999c-16.667 11.333 -34.667 17 -54 17c-35.333 0 -63 -15.333 -83 -46c-10.667 -17.333 -16 -35.666 -16 -54.999c0 -36 15.333 -63.333 46 -82c16.667 -9.33301 34.334 -14 53.001 -14
c36.667 0 64.667 15 84 45c10 16 15 33 15 51z" />
    <glyph glyph-name="plusminus" unicode="&#xb1;" horiz-adv-x="465" 
d="M423 255v38h-167v138h-47v-138h-167v-38h167v-138h47v138h167zM423 34v38h-381v-38h381z" />
    <glyph glyph-name="twosuperior" unicode="&#xb2;" horiz-adv-x="345" 
d="M78 387c2 12.667 22.6689 28.334 62.002 47.001c53.333 26 88 45.667 104 59c26 21.333 39 45.333 39 72c0 42 -24.667 70 -74 84c-16.667 4.66699 -34.334 7 -53.001 7c-50.667 0 -87.334 -13.333 -110.001 -40c-10.667 -12 -16 -25.667 -16 -41
c1.33301 -23.333 14 -35.333 38 -36c23.333 0 36.666 10.333 39.999 31c0.666992 4 1 10 1 18c1.33301 23.333 7 37.666 17 42.999c6.66699 3.33301 14.667 5 24 5c28.667 0 45.334 -14.333 50.001 -43c0.666992 -7.33301 1 -15 1 -23c0 -38.667 -19.333 -72 -58 -100
c-6 -4.66699 -15.667 -11.334 -29 -20.001c-36 -23.333 -59.333 -44 -70 -62c-8.66699 -15.333 -13 -32 -13 -50v-11h258l1 110h-13l-10 -27c-6 -13.333 -16.333 -20.666 -31 -21.999c-5.33301 -0.666992 -13 -1 -23 -1h-135z" />
    <glyph glyph-name="threesuperior" unicode="&#xb3;" horiz-adv-x="366" 
d="M301 635l-0.00292969 14.001h-250l-2 -110h15l12 29c5.33301 13.333 16.333 20.666 33 21.999h16h101l-107 -109l15 -12c14 6 27.667 9 41 9c38.667 -1.33301 58.334 -26.333 59.001 -75c-1.33301 -65.333 -26.666 -98.333 -75.999 -99c-20 0 -32 10.667 -36 32
c0 3.33301 -0.333008 8.33301 -1 15c-3.33301 24.667 -10.333 39.667 -21 45c-6 2.66699 -13 4 -21 4c-22 0 -34.667 -10 -38 -30c-0.666992 -2 -1 -4.33301 -1 -7c0 -34.667 21.333 -58 64 -70c16.667 -4.66699 34.334 -7 53.001 -7c52 0 93.667 15 125 45
c21.333 21.333 32 46.333 32 75c0 38 -19 64.667 -57 80c-18 7.33301 -37.667 11 -59 11c-14.667 0 -28 -1.33301 -40 -4z" />
    <glyph glyph-name="acute" unicode="&#xb4;" horiz-adv-x="500" 
d="M368 577c9.33301 8.66699 14.333 18.999 15 30.999c0 17.333 -8.66699 31.333 -26 42c-8 4 -15.333 6 -22 6c-10.667 -0.666992 -20.667 -5 -30 -13c-6 -5.33301 -22 -27.666 -48 -66.999c-21.333 -30.667 -41.333 -55.667 -60 -75l16 -18
c16.667 12 53.667 33.667 111 65c21.333 12 36 21.667 44 29z" />
    <glyph glyph-name="uni00B5" unicode="&#xb5;" horiz-adv-x="566" 
d="M176 -108c0 4.66699 -7.66602 55.667 -22.999 153c21.333 -36 52 -54.333 92 -55c45.333 0 84.666 23.333 117.999 70c8 12 15.333 25 22 39l7 -99h150c0 14.667 -4 23 -12 25c-3.33301 0.666992 -7.33301 1 -12 1h-49v400h-161v-26h75v-218
c-1.33301 -61.333 -22.333 -105 -63 -131c-16.667 -10.667 -33.667 -16 -51 -16c-52 0 -81.667 28 -89 84c-1.33301 8.66699 -2 17.334 -2 26.001v281h-159v-26h73v-241c0 -20 -3.66699 -100 -11 -240c-0.666992 -14 -1 -24 -1 -30c1.33301 -40 17 -60.333 47 -61
c32 1.33301 48.333 22.666 49 63.999z" />
    <glyph glyph-name="paragraph" unicode="&#xb6;" horiz-adv-x="523" 
d="M224 -114c66.667 0 119.668 21.002 159.001 63.002c33.333 36.667 50 83.667 50 141l-2 484h78v26h-216c-104.667 0 -177.667 -32.667 -219 -98c-18.667 -30.667 -28 -65 -28 -103c0 -68.667 26.333 -120.334 79 -155.001c35.333 -22.667 78.333 -34 129 -34h18v-159
c0 -76.667 -6.66699 -121 -20 -133c-5.33301 -4 -12 -6 -20 -6c-17.333 0 -29 11 -35 33c-0.666992 3.33301 -1.66699 8.66602 -3 15.999c-6.66699 28.667 -16.334 47 -29.001 55c-8.66699 4.66699 -19 7 -31 7c-25.333 0 -42 -11.333 -50 -34c-2 -6 -3 -12.333 -3 -19
c0 -30.667 21 -54 63 -70c24 -9.33301 50.667 -14 80 -14zM351.001 69.002c0 -72 -12.334 -118 -37.001 -138c-9.33301 -6.66699 -20.666 -11.667 -33.999 -15c13.333 18 20 65.667 20 143v515h51v-505z" />
    <glyph glyph-name="periodcentered" unicode="&#xb7;" horiz-adv-x="296" 
d="M206 231c0 24 -10.667 41.333 -32 52c-8.66699 4 -17.334 6 -26.001 6c-24 0 -41.333 -10.667 -52 -32c-4 -8.66699 -6 -17.334 -6 -26.001c0 -24 10.667 -41.333 32 -52c8.66699 -4 17.334 -6 26.001 -6c24 0 41.333 10.667 52 32c4 8.66699 6 17.334 6 26.001z" />
    <glyph glyph-name="cedilla" unicode="&#xb8;" horiz-adv-x="500" 
d="M163 -85l14 -9c16 11.333 32.667 17 50 17c30 0 47 -15 51 -45c0.666992 -4 1 -8 1 -12c0 -35.333 -13.333 -57 -40 -65c-5.33301 -1.33301 -10.666 -2 -15.999 -2c-26 0.666992 -49 13.667 -69 39l-16 -12c23.333 -34.667 58.666 -52.334 105.999 -53.001
c46.667 0 81 14.667 103 44c10 14.667 15 30.334 15 47.001c0 35.333 -18.333 60.333 -55 75c-16 6.66699 -33 10 -51 10s-35.667 -3.66699 -53 -11l30 66h-26z" />
    <glyph glyph-name="onesuperior" unicode="&#xb9;" horiz-adv-x="295" 
d="M155 649l-134.999 -94l15 -23l94 64v-242l-83 -7v-20h234c0 11.333 -5 18 -15 20c-2.66699 0.666992 -5.33398 1 -8.00098 1l-51 6v295h-51z" />
    <glyph glyph-name="ordmasculine" unicode="&#xba;" horiz-adv-x="302" 
d="M88 464c0 68 15.668 105.334 47.001 112.001c4.66699 0.666992 9 1 13 1c33.333 0 53 -22 59 -66c1.33301 -13.333 2 -28.333 2 -45c0 -68 -15 -105.333 -45 -112c-4.66699 -1.33301 -9.33398 -2 -14.001 -2c-35.333 0 -55.333 25 -60 75
c-1.33301 11.333 -2 23.666 -2 36.999zM150.001 600.001c-48 0 -85.333 -17.667 -112 -53c-16.667 -23.333 -25 -50.333 -25 -81c0 -54 21.667 -93.333 65 -118c21.333 -12.667 44.666 -19 69.999 -19c46.667 0 83.334 17.667 110.001 53c17.333 24 26 51.667 26 83
c0 55.333 -22.333 95 -67 119c-20.667 10.667 -43 16 -67 16zM21.001 244.001h256v35h-256v-35z" />
    <glyph glyph-name="guillemotright" unicode="&#xbb;" horiz-adv-x="415" 
d="M197 378l18 17.001c12.667 -13.333 56.334 -55.666 131.001 -126.999c15.333 -14.667 26 -25.334 32 -32.001c9.33301 -10.667 14 -21 14 -31c-0.666992 -12.667 -5.33398 -23.667 -14.001 -33c-5.33301 -6 -44 -42.667 -116 -110l-47 -46l-18 16
c9.33301 13.333 39 62.666 89 147.999l15 25l-28 48c-34 59.333 -59.333 101 -76 125zM23 378.001l18 17c14 -14.667 59 -58.334 135 -131.001l29 -28c8.66699 -11.333 13 -21.666 13 -30.999c-0.666992 -12.667 -5 -23.667 -13 -33c-4 -4 -42.667 -40.667 -116 -110
l-48 -46l-18 16c8 12 36.333 59 85 141c8 13.333 14.667 24 20 32c-6.66699 10.667 -18 30 -34 58c-32 54.667 -55.667 93 -71 115z" />
    <glyph glyph-name="onequarter" unicode="&#xbc;" horiz-adv-x="732" 
d="M175 -30l435 640l-31 21l-436 -641zM175 611l-134.999 -94l15 -23l94 64v-242l-83 -7v-20h234c0 11.333 -5 18 -15 20c-2.66699 0.666992 -5.33398 1 -8.00098 1l-51 6v295h-51zM684.001 -45c0 12 -3.66699 18.667 -11 20c-2.66699 0.666992 -5.66699 1 -9 1h-47v73h67
v24h-67v126h-16l-7 -20c-8 -19.333 -19.667 -30.333 -35 -33c-3.33301 -0.666992 -7 -1 -11 -1h-6v-72l-145 1c80 62.667 126.667 99.667 140 111c54 49.333 81.333 88.333 82 117c-2.66699 23.333 -15.667 35.666 -39 36.999c-17.333 0 -31 -10 -41 -30
c-2.66699 -4.66699 -6.66699 -13 -12 -25c-26 -59.333 -59 -109.666 -99 -150.999c-19.333 -20 -41 -39.667 -65 -59l5 -24l174 -1v-73h-75v-21h217z" />
    <glyph glyph-name="onehalf" unicode="&#xbd;" horiz-adv-x="744" 
d="M175 -30l435 640l-31 21l-436 -641zM175 611l-134.999 -94l15 -23l94 64v-242l-83 -7v-20h234c0 11.333 -5 18 -15 20c-2.66699 0.666992 -5.33398 1 -8.00098 1l-51 6v295h-51zM482.001 60c2 12.667 22.6689 28.334 62.002 47.001c53.333 26 88 45.667 104 59
c26 21.333 39 45.333 39 72c0 42 -24.667 70 -74 84c-16.667 4.66699 -34.334 7 -53.001 7c-50.667 0 -87.334 -13.333 -110.001 -40c-10.667 -12 -16 -25.667 -16 -41c1.33301 -23.333 14 -35.333 38 -36c23.333 0 36.666 10.333 39.999 31c0.666992 4 1 10 1 18
c1.33301 23.333 7 37.666 17 42.999c6.66699 3.33301 14.667 5 24 5c28.667 0 45.334 -14.333 50.001 -43c0.666992 -7.33301 1 -15 1 -23c0 -38.667 -19.333 -72 -58 -100c-6 -4.66699 -15.667 -11.334 -29 -20.001c-36 -23.333 -59.333 -44 -70 -62
c-8.66699 -15.333 -13 -32 -13 -50v-11h258l1 110h-13l-10 -27c-6 -13.333 -16.333 -20.666 -31 -21.999c-5.33301 -0.666992 -13 -1 -23 -1h-135z" />
    <glyph glyph-name="threequarters" unicode="&#xbe;" horiz-adv-x="746" 
d="M301 597l-0.00292969 14.001h-250l-2 -110h15l12 29c5.33301 13.333 16.333 20.666 33 21.999h16h101l-107 -109l15 -12c14 6 27.667 9 41 9c38.667 -1.33301 58.334 -26.333 59.001 -75c-1.33301 -65.333 -26.666 -98.333 -75.999 -99c-20 0 -32 10.667 -36 32
c0 3.33301 -0.333008 8.33301 -1 15c-3.33301 24.667 -10.333 39.667 -21 45c-6 2.66699 -13 4 -21 4c-22 0 -34.667 -10 -38 -30c-0.666992 -2 -1 -4.33301 -1 -7c0 -34.667 21.333 -58 64 -70c16.667 -4.66699 34.334 -7 53.001 -7c52 0 93.667 15 125 45
c21.333 21.333 32 46.333 32 75c0 38 -19 64.667 -57 80c-18 7.33301 -37.667 11 -59 11c-14.667 0 -28 -1.33301 -40 -4zM188.997 -29.999l435 640l-31 21l-436 -641zM697.997 -44.999c0 12 -3.66699 18.667 -11 20c-2.66699 0.666992 -5.66699 1 -9 1h-47v73h67v24h-67
v126h-16l-7 -20c-8 -19.333 -19.667 -30.333 -35 -33c-3.33301 -0.666992 -7 -1 -11 -1h-6v-72l-145 1c80 62.667 126.667 99.667 140 111c54 49.333 81.333 88.333 82 117c-2.66699 23.333 -15.667 35.666 -39 36.999c-17.333 0 -31 -10 -41 -30
c-2.66699 -4.66699 -6.66699 -13 -12 -25c-26 -59.333 -59 -109.666 -99 -150.999c-19.333 -20 -41 -39.667 -65 -59l5 -24l174 -1v-73h-75v-21h217z" />
    <glyph glyph-name="questiondown" unicode="&#xbf;" horiz-adv-x="486" 
d="M226 260c0 -54.667 -22.335 -103.333 -67.002 -146c-7.33301 -7.33301 -18.666 -17.333 -33.999 -30c-36.667 -31.333 -60 -57.333 -70 -78c-8.66699 -17.333 -13 -35.666 -13 -54.999c0 -60 32.667 -99.667 98 -119c24 -6.66699 50.333 -10 79 -10
c62.667 0 110.667 15 144 45c18 17.333 27.333 37 28 59c-2.66699 34 -19.667 51.667 -51 53c-26 0 -41.667 -12.667 -47 -38c-1.33301 -4.66699 -2.66602 -12.667 -3.99902 -24c-3.33301 -30.667 -11 -50.334 -23 -59.001c-10 -6.66699 -23.333 -10 -40 -10
c-54 1.33301 -81.333 29.333 -82 84c0 44 14 88 42 132c26.667 42 43 70.333 49 85c14 33.333 21 70.333 21 111h-30zM184.998 382.001c0 -23.333 10.333 -40 31 -50c8 -4 16 -6 24 -6c22.667 0 39 10.333 49 31c4 8.66699 6 17 6 25c0 23.333 -10.667 40 -32 50
c-7.33301 3.33301 -15 5 -23 5c-23.333 0 -40 -10.667 -50 -32c-3.33301 -7.33301 -5 -15 -5 -23z" />
    <glyph glyph-name="Agrave" unicode="&#xc0;" horiz-adv-x="620" 
d="M620 0c0 15.333 -5.33496 23.668 -16.002 25.001c-3.33301 0.666992 -6.66602 1 -9.99902 1h-33l-230 574h-45l-223 -574h-63v-26h179c0 15.333 -5 23.666 -15 24.999c-3.33301 0.666992 -6.66602 1 -9.99902 1h-51l75 194h207l75 -194h-67v-26h227zM372.998 249.002
h-184l92 239zM397.998 631.002c-19.333 20 -45.999 55.001 -79.999 105.001c-12.667 18 -22.334 30.333 -29.001 37c-9.33301 8.66699 -19 13 -29 13c-18.667 0 -33 -9.33301 -43 -28c-3.33301 -6.66699 -5 -13.334 -5 -20.001c0.666992 -12.667 5.66699 -23 15 -31
c8 -7.33301 35.667 -24 83 -50c29.333 -16 53.333 -30.667 72 -44z" />
    <glyph glyph-name="Aacute" unicode="&#xc1;" horiz-adv-x="620" 
d="M620 0c0 15.333 -5.33496 23.668 -16.002 25.001c-3.33301 0.666992 -6.66602 1 -9.99902 1h-33l-230 574h-45l-223 -574h-63v-26h179c0 15.333 -5 23.666 -15 24.999c-3.33301 0.666992 -6.66602 1 -9.99902 1h-51l75 194h207l75 -194h-67v-26h227zM372.998 249.002
h-184l92 239zM399.998 707.002c9.33301 8.66699 14.333 18.999 15 30.999c0 17.333 -8.66699 31.333 -26 42c-8 4 -15.333 6 -22 6c-10.667 -0.666992 -20.667 -5 -30 -13c-6 -5.33301 -22 -27.666 -48 -66.999c-21.333 -30.667 -41.333 -55.667 -60 -75l16 -18
c16.667 12 53.667 33.667 111 65c21.333 12 36 21.667 44 29z" />
    <glyph glyph-name="Acircumflex" unicode="&#xc2;" horiz-adv-x="620" 
d="M620 0c0 15.333 -5.33496 23.668 -16.002 25.001c-3.33301 0.666992 -6.66602 1 -9.99902 1h-33l-230 574h-45l-223 -574h-63v-26h179c0 15.333 -5 23.666 -15 24.999c-3.33301 0.666992 -6.66602 1 -9.99902 1h-51l75 194h207l75 -194h-67v-26h227zM372.998 249.002
h-184l92 239zM429.998 629.002l12 17.001c-8.66699 9.33301 -33.334 38.666 -74.001 87.999c-25.333 25.333 -45.666 39 -60.999 41c-17.333 0 -36 -12 -56 -36l-20 -26c-22.667 -28 -41.667 -50.667 -57 -68l12 -15c34 21.333 75 44 123 68
c50 -25.333 90.333 -48.333 121 -69z" />
    <glyph glyph-name="Atilde" unicode="&#xc3;" horiz-adv-x="620" 
d="M620 0c0 15.333 -5.33496 23.668 -16.002 25.001c-3.33301 0.666992 -6.66602 1 -9.99902 1h-33l-230 574h-45l-223 -574h-63v-26h179c0 15.333 -5 23.666 -15 24.999c-3.33301 0.666992 -6.66602 1 -9.99902 1h-51l75 194h207l75 -194h-67v-26h227zM372.998 249.002
h-184l92 239zM256.998 767.002c20 0 44.667 -10.999 74 -32.999c24 -18 42.667 -27 56 -27c25.333 0 43 17.667 53 53c0.666992 1.33301 1 2.66602 1 3.99902l21 -5c-14 -73.333 -44.333 -110.333 -91 -111c-20 0 -44.333 10.667 -73 32c-24 18 -43 27 -57 27
c-24.667 0 -42 -16 -52 -48l-2 -8l-20 4c14 74 44 111.333 90 112z" />
    <glyph glyph-name="Adieresis" unicode="&#xc4;" horiz-adv-x="620" 
d="M620 0c0 15.333 -5.33496 23.668 -16.002 25.001c-3.33301 0.666992 -6.66602 1 -9.99902 1h-33l-230 574h-45l-223 -574h-63v-26h179c0 15.333 -5 23.666 -15 24.999c-3.33301 0.666992 -6.66602 1 -9.99902 1h-51l75 194h207l75 -194h-67v-26h227zM372.998 249.002
h-184l92 239zM269.998 701.002c0 23.333 -10.333 39.333 -31 48c-7.33301 3.33301 -14.666 5 -21.999 5c-24 0 -40.333 -10.333 -49 -31c-3.33301 -7.33301 -5 -14.666 -5 -21.999c0 -24 10.667 -40.667 32 -50c7.33301 -2.66699 14.666 -4 21.999 -4
c23.333 0 39.333 10.667 48 32c3.33301 7.33301 5 14.666 5 21.999zM453.998 701.002c0 23.333 -10.6689 39.668 -32.002 49.001c-7.33301 2.66699 -14.666 4 -21.999 4c-24 0 -40.333 -10.667 -49 -32c-2.66699 -7.33301 -4 -14.333 -4 -21
c0 -24.667 11 -41.334 33 -50.001c6.66699 -2.66699 13.334 -4 20.001 -4c24 0 40.333 10.667 49 32c3.33301 6.66699 5 14 5 22z" />
    <glyph glyph-name="Aring" unicode="&#xc5;" horiz-adv-x="620" 
d="M620 0c0 15.333 -5.33496 23.668 -16.002 25.001c-3.33301 0.666992 -6.66602 1 -9.99902 1h-33l-224 560c42.667 6 69.667 27 81 63c2.66699 9.33301 4 19 4 29c0 38 -17.333 64.667 -52 80c-16 6.66699 -33.333 10 -52 10c-51.333 0 -85.333 -17.667 -102 -53
c-5.33301 -12 -8 -24.667 -8 -38c0 -40 18 -68 54 -84c6.66699 -2.66699 13 -4.66699 19 -6l-218 -561h-63v-26h179c0 15.333 -5 23.666 -15 24.999c-3.33301 0.666992 -6.66602 1 -9.99902 1h-51l75 194h207l75 -194h-67v-26h227zM372.998 249.002h-184l92 239z
M266.998 675.002c0 40.667 12.667 63.667 38 69c3.33301 0.666992 6.66602 1 9.99902 1c28 0 44 -18 48 -54c0.666992 -4.66699 1 -9.33398 1 -14.001c0 -36 -11 -58.333 -33 -67c-5.33301 -2 -10.666 -3 -15.999 -3c-31.333 0.666992 -47.333 23.334 -48 68.001z" />
    <glyph glyph-name="AE" unicode="&#xc6;" horiz-adv-x="877" 
d="M252 268l185 304v-304h-185zM186 0c0 15.333 -4.33301 23.666 -13 24.999c-3.33301 0.666992 -7 1 -11 1h-57l129 213h203v-213h-83v-26h469l5 183h-22l-16 -52c-17.333 -57.333 -44 -91 -80 -101c-9.33301 -2.66699 -19 -4 -29 -4h-148v269h201v29h-201v250h148
c51.333 0 87.333 -33.667 108 -101c0.666992 -1.33301 1 -2.66602 1 -3.99902l16 -52h22l-5 183h-411l-352 -574h-60v-26h186z" />
    <glyph glyph-name="Ccedilla" unicode="&#xc7;" horiz-adv-x="619" 
d="M547 45c0 -28 4.66797 -44 14.001 -48c4 -1.33301 10 -2 18 -2v191h-26c-33.333 -111.333 -100.333 -167.333 -201 -168c-92.667 0 -152.334 51.333 -179.001 154c-10 38 -15 81 -15 129c0 127.333 34.667 212.333 104 255c28 17.333 59.333 26 94 26
c97.333 -1.33301 162 -56 194 -164h26l-3 187c-15.333 0 -24.666 -5 -27.999 -15c-1.33301 -8 -2 -20 -2 -36c-38 29.333 -88.333 47.333 -151 54c-14 1.33301 -28 2 -42 2c-106.667 0 -188.334 -39 -245.001 -117c-39.333 -55.333 -59 -119 -59 -191
c0 -87.333 27 -160.333 81 -219c46 -49.333 104 -79 174 -89l-39 -79l14 -9c16 11.333 32.667 17 50 17c30 0 47 -15 51 -45c0.666992 -4 1 -8 1 -12c0 -35.333 -13.333 -57 -40 -65c-5.33301 -1.33301 -10.666 -2 -15.999 -2c-26 0.666992 -49 13.667 -69 39l-16 -12
c23.333 -34.667 58.666 -52.334 105.999 -53.001c46.667 0 81 14.667 103 44c10 14.667 15 30.334 15 47.001c0 35.333 -18.333 60.333 -55 75c-16 6.66699 -33 10 -51 10s-35.667 -3.66699 -53 -11l24 53c6.66699 -0.666992 15.667 -1 27 -1c68 0.666992 132.667 19 194 55
z" />
    <glyph glyph-name="Egrave" unicode="&#xc8;" horiz-adv-x="559" 
d="M510 418l-5 181.999h-469v-26h80v-548h-80v-26h469l5 182h-22l-16 -51c-17.333 -57.333 -44 -91 -80 -101c-9.33301 -2.66699 -19 -4 -29 -4h-151v269h204v29h-204v250h151c51.333 0 87.333 -33.667 108 -101c0.666992 -1.33301 1 -2.66602 1 -3.99902l16 -51h22z
M383 630.999c-19.333 20 -45.999 55.001 -79.999 105.001c-12.667 18 -22.334 30.333 -29.001 37c-9.33301 8.66699 -19 13 -29 13c-18.667 0 -33 -9.33301 -43 -28c-3.33301 -6.66699 -5 -13.334 -5 -20.001c0.666992 -12.667 5.66699 -23 15 -31
c8 -7.33301 35.667 -24 83 -50c29.333 -16 53.333 -30.667 72 -44z" />
    <glyph glyph-name="Eacute" unicode="&#xc9;" horiz-adv-x="559" 
d="M510 418l-5 181.999h-469v-26h80v-548h-80v-26h469l5 182h-22l-16 -51c-17.333 -57.333 -44 -91 -80 -101c-9.33301 -2.66699 -19 -4 -29 -4h-151v269h204v29h-204v250h151c51.333 0 87.333 -33.667 108 -101c0.666992 -1.33301 1 -2.66602 1 -3.99902l16 -51h22z
M385 708.999c9.33301 8.66699 14.333 18.999 15 30.999c0 17.333 -8.66699 31.333 -26 42c-8 4 -15.333 6 -22 6c-10.667 -0.666992 -20.667 -5 -30 -13c-6 -5.33301 -22 -27.666 -48 -66.999c-21.333 -30.667 -41.333 -55.667 -60 -75l16 -18
c16.667 12 53.667 33.667 111 65c21.333 12 36 21.667 44 29z" />
    <glyph glyph-name="Ecircumflex" unicode="&#xca;" horiz-adv-x="559" 
d="M510 418l-5 181.999h-469v-26h80v-548h-80v-26h469l5 182h-22l-16 -51c-17.333 -57.333 -44 -91 -80 -101c-9.33301 -2.66699 -19 -4 -29 -4h-151v269h204v29h-204v250h151c51.333 0 87.333 -33.667 108 -101c0.666992 -1.33301 1 -2.66602 1 -3.99902l16 -51h22z
M415 628.999l12 17.001c-8.66699 9.33301 -33.334 38.666 -74.001 87.999c-25.333 25.333 -45.666 39 -60.999 41c-17.333 0 -36 -12 -56 -36l-20 -26c-22.667 -28 -41.667 -50.667 -57 -68l12 -15c34 21.333 75 44 123 68c50 -25.333 90.333 -48.333 121 -69z" />
    <glyph glyph-name="Edieresis" unicode="&#xcb;" horiz-adv-x="559" 
d="M510 418l-5 181.999h-469v-26h80v-548h-80v-26h469l5 182h-22l-16 -51c-17.333 -57.333 -44 -91 -80 -101c-9.33301 -2.66699 -19 -4 -29 -4h-151v269h204v29h-204v250h151c51.333 0 87.333 -33.667 108 -101c0.666992 -1.33301 1 -2.66602 1 -3.99902l16 -51h22z
M255 700.999c0 23.333 -10.333 39.333 -31 48c-7.33301 3.33301 -14.666 5 -21.999 5c-24 0 -40.333 -10.333 -49 -31c-3.33301 -7.33301 -5 -14.666 -5 -21.999c0 -24 10.667 -40.667 32 -50c7.33301 -2.66699 14.666 -4 21.999 -4c23.333 0 39.333 10.667 48 32
c3.33301 7.33301 5 14.666 5 21.999zM439 700.999c0 23.333 -10.6689 39.668 -32.002 49.001c-7.33301 2.66699 -14.666 4 -21.999 4c-24 0 -40.333 -10.667 -49 -32c-2.66699 -7.33301 -4 -14.333 -4 -21c0 -24.667 11 -41.334 33 -50.001
c6.66699 -2.66699 13.334 -4 20.001 -4c24 0 40.333 10.667 49 32c3.33301 6.66699 5 14 5 22z" />
    <glyph glyph-name="Igrave" unicode="&#xcc;" horiz-adv-x="328" 
d="M292 0c0 14.667 -5.33398 23 -16.001 25c-3.33301 0.666992 -6.66602 1 -9.99902 1h-54v548h80v26h-256v-26h80v-548h-80v-26h256zM254.999 631c-19.333 20 -45.999 55.001 -79.999 105.001c-12.667 18 -22.334 30.333 -29.001 37c-9.33301 8.66699 -19 13 -29 13
c-18.667 0 -33 -9.33301 -43 -28c-3.33301 -6.66699 -5 -13.334 -5 -20.001c0.666992 -12.667 5.66699 -23 15 -31c8 -7.33301 35.667 -24 83 -50c29.333 -16 53.333 -30.667 72 -44z" />
    <glyph glyph-name="Iacute" unicode="&#xcd;" horiz-adv-x="328" 
d="M292 0c0 14.667 -5.33398 23 -16.001 25c-3.33301 0.666992 -6.66602 1 -9.99902 1h-54v548h80v26h-256v-26h80v-548h-80v-26h256zM256.999 707c9.33301 8.66699 14.333 18.999 15 30.999c0 17.333 -8.66699 31.333 -26 42c-8 4 -15.333 6 -22 6
c-10.667 -0.666992 -20.667 -5 -30 -13c-6 -5.33301 -22 -27.666 -48 -66.999c-21.333 -30.667 -41.333 -55.667 -60 -75l16 -18c16.667 12 53.667 33.667 111 65c21.333 12 36 21.667 44 29z" />
    <glyph glyph-name="Icircumflex" unicode="&#xce;" horiz-adv-x="328" 
d="M292 0c0 14.667 -5.33398 23 -16.001 25c-3.33301 0.666992 -6.66602 1 -9.99902 1h-54v548h80v26h-256v-26h80v-548h-80v-26h256zM286.999 629l12 17.001c-8.66699 9.33301 -33.334 38.666 -74.001 87.999c-25.333 25.333 -45.666 39 -60.999 41
c-17.333 0 -36 -12 -56 -36l-20 -26c-22.667 -28 -41.667 -50.667 -57 -68l12 -15c34 21.333 75 44 123 68c50 -25.333 90.333 -48.333 121 -69z" />
    <glyph glyph-name="Idieresis" unicode="&#xcf;" horiz-adv-x="328" 
d="M292 0c0 14.667 -5.33398 23 -16.001 25c-3.33301 0.666992 -6.66602 1 -9.99902 1h-54v548h80v26h-256v-26h80v-548h-80v-26h256zM126.999 701c0 23.333 -10.333 39.333 -31 48c-7.33301 3.33301 -14.666 5 -21.999 5c-24 0 -40.333 -10.333 -49 -31
c-3.33301 -7.33301 -5 -14.666 -5 -21.999c0 -24 10.667 -40.667 32 -50c7.33301 -2.66699 14.666 -4 21.999 -4c23.333 0 39.333 10.667 48 32c3.33301 7.33301 5 14.666 5 21.999zM310.999 701c0 23.333 -10.6689 39.668 -32.002 49.001
c-7.33301 2.66699 -14.666 4 -21.999 4c-24 0 -40.333 -10.667 -49 -32c-2.66699 -7.33301 -4 -14.333 -4 -21c0 -24.667 11 -41.334 33 -50.001c6.66699 -2.66699 13.334 -4 20.001 -4c24 0 40.333 10.667 49 32c3.33301 6.66699 5 14 5 22z" />
    <glyph glyph-name="Eth" unicode="&#xd0;" horiz-adv-x="677" 
d="M36 600v-26h80v-243h-71v-41h71v-264h-80v-26h280c91.333 -0 166.333 28.333 225 85c56.667 55.333 85 127 85 215c0 114 -42 197.667 -126 251c-52 32.667 -112.667 49 -182 49h-282zM316 574c99.333 0 162 -46.666 188 -139.999c10 -36.667 15 -80 15 -130
c-0.666992 -184.667 -67.667 -277.334 -201 -278.001h-106v264h117v41h-117v243h104z" />
    <glyph glyph-name="Ntilde" unicode="&#xd1;" horiz-adv-x="668" 
d="M455 574h83.999v-437l-375 463h-145v-26h80v-548h-80v-26h205c0 14.667 -5.33301 23 -16 25c-3.33301 0.666992 -6.66602 1 -9.99902 1h-59v454l392 -485l48 10v569h80v26h-204v-26zM284.999 767c20 0 44.667 -10.999 74 -32.999c24 -18 42.667 -27 56 -27
c25.333 0 43 17.667 53 53c0.666992 1.33301 1 2.66602 1 3.99902l21 -5c-14 -73.333 -44.333 -110.333 -91 -111c-20 0 -44.333 10.667 -73 32c-24 18 -43 27 -57 27c-24.667 0 -42 -16 -52 -48l-2 -8l-20 4c14 74 44 111.333 90 112z" />
    <glyph glyph-name="Ograve" unicode="&#xd2;" horiz-adv-x="705" 
d="M355 610c-81.333 0 -151.333 -26.666 -210 -79.999c-62.667 -58.667 -94 -134 -94 -226c0 -106.667 37 -189.667 111 -249c55.333 -43.333 118.666 -65 189.999 -65c80.667 0 150 27 208 81c62.667 59.333 94 135.666 94 228.999c0 110 -38.333 193.667 -115 251
c-53.333 39.333 -114.666 59 -183.999 59zM355 18.001c-120 0 -184 82 -192 246c-0.666992 12 -1 24 -1 36c0 172.667 53.667 266 161 280c10 1.33301 19.667 2 29 2c126 -1.33301 189.333 -94 190 -278c0 -163.333 -47 -257 -141 -281c-14.667 -3.33301 -30 -5 -46 -5z
M444 631.001c-19.333 20 -45.999 55.001 -79.999 105.001c-12.667 18 -22.334 30.333 -29.001 37c-9.33301 8.66699 -19 13 -29 13c-18.667 0 -33 -9.33301 -43 -28c-3.33301 -6.66699 -5 -13.334 -5 -20.001c0.666992 -12.667 5.66699 -23 15 -31
c8 -7.33301 35.667 -24 83 -50c29.333 -16 53.333 -30.667 72 -44z" />
    <glyph glyph-name="Oacute" unicode="&#xd3;" horiz-adv-x="705" 
d="M355 610c-81.333 0 -151.333 -26.666 -210 -79.999c-62.667 -58.667 -94 -134 -94 -226c0 -106.667 37 -189.667 111 -249c55.333 -43.333 118.666 -65 189.999 -65c80.667 0 150 27 208 81c62.667 59.333 94 135.666 94 228.999c0 110 -38.333 193.667 -115 251
c-53.333 39.333 -114.666 59 -183.999 59zM355 18.001c-120 0 -184 82 -192 246c-0.666992 12 -1 24 -1 36c0 172.667 53.667 266 161 280c10 1.33301 19.667 2 29 2c126 -1.33301 189.333 -94 190 -278c0 -163.333 -47 -257 -141 -281c-14.667 -3.33301 -30 -5 -46 -5z
M446 707.001c9.33301 8.66699 14.333 18.999 15 30.999c0 17.333 -8.66699 31.333 -26 42c-8 4 -15.333 6 -22 6c-10.667 -0.666992 -20.667 -5 -30 -13c-6 -5.33301 -22 -27.666 -48 -66.999c-21.333 -30.667 -41.333 -55.667 -60 -75l16 -18
c16.667 12 53.667 33.667 111 65c21.333 12 36 21.667 44 29z" />
    <glyph glyph-name="Ocircumflex" unicode="&#xd4;" horiz-adv-x="705" 
d="M355 610c-81.333 0 -151.333 -26.666 -210 -79.999c-62.667 -58.667 -94 -134 -94 -226c0 -106.667 37 -189.667 111 -249c55.333 -43.333 118.666 -65 189.999 -65c80.667 0 150 27 208 81c62.667 59.333 94 135.666 94 228.999c0 110 -38.333 193.667 -115 251
c-53.333 39.333 -114.666 59 -183.999 59zM355 18.001c-120 0 -184 82 -192 246c-0.666992 12 -1 24 -1 36c0 172.667 53.667 266 161 280c10 1.33301 19.667 2 29 2c126 -1.33301 189.333 -94 190 -278c0 -163.333 -47 -257 -141 -281c-14.667 -3.33301 -30 -5 -46 -5z
M476 629.001l12 17.001c-8.66699 9.33301 -33.334 38.666 -74.001 87.999c-25.333 25.333 -45.666 39 -60.999 41c-17.333 0 -36 -12 -56 -36l-20 -26c-22.667 -28 -41.667 -50.667 -57 -68l12 -15c34 21.333 75 44 123 68c50 -25.333 90.333 -48.333 121 -69z" />
    <glyph glyph-name="Otilde" unicode="&#xd5;" horiz-adv-x="705" 
d="M355 610c-81.333 0 -151.333 -26.666 -210 -79.999c-62.667 -58.667 -94 -134 -94 -226c0 -106.667 37 -189.667 111 -249c55.333 -43.333 118.666 -65 189.999 -65c80.667 0 150 27 208 81c62.667 59.333 94 135.666 94 228.999c0 110 -38.333 193.667 -115 251
c-53.333 39.333 -114.666 59 -183.999 59zM355 18.001c-120 0 -184 82 -192 246c-0.666992 12 -1 24 -1 36c0 172.667 53.667 266 161 280c10 1.33301 19.667 2 29 2c126 -1.33301 189.333 -94 190 -278c0 -163.333 -47 -257 -141 -281c-14.667 -3.33301 -30 -5 -46 -5z
M303 767.001c20 0 44.667 -10.999 74 -32.999c24 -18 42.667 -27 56 -27c25.333 0 43 17.667 53 53c0.666992 1.33301 1 2.66602 1 3.99902l21 -5c-14 -73.333 -44.333 -110.333 -91 -111c-20 0 -44.333 10.667 -73 32c-24 18 -43 27 -57 27c-24.667 0 -42 -16 -52 -48
l-2 -8l-20 4c14 74 44 111.333 90 112z" />
    <glyph glyph-name="Odieresis" unicode="&#xd6;" horiz-adv-x="705" 
d="M355 610c-81.333 0 -151.333 -26.666 -210 -79.999c-62.667 -58.667 -94 -134 -94 -226c0 -106.667 37 -189.667 111 -249c55.333 -43.333 118.666 -65 189.999 -65c80.667 0 150 27 208 81c62.667 59.333 94 135.666 94 228.999c0 110 -38.333 193.667 -115 251
c-53.333 39.333 -114.666 59 -183.999 59zM355 18.001c-120 0 -184 82 -192 246c-0.666992 12 -1 24 -1 36c0 172.667 53.667 266 161 280c10 1.33301 19.667 2 29 2c126 -1.33301 189.333 -94 190 -278c0 -163.333 -47 -257 -141 -281c-14.667 -3.33301 -30 -5 -46 -5z
M316 701.001c0 23.333 -10.333 39.333 -31 48c-7.33301 3.33301 -14.666 5 -21.999 5c-24 0 -40.333 -10.333 -49 -31c-3.33301 -7.33301 -5 -14.666 -5 -21.999c0 -24 10.667 -40.667 32 -50c7.33301 -2.66699 14.666 -4 21.999 -4c23.333 0 39.333 10.667 48 32
c3.33301 7.33301 5 14.666 5 21.999zM500 701.001c0 23.333 -10.6689 39.668 -32.002 49.001c-7.33301 2.66699 -14.666 4 -21.999 4c-24 0 -40.333 -10.667 -49 -32c-2.66699 -7.33301 -4 -14.333 -4 -21c0 -24.667 11 -41.334 33 -50.001
c6.66699 -2.66699 13.334 -4 20.001 -4c24 0 40.333 10.667 49 32c3.33301 6.66699 5 14 5 22z" />
    <glyph glyph-name="multiply" unicode="&#xd7;" horiz-adv-x="401" 
d="M327 78l29 29l-128 128l128 127l-28 28l-127 -127l-128 127l-29 -29l128 -127l-127 -127l27 -28l127 127z" />
    <glyph glyph-name="Oslash" unicode="&#xd8;" horiz-adv-x="705" 
d="M355 610c-81.333 0 -151.334 -26.665 -210.001 -79.998c-62.667 -58.667 -94 -134 -94 -226c0 -106.667 37 -189.334 111 -248.001c14.667 -12 30.334 -22.333 47.001 -31l-71 -180h65l62 157c28.667 -8 57.667 -12 87 -12c80.667 0 150 27 208 81
c62.667 59.333 94 135.666 94 228.999c0 110.667 -39 194.667 -117 252c-14.667 10.667 -29.667 19.667 -45 27l52 131h-65l-43 -110c-26 6.66699 -53 10 -81 10zM161.999 300.002c0 172.667 53.667 266 161 280c10 1.33301 19.667 2 29 2c26 0 50 -4 72 -12l-198 -501
c-42.667 48 -64 125 -64 231zM354.999 18.002c-28 0 -54 5 -78 15l198 503c44.667 -44.667 67 -122 67 -232c0 -163.333 -47 -257 -141 -281c-14.667 -3.33301 -30 -5 -46 -5z" />
    <glyph glyph-name="Ugrave" unicode="&#xd9;" horiz-adv-x="635" 
d="M10 574h80.001v-350c1.33301 -155.333 80.333 -233.333 237 -234c115.333 0 185.666 46.333 210.999 139c8 30 12 65 12 105v340h80v26h-195v-26h80v-346c0 -132.667 -50.667 -202.667 -152 -210h-15c-80 0 -130 36 -150 108c-8 29.333 -12 64 -12 104v344h79v26h-255
v-26zM429.001 631c-19.333 20 -45.999 55.001 -79.999 105.001c-12.667 18 -22.334 30.333 -29.001 37c-9.33301 8.66699 -19 13 -29 13c-18.667 0 -33 -9.33301 -43 -28c-3.33301 -6.66699 -5 -13.334 -5 -20.001c0.666992 -12.667 5.66699 -23 15 -31
c8 -7.33301 35.667 -24 83 -50c29.333 -16 53.333 -30.667 72 -44z" />
    <glyph glyph-name="Uacute" unicode="&#xda;" horiz-adv-x="635" 
d="M10 574h80.001v-350c1.33301 -155.333 80.333 -233.333 237 -234c115.333 0 185.666 46.333 210.999 139c8 30 12 65 12 105v340h80v26h-195v-26h80v-346c0 -132.667 -50.667 -202.667 -152 -210h-15c-80 0 -130 36 -150 108c-8 29.333 -12 64 -12 104v344h79v26h-255
v-26zM431.001 707c9.33301 8.66699 14.333 18.999 15 30.999c0 17.333 -8.66699 31.333 -26 42c-8 4 -15.333 6 -22 6c-10.667 -0.666992 -20.667 -5 -30 -13c-6 -5.33301 -22 -27.666 -48 -66.999c-21.333 -30.667 -41.333 -55.667 -60 -75l16 -18
c16.667 12 53.667 33.667 111 65c21.333 12 36 21.667 44 29z" />
    <glyph glyph-name="Ucircumflex" unicode="&#xdb;" horiz-adv-x="635" 
d="M10 574h80.001v-350c1.33301 -155.333 80.333 -233.333 237 -234c115.333 0 185.666 46.333 210.999 139c8 30 12 65 12 105v340h80v26h-195v-26h80v-346c0 -132.667 -50.667 -202.667 -152 -210h-15c-80 0 -130 36 -150 108c-8 29.333 -12 64 -12 104v344h79v26h-255
v-26zM461.001 629l12 17.001c-8.66699 9.33301 -33.334 38.666 -74.001 87.999c-25.333 25.333 -45.666 39 -60.999 41c-17.333 0 -36 -12 -56 -36l-20 -26c-22.667 -28 -41.667 -50.667 -57 -68l12 -15c34 21.333 75 44 123 68c50 -25.333 90.333 -48.333 121 -69z" />
    <glyph glyph-name="Udieresis" unicode="&#xdc;" horiz-adv-x="635" 
d="M10 574h80.001v-350c1.33301 -155.333 80.333 -233.333 237 -234c115.333 0 185.666 46.333 210.999 139c8 30 12 65 12 105v340h80v26h-195v-26h80v-346c0 -132.667 -50.667 -202.667 -152 -210h-15c-80 0 -130 36 -150 108c-8 29.333 -12 64 -12 104v344h79v26h-255
v-26zM301.001 701c0 23.333 -10.333 39.333 -31 48c-7.33301 3.33301 -14.666 5 -21.999 5c-24 0 -40.333 -10.333 -49 -31c-3.33301 -7.33301 -5 -14.666 -5 -21.999c0 -24 10.667 -40.667 32 -50c7.33301 -2.66699 14.666 -4 21.999 -4c23.333 0 39.333 10.667 48 32
c3.33301 7.33301 5 14.666 5 21.999zM485.001 701c0 23.333 -10.6689 39.668 -32.002 49.001c-7.33301 2.66699 -14.666 4 -21.999 4c-24 0 -40.333 -10.667 -49 -32c-2.66699 -7.33301 -4 -14.333 -4 -21c0 -24.667 11 -41.334 33 -50.001
c6.66699 -2.66699 13.334 -4 20.001 -4c24 0 40.333 10.667 49 32c3.33301 6.66699 5 14 5 22z" />
    <glyph glyph-name="Yacute" unicode="&#xdd;" horiz-adv-x="559" 
d="M413 0c-5.33301 16 -14.334 24.6689 -27.001 26.002h-54v225l148 295c14.667 17.333 32.334 26.666 53.001 27.999c14.667 0 23 5.33301 25 16c0.666992 3.33301 1 6.66602 1 9.99902h-178v-26h80l-148 -288l-157 288h76v26h-236v-26h53l187 -332v-216h-81v-26h258z
M387.999 707.002c9.33301 8.66699 14.333 18.999 15 30.999c0 17.333 -8.66699 31.333 -26 42c-8 4 -15.333 6 -22 6c-10.667 -0.666992 -20.667 -5 -30 -13c-6 -5.33301 -22 -27.666 -48 -66.999c-21.333 -30.667 -41.333 -55.667 -60 -75l16 -18
c16.667 12 53.667 33.667 111 65c21.333 12 36 21.667 44 29z" />
    <glyph glyph-name="Thorn" unicode="&#xde;" 
d="M308 454c60 0 97.667 -28.667 113 -86c4 -16 6 -33 6 -51c0 -86.667 -37.667 -134 -113 -142c-6.66699 -0.666992 -13.667 -1 -21 -1h-85v280h100zM292 0c0 15.333 -4.33203 23.668 -12.999 25.001c-3.33301 0.666992 -7 1 -11 1h-60v119h88
c108.667 0 180.667 31.333 216 94c13.333 24 20 51 20 81c0 65.333 -28.667 111.666 -86 138.999c-30.667 14 -67.334 21 -110.001 21h-128v94h84v26h-260v-26h80v-548h-80v-26h260z" />
    <glyph glyph-name="germandbls" unicode="&#xdf;" horiz-adv-x="556" 
d="M537 119c0 48.667 -24.666 91.667 -73.999 129c-7.33301 6 -19 14.333 -35 25c-36.667 25.333 -59 45.666 -67 60.999c-5.33301 9.33301 -8 19 -8 29c0 22 13.667 41.333 41 58c32 19.333 49.333 30 52 32c22.667 19.333 34.334 44 35.001 74c0 42.667 -24 75.667 -72 99
c-30.667 14.667 -66 22 -106 22c-88 0 -147 -34 -177 -102c-13.333 -30 -20 -65 -20 -105v-15h-73v-26h73v-322c-1.33301 -34.667 -26.666 -52 -75.999 -52v-26h161v432c0 107.333 22.667 170 68 188c11.333 4.66699 24.333 7 39 7c42.667 0 71.334 -20 86.001 -60
c5.33301 -14.667 8 -31 8 -49c0 -34.667 -15 -62.667 -45 -84c-3.33301 -2.66699 -8.66602 -6.33398 -15.999 -11.001c-26.667 -16.667 -43.334 -32.667 -50.001 -48c-4.66699 -10.667 -7 -22.667 -7 -36c0 -38 22 -74 66 -108c6.66699 -5.33301 17 -12.666 31 -21.999
c39.333 -28 64.333 -51 75 -69c8 -14 12 -28.333 12 -43c0 -40.667 -14.333 -66.667 -43 -78c-8.66699 -3.33301 -17.334 -5 -26.001 -5c-24.667 0 -42.334 12.833 -53.001 38.5s-16.334 39.167 -17.001 40.5c-8 10.667 -18.333 16.334 -31 17.001
c-22.667 0 -36.334 -9.66699 -41.001 -29c-0.666992 -3.33301 -1 -6.66602 -1 -9.99902c0 -30.667 21.667 -53.334 65 -68.001c23.333 -8 48.333 -12 75 -12c52.667 0 93.667 16.667 123 50c18.667 22 28 48 28 78z" />
    <glyph glyph-name="agrave" unicode="&#xe0;" horiz-adv-x="484" 
d="M390 -10c48 0 76.668 23.998 86.001 71.998c1.33301 10 2.33301 20.667 3 32l-26 1c-4.66699 -48 -17.334 -72.333 -38.001 -73c-16.667 1.33301 -25.334 18.333 -26.001 51v211c-1.33301 101.333 -56.333 152.333 -165 153c-77.333 0 -128.666 -17.667 -153.999 -53
c-8 -11.333 -12 -22.666 -12 -33.999c0 -21.333 10 -34.333 30 -39c4.66699 -0.666992 9 -1 13 -1c18 0 31 10.667 39 32c9.33301 26 15 40.667 17 44c12.667 17.333 31.667 26 57 26c59.333 -1.33301 89.333 -36 90 -104v-63c-166 -0.666992 -256 -39 -270 -115
c-1.33301 -7.33301 -2 -15.333 -2 -24c0 -52.667 23 -88 69 -106c17.333 -6.66699 36 -10 56 -10c48.667 0 89 16.667 121 50c12 12.667 21 26.334 27 41.001c8.66699 -60 37 -90.333 85 -91zM194.001 30.998c-42 0 -66 23.333 -72 70c-0.666992 6.66699 -1 13.667 -1 21
c0 44.667 24.667 73 74 85c26 6 62.333 9.33301 109 10v-83c-11.333 -46 -35.333 -77.667 -72 -95c-13.333 -5.33301 -26 -8 -38 -8zM332.001 500.998c-19.333 20 -45.999 55.001 -79.999 105.001c-12.667 18 -22.334 30.333 -29.001 37c-9.33301 8.66699 -19 13 -29 13
c-18.667 0 -33 -9.33301 -43 -28c-3.33301 -6.66699 -5 -13.334 -5 -20.001c0.666992 -12.667 5.66699 -23 15 -31c8 -7.33301 35.667 -24 83 -50c29.333 -16 53.333 -30.667 72 -44z" />
    <glyph glyph-name="aacute" unicode="&#xe1;" horiz-adv-x="484" 
d="M390 -10c48 0 76.668 23.998 86.001 71.998c1.33301 10 2.33301 20.667 3 32l-26 1c-4.66699 -48 -17.334 -72.333 -38.001 -73c-16.667 1.33301 -25.334 18.333 -26.001 51v211c-1.33301 101.333 -56.333 152.333 -165 153c-77.333 0 -128.666 -17.667 -153.999 -53
c-8 -11.333 -12 -22.666 -12 -33.999c0 -21.333 10 -34.333 30 -39c4.66699 -0.666992 9 -1 13 -1c18 0 31 10.667 39 32c9.33301 26 15 40.667 17 44c12.667 17.333 31.667 26 57 26c59.333 -1.33301 89.333 -36 90 -104v-63c-166 -0.666992 -256 -39 -270 -115
c-1.33301 -7.33301 -2 -15.333 -2 -24c0 -52.667 23 -88 69 -106c17.333 -6.66699 36 -10 56 -10c48.667 0 89 16.667 121 50c12 12.667 21 26.334 27 41.001c8.66699 -60 37 -90.333 85 -91zM194.001 30.998c-42 0 -66 23.333 -72 70c-0.666992 6.66699 -1 13.667 -1 21
c0 44.667 24.667 73 74 85c26 6 62.333 9.33301 109 10v-83c-11.333 -46 -35.333 -77.667 -72 -95c-13.333 -5.33301 -26 -8 -38 -8zM334.001 576.998c9.33301 8.66699 14.333 18.999 15 30.999c0 17.333 -8.66699 31.333 -26 42c-8 4 -15.333 6 -22 6
c-10.667 -0.666992 -20.667 -5 -30 -13c-6 -5.33301 -22 -27.666 -48 -66.999c-21.333 -30.667 -41.333 -55.667 -60 -75l16 -18c16.667 12 53.667 33.667 111 65c21.333 12 36 21.667 44 29z" />
    <glyph glyph-name="acircumflex" unicode="&#xe2;" horiz-adv-x="484" 
d="M390 -10c48 0 76.668 23.998 86.001 71.998c1.33301 10 2.33301 20.667 3 32l-26 1c-4.66699 -48 -17.334 -72.333 -38.001 -73c-16.667 1.33301 -25.334 18.333 -26.001 51v211c-1.33301 101.333 -56.333 152.333 -165 153c-77.333 0 -128.666 -17.667 -153.999 -53
c-8 -11.333 -12 -22.666 -12 -33.999c0 -21.333 10 -34.333 30 -39c4.66699 -0.666992 9 -1 13 -1c18 0 31 10.667 39 32c9.33301 26 15 40.667 17 44c12.667 17.333 31.667 26 57 26c59.333 -1.33301 89.333 -36 90 -104v-63c-166 -0.666992 -256 -39 -270 -115
c-1.33301 -7.33301 -2 -15.333 -2 -24c0 -52.667 23 -88 69 -106c17.333 -6.66699 36 -10 56 -10c48.667 0 89 16.667 121 50c12 12.667 21 26.334 27 41.001c8.66699 -60 37 -90.333 85 -91zM194.001 30.998c-42 0 -66 23.333 -72 70c-0.666992 6.66699 -1 13.667 -1 21
c0 44.667 24.667 73 74 85c26 6 62.333 9.33301 109 10v-83c-11.333 -46 -35.333 -77.667 -72 -95c-13.333 -5.33301 -26 -8 -38 -8zM364.001 498.998l12 17.001c-8.66699 9.33301 -33.334 38.666 -74.001 87.999c-25.333 25.333 -45.666 39 -60.999 41
c-17.333 0 -36 -12 -56 -36l-20 -26c-22.667 -28 -41.667 -50.667 -57 -68l12 -15c34 21.333 75 44 123 68c50 -25.333 90.333 -48.333 121 -69z" />
    <glyph glyph-name="atilde" unicode="&#xe3;" horiz-adv-x="484" 
d="M390 -10c48 0 76.668 23.998 86.001 71.998c1.33301 10 2.33301 20.667 3 32l-26 1c-4.66699 -48 -17.334 -72.333 -38.001 -73c-16.667 1.33301 -25.334 18.333 -26.001 51v211c-1.33301 101.333 -56.333 152.333 -165 153c-77.333 0 -128.666 -17.667 -153.999 -53
c-8 -11.333 -12 -22.666 -12 -33.999c0 -21.333 10 -34.333 30 -39c4.66699 -0.666992 9 -1 13 -1c18 0 31 10.667 39 32c9.33301 26 15 40.667 17 44c12.667 17.333 31.667 26 57 26c59.333 -1.33301 89.333 -36 90 -104v-63c-166 -0.666992 -256 -39 -270 -115
c-1.33301 -7.33301 -2 -15.333 -2 -24c0 -52.667 23 -88 69 -106c17.333 -6.66699 36 -10 56 -10c48.667 0 89 16.667 121 50c12 12.667 21 26.334 27 41.001c8.66699 -60 37 -90.333 85 -91zM194.001 30.998c-42 0 -66 23.333 -72 70c-0.666992 6.66699 -1 13.667 -1 21
c0 44.667 24.667 73 74 85c26 6 62.333 9.33301 109 10v-83c-11.333 -46 -35.333 -77.667 -72 -95c-13.333 -5.33301 -26 -8 -38 -8zM191.001 636.998c20 0 44.667 -10.999 74 -32.999c24 -18 42.667 -27 56 -27c25.333 0 43 17.667 53 53
c0.666992 1.33301 1 2.66602 1 3.99902l21 -5c-14 -73.333 -44.333 -110.333 -91 -111c-20 0 -44.333 10.667 -73 32c-24 18 -43 27 -57 27c-24.667 0 -42 -16 -52 -48l-2 -8l-20 4c14 74 44 111.333 90 112z" />
    <glyph glyph-name="adieresis" unicode="&#xe4;" horiz-adv-x="484" 
d="M390 -10c48 0 76.668 23.998 86.001 71.998c1.33301 10 2.33301 20.667 3 32l-26 1c-4.66699 -48 -17.334 -72.333 -38.001 -73c-16.667 1.33301 -25.334 18.333 -26.001 51v211c-1.33301 101.333 -56.333 152.333 -165 153c-77.333 0 -128.666 -17.667 -153.999 -53
c-8 -11.333 -12 -22.666 -12 -33.999c0 -21.333 10 -34.333 30 -39c4.66699 -0.666992 9 -1 13 -1c18 0 31 10.667 39 32c9.33301 26 15 40.667 17 44c12.667 17.333 31.667 26 57 26c59.333 -1.33301 89.333 -36 90 -104v-63c-166 -0.666992 -256 -39 -270 -115
c-1.33301 -7.33301 -2 -15.333 -2 -24c0 -52.667 23 -88 69 -106c17.333 -6.66699 36 -10 56 -10c48.667 0 89 16.667 121 50c12 12.667 21 26.334 27 41.001c8.66699 -60 37 -90.333 85 -91zM194.001 30.998c-42 0 -66 23.333 -72 70c-0.666992 6.66699 -1 13.667 -1 21
c0 44.667 24.667 73 74 85c26 6 62.333 9.33301 109 10v-83c-11.333 -46 -35.333 -77.667 -72 -95c-13.333 -5.33301 -26 -8 -38 -8zM204.001 570.998c0 23.333 -10.333 39.333 -31 48c-7.33301 3.33301 -14.666 5 -21.999 5c-24 0 -40.333 -10.333 -49 -31
c-3.33301 -7.33301 -5 -14.666 -5 -21.999c0 -24 10.667 -40.667 32 -50c7.33301 -2.66699 14.666 -4 21.999 -4c23.333 0 39.333 10.667 48 32c3.33301 7.33301 5 14.666 5 21.999zM388.001 570.998c0 23.333 -10.6689 39.668 -32.002 49.001
c-7.33301 2.66699 -14.666 4 -21.999 4c-24 0 -40.333 -10.667 -49 -32c-2.66699 -7.33301 -4 -14.333 -4 -21c0 -24.667 11 -41.334 33 -50.001c6.66699 -2.66699 13.334 -4 20.001 -4c24 0 40.333 10.667 49 32c3.33301 6.66699 5 14 5 22z" />
    <glyph glyph-name="aring" unicode="&#xe5;" horiz-adv-x="484" 
d="M390 -10c48 0 76.668 23.998 86.001 71.998c1.33301 10 2.33301 20.667 3 32l-26 1c-4.66699 -48 -17.334 -72.333 -38.001 -73c-16.667 1.33301 -25.334 18.333 -26.001 51v211c-1.33301 101.333 -56.333 152.333 -165 153c-77.333 0 -128.666 -17.667 -153.999 -53
c-8 -11.333 -12 -22.666 -12 -33.999c0 -21.333 10 -34.333 30 -39c4.66699 -0.666992 9 -1 13 -1c18 0 31 10.667 39 32c9.33301 26 15 40.667 17 44c12.667 17.333 31.667 26 57 26c59.333 -1.33301 89.333 -36 90 -104v-63c-166 -0.666992 -256 -39 -270 -115
c-1.33301 -7.33301 -2 -15.333 -2 -24c0 -52.667 23 -88 69 -106c17.333 -6.66699 36 -10 56 -10c48.667 0 89 16.667 121 50c12 12.667 21 26.334 27 41.001c8.66699 -60 37 -90.333 85 -91zM194.001 30.998c-42 0 -66 23.333 -72 70c-0.666992 6.66699 -1 13.667 -1 21
c0 44.667 24.667 73 74 85c26 6 62.333 9.33301 109 10v-83c-11.333 -46 -35.333 -77.667 -72 -95c-13.333 -5.33301 -26 -8 -38 -8zM194.001 572.998c0 40.667 12.667 63.667 38 69c3.33301 0.666992 6.66602 1 9.99902 1c28 0 44 -18 48 -54
c0.666992 -4.66699 1 -9.33398 1 -14.001c0 -36 -11 -58.333 -33 -67c-5.33301 -2 -10.666 -3 -15.999 -3c-31.333 0.666992 -47.333 23.334 -48 68.001zM245.001 665.998c-51.333 0 -85.332 -17.667 -101.999 -53c-5.33301 -12 -8 -24.667 -8 -38
c0 -40 17.667 -67.667 53 -83c16 -6.66699 33.333 -10 52 -10c49.333 0 82.666 18 99.999 54c6 12.667 9 26 9 40c0 38 -17.333 64.667 -52 80c-16 6.66699 -33.333 10 -52 10z" />
    <glyph glyph-name="ae" unicode="&#xe6;" horiz-adv-x="727" 
d="M510 412c47.333 0 77.001 -21.667 89.001 -65c3.33301 -12 5 -24.333 5 -37c0 -32.667 -14.667 -52.667 -44 -60c-16.667 -4 -39.667 -5.66699 -69 -5l-97 3c3.33301 88 30.666 141 81.999 159c10.667 3.33301 22 5 34 5zM688.001 101l-25.9961 4.99609
c-21.333 -46.667 -55.333 -75 -102 -85c-10.667 -2 -21 -3 -31 -3c-68 0 -110.333 42.333 -127 127c-4.66699 22.667 -7.33398 47.667 -8.00098 75l114 -2c85.333 -1.33301 139.666 7.33398 162.999 26.001c15.333 13.333 23 31.333 23 54c0 47.333 -24 84.333 -72 111
c-32.667 18.667 -70.334 28 -113.001 28c-58.667 -0.666992 -106.334 -21.334 -143.001 -62.001c-25.333 41.333 -72 62 -140 62c-79.333 0 -132 -17.667 -158 -53c-7.33301 -11.333 -11 -22.666 -11 -33.999c0 -21.333 10 -34.333 30 -39c4.66699 -0.666992 9 -1 13 -1
c17.333 0 30 10 38 30c10 26.667 15.667 41 17 43c12.667 18.667 33 28.334 61 29.001c56.667 0 87.334 -30 92.001 -90v-14v-63c-160 -0.666992 -250.667 -34.667 -272 -102c-3.33301 -11.333 -5 -23.666 -5 -36.999c0 -52.667 23.667 -88 71 -106
c17.333 -6.66699 36 -10 56 -10c55.333 0 101 21.333 137 64c14 17.333 24.333 35.333 31 54c29.333 -78 91.333 -117.333 186 -118c73.333 0 126.666 26.333 159.999 79c6.66699 10.667 12 21.334 16 32.001zM196.005 30.9961c-46.667 0 -72 26.333 -76 79v12
c0 45.333 26.667 74.333 80 87c26.667 5.33301 62.667 8.33301 108 9v-84c-10 -44.667 -33.667 -75.667 -71 -93c-14 -6.66699 -27.667 -10 -41 -10z" />
    <glyph glyph-name="ccedilla" unicode="&#xe7;" horiz-adv-x="439" 
d="M38 210c0 -84 30.668 -145.998 92.001 -185.998c22.667 -14 47.334 -23.667 74.001 -29l-40 -80l14 -9c16 11.333 32.667 17 50 17c30 0 47 -15 51 -45c0.666992 -4 1 -8 1 -12c0 -35.333 -13.333 -57 -40 -65c-5.33301 -1.33301 -10.666 -2 -15.999 -2
c-26 0.666992 -49 13.667 -69 39l-16 -12c23.333 -34.667 58.666 -52.334 105.999 -53.001c46.667 0 81 14.667 103 44c10 14.667 15 30.334 15 47.001c0 35.333 -18.333 60.333 -55 75c-16 6.66699 -33 10 -51 10s-35.667 -3.66699 -53 -11l24 53
c6.66699 -0.666992 15.667 -1 27 -1c70 0 122.667 24 158 72c8.66699 11.333 15.667 23.333 21 36l-26 8c-23.333 -48.667 -61.333 -77.334 -114 -86.001c-8.66699 -1.33301 -17.334 -2 -26.001 -2c-49.333 0 -86.333 25.333 -111 76c-16 33.333 -24 74 -24 122
c0 103.333 27.667 166 83 188c13.333 5.33301 27.333 8 42 8c34.667 0 55.667 -14.333 63 -43c1.33301 -4.66699 2.66602 -12.667 3.99902 -24c4 -28 11.667 -45.333 23 -52c6.66699 -4 15 -6.33301 25 -7c25.333 -0.666992 41 9.66602 47 30.999c1.33301 4.66699 2 9 2 13
c0 32.667 -20.667 60 -62 82c-32 16.667 -67.333 25 -106 25c-84 0 -145 -32.333 -183 -97c-22 -38 -33 -81.333 -33 -130z" />
    <glyph glyph-name="egrave" unicode="&#xe8;" horiz-adv-x="466" 
d="M250 412c45.333 0 74.667 -20.667 88 -62c4 -12.667 6 -26 6 -40c0 -32.667 -14.667 -52.667 -44 -60c-16.667 -4 -39.667 -5.66699 -69 -5l-98 3c2.66699 78.667 26.667 129.667 72 153c14 7.33301 29 11 45 11zM427.001 97l-24.999 8.99805
c-21.333 -46.667 -55.333 -75 -102 -85c-10.667 -2 -21 -3 -31 -3c-70.667 0 -114 44.667 -130 134c-3.33301 20.667 -5.33301 43.334 -6 68.001l115 -2c85.333 -1.33301 139.666 7.33398 162.999 26.001c15.333 13.333 23 31.333 23 54c0 47.333 -24 84.666 -72 111.999
c-33.333 18 -71.333 27 -114 27c-80.667 0 -140 -32.333 -178 -97c-21.333 -37.333 -32 -80.333 -32 -129c0 -85.333 31 -148 93 -188c35.333 -22 75.333 -33 120 -33c74.667 0 129 27 163 81c4.66699 8.66699 9 17.334 13 26.001zM324.002 500.998
c-19.333 20 -45.999 55.001 -79.999 105.001c-12.667 18 -22.334 30.333 -29.001 37c-9.33301 8.66699 -19 13 -29 13c-18.667 0 -33 -9.33301 -43 -28c-3.33301 -6.66699 -5 -13.334 -5 -20.001c0.666992 -12.667 5.66699 -23 15 -31c8 -7.33301 35.667 -24 83 -50
c29.333 -16 53.333 -30.667 72 -44z" />
    <glyph glyph-name="eacute" unicode="&#xe9;" horiz-adv-x="466" 
d="M250 412c45.333 0 74.667 -20.667 88 -62c4 -12.667 6 -26 6 -40c0 -32.667 -14.667 -52.667 -44 -60c-16.667 -4 -39.667 -5.66699 -69 -5l-98 3c2.66699 78.667 26.667 129.667 72 153c14 7.33301 29 11 45 11zM427.001 97l-24.999 8.99805
c-21.333 -46.667 -55.333 -75 -102 -85c-10.667 -2 -21 -3 -31 -3c-70.667 0 -114 44.667 -130 134c-3.33301 20.667 -5.33301 43.334 -6 68.001l115 -2c85.333 -1.33301 139.666 7.33398 162.999 26.001c15.333 13.333 23 31.333 23 54c0 47.333 -24 84.666 -72 111.999
c-33.333 18 -71.333 27 -114 27c-80.667 0 -140 -32.333 -178 -97c-21.333 -37.333 -32 -80.333 -32 -129c0 -85.333 31 -148 93 -188c35.333 -22 75.333 -33 120 -33c74.667 0 129 27 163 81c4.66699 8.66699 9 17.334 13 26.001zM326.002 576.998
c9.33301 8.66699 14.333 18.999 15 30.999c0 17.333 -8.66699 31.333 -26 42c-8 4 -15.333 6 -22 6c-10.667 -0.666992 -20.667 -5 -30 -13c-6 -5.33301 -22 -27.666 -48 -66.999c-21.333 -30.667 -41.333 -55.667 -60 -75l16 -18c16.667 12 53.667 33.667 111 65
c21.333 12 36 21.667 44 29z" />
    <glyph glyph-name="ecircumflex" unicode="&#xea;" horiz-adv-x="466" 
d="M250 412c45.333 0 74.667 -20.667 88 -62c4 -12.667 6 -26 6 -40c0 -32.667 -14.667 -52.667 -44 -60c-16.667 -4 -39.667 -5.66699 -69 -5l-98 3c2.66699 78.667 26.667 129.667 72 153c14 7.33301 29 11 45 11zM427.001 97l-24.999 8.99805
c-21.333 -46.667 -55.333 -75 -102 -85c-10.667 -2 -21 -3 -31 -3c-70.667 0 -114 44.667 -130 134c-3.33301 20.667 -5.33301 43.334 -6 68.001l115 -2c85.333 -1.33301 139.666 7.33398 162.999 26.001c15.333 13.333 23 31.333 23 54c0 47.333 -24 84.666 -72 111.999
c-33.333 18 -71.333 27 -114 27c-80.667 0 -140 -32.333 -178 -97c-21.333 -37.333 -32 -80.333 -32 -129c0 -85.333 31 -148 93 -188c35.333 -22 75.333 -33 120 -33c74.667 0 129 27 163 81c4.66699 8.66699 9 17.334 13 26.001zM356.002 498.998l12 17.001
c-8.66699 9.33301 -33.334 38.666 -74.001 87.999c-25.333 25.333 -45.666 39 -60.999 41c-17.333 0 -36 -12 -56 -36l-20 -26c-22.667 -28 -41.667 -50.667 -57 -68l12 -15c34 21.333 75 44 123 68c50 -25.333 90.333 -48.333 121 -69z" />
    <glyph glyph-name="edieresis" unicode="&#xeb;" horiz-adv-x="466" 
d="M250 412c45.333 0 74.667 -20.667 88 -62c4 -12.667 6 -26 6 -40c0 -32.667 -14.667 -52.667 -44 -60c-16.667 -4 -39.667 -5.66699 -69 -5l-98 3c2.66699 78.667 26.667 129.667 72 153c14 7.33301 29 11 45 11zM427.001 97l-24.999 8.99805
c-21.333 -46.667 -55.333 -75 -102 -85c-10.667 -2 -21 -3 -31 -3c-70.667 0 -114 44.667 -130 134c-3.33301 20.667 -5.33301 43.334 -6 68.001l115 -2c85.333 -1.33301 139.666 7.33398 162.999 26.001c15.333 13.333 23 31.333 23 54c0 47.333 -24 84.666 -72 111.999
c-33.333 18 -71.333 27 -114 27c-80.667 0 -140 -32.333 -178 -97c-21.333 -37.333 -32 -80.333 -32 -129c0 -85.333 31 -148 93 -188c35.333 -22 75.333 -33 120 -33c74.667 0 129 27 163 81c4.66699 8.66699 9 17.334 13 26.001zM196.002 570.998
c0 23.333 -10.333 39.333 -31 48c-7.33301 3.33301 -14.666 5 -21.999 5c-24 0 -40.333 -10.333 -49 -31c-3.33301 -7.33301 -5 -14.666 -5 -21.999c0 -24 10.667 -40.667 32 -50c7.33301 -2.66699 14.666 -4 21.999 -4c23.333 0 39.333 10.667 48 32
c3.33301 7.33301 5 14.666 5 21.999zM380.002 570.998c0 23.333 -10.6689 39.668 -32.002 49.001c-7.33301 2.66699 -14.666 4 -21.999 4c-24 0 -40.333 -10.667 -49 -32c-2.66699 -7.33301 -4 -14.333 -4 -21c0 -24.667 11 -41.334 33 -50.001
c6.66699 -2.66699 13.334 -4 20.001 -4c24 0 40.333 10.667 49 32c3.33301 6.66699 5 14 5 22z" />
    <glyph glyph-name="igrave" unicode="&#xec;" horiz-adv-x="286" 
d="M239 26l-48 0.000976562v400h-163v-26h72v-322c-3.33301 -34 -27.333 -51.333 -72 -52v-26h235c0 15.333 -4.33301 23.666 -13 24.999c-3.33301 0.666992 -7 1 -11 1zM233 501.001c-19.333 20 -45.999 55.001 -79.999 105.001c-12.667 18 -22.334 30.333 -29.001 37
c-9.33301 8.66699 -19 13 -29 13c-18.667 0 -33 -9.33301 -43 -28c-3.33301 -6.66699 -5 -13.334 -5 -20.001c0.666992 -12.667 5.66699 -23 15 -31c8 -7.33301 35.667 -24 83 -50c29.333 -16 53.333 -30.667 72 -44z" />
    <glyph glyph-name="iacute" unicode="&#xed;" horiz-adv-x="286" 
d="M239 26l-48 0.000976562v400h-163v-26h72v-322c-3.33301 -34 -27.333 -51.333 -72 -52v-26h235c0 15.333 -4.33301 23.666 -13 24.999c-3.33301 0.666992 -7 1 -11 1zM235 577.001c9.33301 8.66699 14.333 18.999 15 30.999c0 17.333 -8.66699 31.333 -26 42
c-8 4 -15.333 6 -22 6c-10.667 -0.666992 -20.667 -5 -30 -13c-6 -5.33301 -22 -27.666 -48 -66.999c-21.333 -30.667 -41.333 -55.667 -60 -75l16 -18c16.667 12 53.667 33.667 111 65c21.333 12 36 21.667 44 29z" />
    <glyph glyph-name="icircumflex" unicode="&#xee;" horiz-adv-x="286" 
d="M239 26l-48 0.000976562v400h-163v-26h72v-322c-3.33301 -34 -27.333 -51.333 -72 -52v-26h235c0 15.333 -4.33301 23.666 -13 24.999c-3.33301 0.666992 -7 1 -11 1zM266 499.001l12 17.001c-8.66699 9.33301 -33.334 38.666 -74.001 87.999
c-25.333 25.333 -45.666 39 -60.999 41c-17.333 0 -36 -12 -56 -36l-20 -26c-22.667 -28 -41.667 -50.667 -57 -68l12 -15c34 21.333 75 44 123 68c50 -25.333 90.333 -48.333 121 -69z" />
    <glyph glyph-name="idieresis" unicode="&#xef;" horiz-adv-x="286" 
d="M115 570c0 23.333 -10.332 39.335 -30.999 48.002c-7.33301 3.33301 -14.333 5 -21 5c-24.667 0 -41.334 -11 -50.001 -33c-2.66699 -6.66699 -4 -13.334 -4 -20.001c0 -24 11 -40 33 -48c6.66699 -2.66699 13.667 -4 21 -4c22 0 37.667 10 47 30
c3.33301 7.33301 5 14.666 5 21.999zM279.001 570.002c0 23.333 -10.334 39.334 -31.001 48.001c-7.33301 3.33301 -14.666 5 -21.999 5c-24 0 -40.333 -10.667 -49 -32c-2.66699 -7.33301 -4 -14.333 -4 -21c0 -24 10.667 -40 32 -48c7.33301 -2.66699 14.333 -4 21 -4
c23.333 0 39.333 10 48 30c3.33301 7.33301 5 14.666 5 21.999zM239 26.0029l-48 0.000976562v400h-163v-26h72v-322c-3.33301 -34 -27.333 -51.333 -72 -52v-26h235c0 15.333 -4.33301 23.666 -13 24.999c-3.33301 0.666992 -7 1 -11 1z" />
    <glyph glyph-name="eth" unicode="&#xf0;" horiz-adv-x="535" 
d="M477 246c0 94.667 -27.667 179.667 -83 255c-21.333 29.333 -45.333 54.333 -72 75l89 51l-15 26l-102 -57c-54 33.333 -113.333 51.333 -178 54l-3 -27c54 -4 100.667 -20.667 140 -50l-123 -69l16 -28l131 75c40 -42 67.667 -100 83 -174
c-30 17.333 -64.333 26 -103 26c-64.667 0 -118.667 -21.333 -162 -64c-38 -38 -57 -84.333 -57 -139c0 -74.667 29.333 -131.667 88 -171c38 -26 81.333 -39 130 -39c88.667 0 152 38 190 114c20.667 40.667 31 88 31 142zM133 196c0 104 32 163.667 96 179c10 2 20 3 30 3
c60 0 98.667 -33 116 -99c6 -23.333 9 -49.333 9 -78c0 -78.667 -19.667 -133.334 -59 -164.001c-19.333 -14.667 -41.333 -22 -66 -22c-77.333 0 -119 51.667 -125 155c-0.666992 8.66699 -1 17.334 -1 26.001z" />
    <glyph glyph-name="ntilde" unicode="&#xf1;" horiz-adv-x="567" 
d="M226 25l-41 -0.000976562v220c1.33301 60.667 22 104.334 62 131.001c17.333 10.667 34.666 16 51.999 16c40.667 0 67.667 -19.333 81 -58c4.66699 -14.667 7 -30.667 7 -48v-202c0 -30 -8.66699 -48 -26 -54c-9.33301 -3.33301 -23.666 -5 -42.999 -5v-25h226
c0 14.667 -5 22.667 -15 24c-2.66699 0.666992 -6 1 -10 1h-47v250c0 70 -24 118.333 -72 145c-20.667 11.333 -42.667 17 -66 17c-49.333 0 -90.333 -20 -123 -60c-11.333 -13.333 -20.333 -28.333 -27 -45l-4 94h-152v-25h72v-317c0 -30.667 -9.33301 -49 -28 -55
c-10 -2.66699 -24.667 -4 -44 -4v-25h223c0 14.667 -5 22.667 -15 24c-2.66699 0.666992 -6 1 -10 1zM232 636.999c20 0 44.667 -10.999 74 -32.999c24 -18 42.667 -27 56 -27c25.333 0 43 17.667 53 53c0.666992 1.33301 1 2.66602 1 3.99902l21 -5
c-14 -73.333 -44.333 -110.333 -91 -111c-20 0 -44.333 10.667 -73 32c-24 18 -43 27 -57 27c-24.667 0 -42 -16 -52 -48l-2 -8l-20 4c14 74 44 111.333 90 112z" />
    <glyph glyph-name="ograve" unicode="&#xf2;" horiz-adv-x="515" 
d="M133 214c0.666992 131.333 42.001 197.335 124.001 198.002c82 -1.33301 123.333 -66 124 -194c-0.666992 -134.667 -41.334 -202.334 -122.001 -203.001c-83.333 1.33301 -125.333 67.666 -126 198.999zM260.001 437.002c-67.333 0 -122.668 -22.999 -166.001 -68.999
c-37.333 -40.667 -56 -90.667 -56 -150c0 -81.333 29.333 -143.333 88 -186c38.667 -28 82 -42 130 -42c66 0 120.333 23.333 163 70c38.667 42 58 93.667 58 155c0 81.333 -30 142.666 -90 183.999c-37.333 25.333 -79.666 38 -126.999 38zM353.999 501.003
c-19.333 20 -45.999 55.001 -79.999 105.001c-12.667 18 -22.334 30.333 -29.001 37c-9.33301 8.66699 -19 13 -29 13c-18.667 0 -33 -9.33301 -43 -28c-3.33301 -6.66699 -5 -13.334 -5 -20.001c0.666992 -12.667 5.66699 -23 15 -31c8 -7.33301 35.667 -24 83 -50
c29.333 -16 53.333 -30.667 72 -44z" />
    <glyph glyph-name="oacute" unicode="&#xf3;" horiz-adv-x="515" 
d="M133 214c0.666992 131.333 42.001 197.335 124.001 198.002c82 -1.33301 123.333 -66 124 -194c-0.666992 -134.667 -41.334 -202.334 -122.001 -203.001c-83.333 1.33301 -125.333 67.666 -126 198.999zM260.001 437.002c-67.333 0 -122.668 -22.999 -166.001 -68.999
c-37.333 -40.667 -56 -90.667 -56 -150c0 -81.333 29.333 -143.333 88 -186c38.667 -28 82 -42 130 -42c66 0 120.333 23.333 163 70c38.667 42 58 93.667 58 155c0 81.333 -30 142.666 -90 183.999c-37.333 25.333 -79.666 38 -126.999 38zM355.999 577.003
c9.33301 8.66699 14.333 18.999 15 30.999c0 17.333 -8.66699 31.333 -26 42c-8 4 -15.333 6 -22 6c-10.667 -0.666992 -20.667 -5 -30 -13c-6 -5.33301 -22 -27.666 -48 -66.999c-21.333 -30.667 -41.333 -55.667 -60 -75l16 -18c16.667 12 53.667 33.667 111 65
c21.333 12 36 21.667 44 29z" />
    <glyph glyph-name="ocircumflex" unicode="&#xf4;" horiz-adv-x="515" 
d="M133 214c0.666992 131.333 42.001 197.335 124.001 198.002c82 -1.33301 123.333 -66 124 -194c-0.666992 -134.667 -41.334 -202.334 -122.001 -203.001c-83.333 1.33301 -125.333 67.666 -126 198.999zM260.001 437.002c-67.333 0 -122.668 -22.999 -166.001 -68.999
c-37.333 -40.667 -56 -90.667 -56 -150c0 -81.333 29.333 -143.333 88 -186c38.667 -28 82 -42 130 -42c66 0 120.333 23.333 163 70c38.667 42 58 93.667 58 155c0 81.333 -30 142.666 -90 183.999c-37.333 25.333 -79.666 38 -126.999 38zM385.999 499.003l12 17.001
c-8.66699 9.33301 -33.334 38.666 -74.001 87.999c-25.333 25.333 -45.666 39 -60.999 41c-17.333 0 -36 -12 -56 -36l-20 -26c-22.667 -28 -41.667 -50.667 -57 -68l12 -15c34 21.333 75 44 123 68c50 -25.333 90.333 -48.333 121 -69z" />
    <glyph glyph-name="otilde" unicode="&#xf5;" horiz-adv-x="515" 
d="M133 214c0.666992 131.333 42.001 197.335 124.001 198.002c82 -1.33301 123.333 -66 124 -194c-0.666992 -134.667 -41.334 -202.334 -122.001 -203.001c-83.333 1.33301 -125.333 67.666 -126 198.999zM260.001 437.002c-67.333 0 -122.668 -22.999 -166.001 -68.999
c-37.333 -40.667 -56 -90.667 -56 -150c0 -81.333 29.333 -143.333 88 -186c38.667 -28 82 -42 130 -42c66 0 120.333 23.333 163 70c38.667 42 58 93.667 58 155c0 81.333 -30 142.666 -90 183.999c-37.333 25.333 -79.666 38 -126.999 38zM211.999 637.003
c20 0 44.667 -10.999 74 -32.999c24 -18 42.667 -27 56 -27c25.333 0 43 17.667 53 53c0.666992 1.33301 1 2.66602 1 3.99902l21 -5c-14 -73.333 -44.333 -110.333 -91 -111c-20 0 -44.333 10.667 -73 32c-24 18 -43 27 -57 27c-24.667 0 -42 -16 -52 -48l-2 -8l-20 4
c14 74 44 111.333 90 112z" />
    <glyph glyph-name="odieresis" unicode="&#xf6;" horiz-adv-x="515" 
d="M133 214c0.666992 131.333 42.001 197.335 124.001 198.002c82 -1.33301 123.333 -66 124 -194c-0.666992 -134.667 -41.334 -202.334 -122.001 -203.001c-83.333 1.33301 -125.333 67.666 -126 198.999zM260.001 437.002c-67.333 0 -122.668 -22.999 -166.001 -68.999
c-37.333 -40.667 -56 -90.667 -56 -150c0 -81.333 29.333 -143.333 88 -186c38.667 -28 82 -42 130 -42c66 0 120.333 23.333 163 70c38.667 42 58 93.667 58 155c0 81.333 -30 142.666 -90 183.999c-37.333 25.333 -79.666 38 -126.999 38zM225.999 571.003
c0 23.333 -10.333 39.333 -31 48c-7.33301 3.33301 -14.666 5 -21.999 5c-24 0 -40.333 -10.333 -49 -31c-3.33301 -7.33301 -5 -14.666 -5 -21.999c0 -24 10.667 -40.667 32 -50c7.33301 -2.66699 14.666 -4 21.999 -4c23.333 0 39.333 10.667 48 32
c3.33301 7.33301 5 14.666 5 21.999zM409.999 571.003c0 23.333 -10.6689 39.668 -32.002 49.001c-7.33301 2.66699 -14.666 4 -21.999 4c-24 0 -40.333 -10.667 -49 -32c-2.66699 -7.33301 -4 -14.333 -4 -21c0 -24.667 11 -41.334 33 -50.001
c6.66699 -2.66699 13.334 -4 20.001 -4c24 0 40.333 10.667 49 32c3.33301 6.66699 5 14 5 22z" />
    <glyph glyph-name="divide" unicode="&#xf7;" horiz-adv-x="465" 
d="M423 215v38h-381v-38h381zM194 91c3.33301 16 13.999 26.666 31.999 31.999c8.66699 1.33301 16.667 1 24 -1c16.667 -3.33301 27.334 -13.666 32.001 -30.999c2 -8 2 -15.667 0 -23c-4.66699 -18.667 -16.334 -29.667 -35.001 -33c-8 -1.33301 -15.333 -1 -22 1
c-11.333 2.66699 -20.666 9 -27.999 19c-6 11.333 -7 23.333 -3 36zM193.999 391.999c3.33301 16 13.999 26.666 31.999 31.999c8.66699 1.33301 16.667 1 24 -1c16.667 -3.33301 27.334 -13.666 32.001 -30.999c2 -8 2 -15.667 0 -23
c-4.66699 -18.667 -16.334 -29.667 -35.001 -33c-8 -1.33301 -15.333 -1 -22 1c-11.333 2.66699 -20.666 9 -27.999 19c-6 11.333 -7 23.333 -3 36z" />
    <glyph glyph-name="oslash" unicode="&#xf8;" horiz-adv-x="515" 
d="M30 -10l67.998 67c42 -44.667 94.667 -67 158 -67c66 0 120.333 23.333 163 70c38.667 42 58 93.667 58 155c-0.666992 64 -20 116.333 -58 157l71 69l-22 20l-71 -69c-40 30 -85.667 45 -137 45c-67.333 0 -122.666 -23 -165.999 -69
c-37.333 -40.667 -56 -90.667 -56 -150c0.666992 -54 14.334 -100 41.001 -138l-71 -69zM132.998 214c0.666992 131.333 42.001 197.333 124.001 198c45.333 -0.666992 78.666 -20.667 99.999 -60l-218 -213c-4 23.333 -6 48.333 -6 75zM258.999 15
c-55.333 0.666992 -92.666 30.668 -111.999 90.001l221 217c8.66699 -28 13 -62.667 13 -104c-0.666992 -134.667 -41.334 -202.334 -122.001 -203.001z" />
    <glyph glyph-name="ugrave" unicode="&#xf9;" horiz-adv-x="566" 
d="M516 25h-47.001v401h-161v-25h75v-223c-0.666992 -58.667 -21.334 -101 -62.001 -127c-16.667 -10.667 -34 -16 -52 -16c-52 0 -81.667 28 -89 84c-1.33301 8.66699 -2 17.334 -2 26.001v281h-159v-25h73v-241c0.666992 -112.667 48.334 -169.334 143.001 -170.001
c50.667 0 92 20.667 124 62c10.667 14 19.334 29.333 26.001 46l7 -98h148c0 14 -4.33301 22 -13 24c-3.33301 0.666992 -7 1 -11 1zM373.999 501c-19.333 20 -45.999 55.001 -79.999 105.001c-12.667 18 -22.334 30.333 -29.001 37c-9.33301 8.66699 -19 13 -29 13
c-18.667 0 -33 -9.33301 -43 -28c-3.33301 -6.66699 -5 -13.334 -5 -20.001c0.666992 -12.667 5.66699 -23 15 -31c8 -7.33301 35.667 -24 83 -50c29.333 -16 53.333 -30.667 72 -44z" />
    <glyph glyph-name="uacute" unicode="&#xfa;" horiz-adv-x="566" 
d="M516 25h-47.001v401h-161v-25h75v-223c-0.666992 -58.667 -21.334 -101 -62.001 -127c-16.667 -10.667 -34 -16 -52 -16c-52 0 -81.667 28 -89 84c-1.33301 8.66699 -2 17.334 -2 26.001v281h-159v-25h73v-241c0.666992 -112.667 48.334 -169.334 143.001 -170.001
c50.667 0 92 20.667 124 62c10.667 14 19.334 29.333 26.001 46l7 -98h148c0 14 -4.33301 22 -13 24c-3.33301 0.666992 -7 1 -11 1zM375.999 577c9.33301 8.66699 14.333 18.999 15 30.999c0 17.333 -8.66699 31.333 -26 42c-8 4 -15.333 6 -22 6
c-10.667 -0.666992 -20.667 -5 -30 -13c-6 -5.33301 -22 -27.666 -48 -66.999c-21.333 -30.667 -41.333 -55.667 -60 -75l16 -18c16.667 12 53.667 33.667 111 65c21.333 12 36 21.667 44 29z" />
    <glyph glyph-name="ucircumflex" unicode="&#xfb;" horiz-adv-x="566" 
d="M516 25h-47.001v401h-161v-25h75v-223c-0.666992 -58.667 -21.334 -101 -62.001 -127c-16.667 -10.667 -34 -16 -52 -16c-52 0 -81.667 28 -89 84c-1.33301 8.66699 -2 17.334 -2 26.001v281h-159v-25h73v-241c0.666992 -112.667 48.334 -169.334 143.001 -170.001
c50.667 0 92 20.667 124 62c10.667 14 19.334 29.333 26.001 46l7 -98h148c0 14 -4.33301 22 -13 24c-3.33301 0.666992 -7 1 -11 1zM405.999 499l12 17.001c-8.66699 9.33301 -33.334 38.666 -74.001 87.999c-25.333 25.333 -45.666 39 -60.999 41
c-17.333 0 -36 -12 -56 -36l-20 -26c-22.667 -28 -41.667 -50.667 -57 -68l12 -15c34 21.333 75 44 123 68c50 -25.333 90.333 -48.333 121 -69z" />
    <glyph glyph-name="udieresis" unicode="&#xfc;" horiz-adv-x="566" 
d="M516 25h-47.001v401h-161v-25h75v-223c-0.666992 -58.667 -21.334 -101 -62.001 -127c-16.667 -10.667 -34 -16 -52 -16c-52 0 -81.667 28 -89 84c-1.33301 8.66699 -2 17.334 -2 26.001v281h-159v-25h73v-241c0.666992 -112.667 48.334 -169.334 143.001 -170.001
c50.667 0 92 20.667 124 62c10.667 14 19.334 29.333 26.001 46l7 -98h148c0 14 -4.33301 22 -13 24c-3.33301 0.666992 -7 1 -11 1zM245.999 571c0 23.333 -10.333 39.333 -31 48c-7.33301 3.33301 -14.666 5 -21.999 5c-24 0 -40.333 -10.333 -49 -31
c-3.33301 -7.33301 -5 -14.666 -5 -21.999c0 -24 10.667 -40.667 32 -50c7.33301 -2.66699 14.666 -4 21.999 -4c23.333 0 39.333 10.667 48 32c3.33301 7.33301 5 14.666 5 21.999zM429.999 571c0 23.333 -10.6689 39.668 -32.002 49.001
c-7.33301 2.66699 -14.666 4 -21.999 4c-24 0 -40.333 -10.667 -49 -32c-2.66699 -7.33301 -4 -14.333 -4 -21c0 -24.667 11 -41.334 33 -50.001c6.66699 -2.66699 13.334 -4 20.001 -4c24 0 40.333 10.667 49 32c3.33301 6.66699 5 14 5 22z" />
    <glyph glyph-name="yacute" unicode="&#xfd;" horiz-adv-x="485" 
d="M108 -159c-10.667 0 -19.002 8.33105 -25.002 24.998c-8 20.667 -15.667 33.334 -23 38.001c-6 4 -13 6 -21 6c-22 0 -35 -9.33301 -39 -28c-0.666992 -3.33301 -1 -6.33301 -1 -9c0 -24.667 14.667 -43 44 -55c14.667 -6 30 -9 46 -9c52.667 0 98.334 32 137.001 96
c15.333 25.333 30.333 56 45 92l148 370c6.66699 18.667 14.334 29.334 23.001 32.001c4 0.666992 8.66699 1 14 1c14 0 22 3.66699 24 11c0.666992 4 1 9 1 15h-152v-26h73l-125 -311l-133 311h66v26h-203v-26h47l183 -404c-36 -86 -70 -136 -102 -150
c-9.33301 -3.33301 -18.333 -5 -27 -5zM367.998 576.998c9.33301 8.66699 14.333 18.999 15 30.999c0 17.333 -8.66699 31.333 -26 42c-8 4 -15.333 6 -22 6c-10.667 -0.666992 -20.667 -5 -30 -13c-6 -5.33301 -22 -27.666 -48 -66.999
c-21.333 -30.667 -41.333 -55.667 -60 -75l16 -18c16.667 12 53.667 33.667 111 65c21.333 12 36 21.667 44 29z" />
    <glyph glyph-name="thorn" unicode="&#xfe;" horiz-adv-x="558" 
d="M187 -164l-0.000976562 205c34 -32.667 76 -49.667 126 -51c60.667 0 111 23 151 69c37.333 43.333 56 98.333 56 165c0 76.667 -21.667 134.667 -65 174c-29.333 26 -64.333 39 -105 39c-60 0 -106.333 -23 -139 -69c-10.667 -14.667 -19 -30.667 -25 -48v330h-158v-26
h74v-736c0 -27.333 -11.667 -43.666 -35 -48.999c-9.33301 -2 -21.666 -3 -36.999 -3v-26h249c0 15.333 -4.33301 23.666 -13 24.999c-3.33301 0.666992 -7 1 -11 1h-68zM313.999 395c55.333 0 90.334 -36.334 105.001 -109.001c4 -22 6 -46.333 6 -73
c0 -99.333 -25 -161.666 -75 -186.999c-14.667 -7.33301 -30.334 -11 -47.001 -11c-48.667 0 -82.667 26.333 -102 79c-10 28 -15 61.333 -15 100c0 86.667 21.667 146.667 65 180c19.333 14 40.333 21 63 21z" />
    <glyph glyph-name="ydieresis" unicode="&#xff;" horiz-adv-x="485" 
d="M108 -159c-10.667 0 -19.002 8.33105 -25.002 24.998c-8 20.667 -15.667 33.334 -23 38.001c-6 4 -13 6 -21 6c-22 0 -35 -9.33301 -39 -28c-0.666992 -3.33301 -1 -6.33301 -1 -9c0 -24.667 14.667 -43 44 -55c14.667 -6 30 -9 46 -9c52.667 0 98.334 32 137.001 96
c15.333 25.333 30.333 56 45 92l148 370c6.66699 18.667 14.334 29.334 23.001 32.001c4 0.666992 8.66699 1 14 1c14 0 22 3.66699 24 11c0.666992 4 1 9 1 15h-152v-26h73l-125 -311l-133 311h66v26h-203v-26h47l183 -404c-36 -86 -70 -136 -102 -150
c-9.33301 -3.33301 -18.333 -5 -27 -5zM211.998 570.998c0 23.333 -10.333 39.333 -31 48c-7.33301 3.33301 -14.666 5 -21.999 5c-24 0 -40.333 -10.333 -49 -31c-3.33301 -7.33301 -5 -14.666 -5 -21.999c0 -24 10.667 -40.667 32 -50
c7.33301 -2.66699 14.666 -4 21.999 -4c23.333 0 39.333 10.667 48 32c3.33301 7.33301 5 14.666 5 21.999zM395.998 570.998c0 23.333 -10.6689 39.668 -32.002 49.001c-7.33301 2.66699 -14.666 4 -21.999 4c-24 0 -40.333 -10.667 -49 -32
c-2.66699 -7.33301 -4 -14.333 -4 -21c0 -24.667 11 -41.334 33 -50.001c6.66699 -2.66699 13.334 -4 20.001 -4c24 0 40.333 10.667 49 32c3.33301 6.66699 5 14 5 22z" />
    <glyph glyph-name="Amacron" unicode="&#x100;" horiz-adv-x="620" 
d="M620 0c0 15.333 -5.33496 23.668 -16.002 25.001c-3.33301 0.666992 -6.66602 1 -9.99902 1h-33l-230 574h-45l-223 -574h-63v-26h179c0 15.333 -5 23.666 -15 24.999c-3.33301 0.666992 -6.66602 1 -9.99902 1h-51l75 194h207l75 -194h-67v-26h227zM372.998 249.002
h-184l92 239zM157.998 670.002h304v51h-304v-51z" />
    <glyph glyph-name="amacron" unicode="&#x101;" horiz-adv-x="484" 
d="M390 -10c48 0 76.668 23.998 86.001 71.998c1.33301 10 2.33301 20.667 3 32l-26 1c-4.66699 -48 -17.334 -72.333 -38.001 -73c-16.667 1.33301 -25.334 18.333 -26.001 51v211c-1.33301 101.333 -56.333 152.333 -165 153c-77.333 0 -128.666 -17.667 -153.999 -53
c-8 -11.333 -12 -22.666 -12 -33.999c0 -21.333 10 -34.333 30 -39c4.66699 -0.666992 9 -1 13 -1c18 0 31 10.667 39 32c9.33301 26 15 40.667 17 44c12.667 17.333 31.667 26 57 26c59.333 -1.33301 89.333 -36 90 -104v-63c-166 -0.666992 -256 -39 -270 -115
c-1.33301 -7.33301 -2 -15.333 -2 -24c0 -52.667 23 -88 69 -106c17.333 -6.66699 36 -10 56 -10c48.667 0 89 16.667 121 50c12 12.667 21 26.334 27 41.001c8.66699 -60 37 -90.333 85 -91zM194.001 30.998c-42 0 -66 23.333 -72 70c-0.666992 6.66699 -1 13.667 -1 21
c0 44.667 24.667 73 74 85c26 6 62.333 9.33301 109 10v-83c-11.333 -46 -35.333 -77.667 -72 -95c-13.333 -5.33301 -26 -8 -38 -8zM92.001 539.998h304v51h-304v-51z" />
    <glyph glyph-name="Abreve" unicode="&#x102;" horiz-adv-x="620" 
d="M620 0c0 15.333 -5.33496 23.668 -16.002 25.001c-3.33301 0.666992 -6.66602 1 -9.99902 1h-33l-230 574h-45l-223 -574h-63v-26h179c0 15.333 -5 23.666 -15 24.999c-3.33301 0.666992 -6.66602 1 -9.99902 1h-51l75 194h207l75 -194h-67v-26h227zM372.998 249.002
h-184l92 239zM310.998 706.002c56 0 89 19.667 99 59c0.666992 2 1 3.66699 1 5h21c0 -59.333 -21.333 -99 -64 -119c-18 -8 -38 -12 -60 -12c-60.667 0 -99.667 26.333 -117 79c-5.33301 16.667 -8 34 -8 52h20c10 -42.667 46 -64 108 -64z" />
    <glyph glyph-name="abreve" unicode="&#x103;" horiz-adv-x="484" 
d="M390 -10c48 0 76.668 23.998 86.001 71.998c1.33301 10 2.33301 20.667 3 32l-26 1c-4.66699 -48 -17.334 -72.333 -38.001 -73c-16.667 1.33301 -25.334 18.333 -26.001 51v211c-1.33301 101.333 -56.333 152.333 -165 153c-77.333 0 -128.666 -17.667 -153.999 -53
c-8 -11.333 -12 -22.666 -12 -33.999c0 -21.333 10 -34.333 30 -39c4.66699 -0.666992 9 -1 13 -1c18 0 31 10.667 39 32c9.33301 26 15 40.667 17 44c12.667 17.333 31.667 26 57 26c59.333 -1.33301 89.333 -36 90 -104v-63c-166 -0.666992 -256 -39 -270 -115
c-1.33301 -7.33301 -2 -15.333 -2 -24c0 -52.667 23 -88 69 -106c17.333 -6.66699 36 -10 56 -10c48.667 0 89 16.667 121 50c12 12.667 21 26.334 27 41.001c8.66699 -60 37 -90.333 85 -91zM194.001 30.998c-42 0 -66 23.333 -72 70c-0.666992 6.66699 -1 13.667 -1 21
c0 44.667 24.667 73 74 85c26 6 62.333 9.33301 109 10v-83c-11.333 -46 -35.333 -77.667 -72 -95c-13.333 -5.33301 -26 -8 -38 -8zM245.001 575.998c56 0 89 19.667 99 59c0.666992 2 1 3.66699 1 5h21c0 -59.333 -21.333 -99 -64 -119c-18 -8 -38 -12 -60 -12
c-60.667 0 -99.667 26.333 -117 79c-5.33301 16.667 -8 34 -8 52h20c10 -42.667 46 -64 108 -64z" />
    <glyph glyph-name="Aogonek" unicode="&#x104;" horiz-adv-x="620" 
d="M620 0c0 15.333 -5.33594 23.668 -16.0029 25.001c-3.33301 0.666992 -6.66602 1 -9.99902 1h-33l-230 574h-45l-223 -574h-63v-26h179c0 15.333 -5 23.666 -15 24.999c-3.33301 0.666992 -6.66602 1 -9.99902 1h-51l75 194h207l75 -194h-67v-26h171
c-74 -19.333 -117.667 -50.333 -131 -93c-2.66699 -8 -4 -15.667 -4 -23c0 -30.667 16.333 -52.667 49 -66c14.667 -6 31 -9 49 -9c38 0.666992 68.333 13 91 37l-12 15c-18.667 -15.333 -36.667 -23 -54 -23c-23.333 0 -36.666 13 -39.999 39c-0.666992 4 -1 7.66699 -1 11
c0 32.667 17.333 62 52 88c13.333 9.33301 28 17.333 44 24h13zM372.997 249.002h-184l92 239z" />
    <glyph glyph-name="aogonek" unicode="&#x105;" horiz-adv-x="484" 
d="M194 31c-42 0 -66 23.333 -72 70c-0.666992 6.66699 -1 13.667 -1 21c0 44.667 24.667 73 74 85c26 6 62.333 9.33301 109 10v-83c-11.333 -46 -35.333 -77.667 -72 -95c-13.333 -5.33301 -26 -8 -38 -8zM401 -162c-23.333 0 -36.668 12.9971 -40.001 38.9971
c-0.666992 4 -1 7.66699 -1 11c0 32.667 17.333 62 52 88c13.333 9.33301 28 17.333 44 24l-1 9l-7 -1c18.667 16.667 29 45.334 31 86.001l-26 1c-4.66699 -48 -17.334 -72.333 -38.001 -73c-16.667 1.33301 -25.334 18.333 -26.001 51v211
c-1.33301 101.333 -56.333 152.333 -165 153c-77.333 0 -128.666 -17.667 -153.999 -53c-8 -11.333 -12 -22.666 -12 -33.999c0 -21.333 10 -34.333 30 -39c4.66699 -0.666992 9 -1 13 -1c18 0 31 10.667 39 32c9.33301 26 15 40.667 17 44c12.667 17.333 31.667 26 57 26
c59.333 -1.33301 89.333 -36 90 -104v-63c-166 -0.666992 -256 -39 -270 -115c-1.33301 -7.33301 -2 -15.333 -2 -24c0 -52.667 23 -88 69 -106c17.333 -6.66699 36 -10 56 -10c48.667 0 89 16.667 121 50c12 12.667 21 26.334 27 41.001
c8.66699 -56.667 34.334 -87 77.001 -91c-61.333 -22 -95.666 -53 -102.999 -93c-0.666992 -4.66699 -1 -9 -1 -13c0 -30.667 16.333 -52.667 49 -66c14.667 -6 31 -9 49 -9c38 0.666992 68.333 13 91 37l-12 15c-18.667 -15.333 -36.667 -23 -54 -23z" />
    <glyph glyph-name="Cacute" unicode="&#x106;" horiz-adv-x="619" 
d="M547 45c0 -28 4.66797 -44.001 14.001 -48.001c4 -1.33301 10 -2 18 -2v191h-26c-33.333 -111.333 -100.333 -167.333 -201 -168c-92.667 0 -152.334 51.333 -179.001 154c-10 38 -15 81 -15 129c0 127.333 34.667 212.333 104 255c28 17.333 59.333 26 94 26
c97.333 -1.33301 162 -56 194 -164h26l-3 187c-15.333 0 -24.666 -5 -27.999 -15c-1.33301 -8 -2 -20 -2 -36c-38 29.333 -88.333 47.333 -151 54c-14 1.33301 -28 2 -42 2c-106.667 0 -188.334 -39 -245.001 -117c-39.333 -55.333 -59 -119 -59 -191
c0 -87.333 27.333 -160.666 82 -219.999c57.333 -61.333 132.333 -92 225 -92c68 0.666992 132.667 19 194 55zM413.001 776.999c9.33301 8.66699 14.333 18.999 15 30.999c0 17.333 -8.66699 31.333 -26 42c-8 4 -15.333 6 -22 6c-10.667 -0.666992 -20.667 -5 -30 -13
c-6 -5.33301 -22 -27.666 -48 -66.999c-21.333 -30.667 -41.333 -55.667 -60 -75l16 -18c16.667 12 53.667 33.667 111 65c21.333 12 36 21.667 44 29z" />
    <glyph glyph-name="cacute" unicode="&#x107;" horiz-adv-x="439" 
d="M38 210c0 -84.667 31.002 -146.665 93.002 -185.998c36 -22.667 77.333 -34 124 -34c70 0 122.667 24 158 72c8.66699 11.333 15.667 23.333 21 36l-26 8c-23.333 -48.667 -61.333 -77.334 -114 -86.001c-8.66699 -1.33301 -17.334 -2 -26.001 -2
c-49.333 0 -86.333 25.333 -111 76c-16 33.333 -24 74 -24 122c0 103.333 27.667 166 83 188c13.333 5.33301 27.333 8 42 8c34.667 0 55.667 -14.333 63 -43c1.33301 -4.66699 2.66602 -12.667 3.99902 -24c4 -28 11.667 -45.333 23 -52c6.66699 -4 15 -6.33301 25 -7
c25.333 -0.666992 41 9.66602 47 30.999c1.33301 4.66699 2 9 2 13c0 32.667 -20.667 60 -62 82c-32 16.667 -67.333 25 -106 25c-84 0 -145 -32.333 -183 -97c-22 -38 -33 -81.333 -33 -130zM338.002 577.002c9.33301 8.66699 14.333 18.999 15 30.999
c0 17.333 -8.66699 31.333 -26 42c-8 4 -15.333 6 -22 6c-10.667 -0.666992 -20.667 -5 -30 -13c-6 -5.33301 -22 -27.666 -48 -66.999c-21.333 -30.667 -41.333 -55.667 -60 -75l16 -18c16.667 12 53.667 33.667 111 65c21.333 12 36 21.667 44 29z" />
    <glyph glyph-name="Ccaron" unicode="&#x10c;" horiz-adv-x="619" 
d="M547 45c0 -28 4.66797 -44.001 14.001 -48.001c4 -1.33301 10 -2 18 -2v191h-26c-33.333 -111.333 -100.333 -167.333 -201 -168c-92.667 0 -152.334 51.333 -179.001 154c-10 38 -15 81 -15 129c0 127.333 34.667 212.333 104 255c28 17.333 59.333 26 94 26
c97.333 -1.33301 162 -56 194 -164h26l-3 187c-15.333 0 -24.666 -5 -27.999 -15c-1.33301 -8 -2 -20 -2 -36c-38 29.333 -88.333 47.333 -151 54c-14 1.33301 -28 2 -42 2c-106.667 0 -188.334 -39 -245.001 -117c-39.333 -55.333 -59 -119 -59 -191
c0 -87.333 27.333 -160.666 82 -219.999c57.333 -61.333 132.333 -92 225 -92c68 0.666992 132.667 19 194 55zM323.001 700.999c18.667 0 39.001 13 61.001 39c5.33301 5.33301 13.666 15.333 24.999 30c22.667 28 41.667 50.333 57 67l-14 16
c-35.333 -22.667 -78.333 -47 -129 -73c-61.333 31.333 -105 56 -131 74l-14 -18c16.667 -18 36.667 -41 60 -69c28 -34 48 -54 60 -60c8.66699 -4 17 -6 25 -6z" />
    <glyph glyph-name="ccaron" unicode="&#x10d;" horiz-adv-x="439" 
d="M38 210c0 -84.667 31.002 -146.665 93.002 -185.998c36 -22.667 77.333 -34 124 -34c70 0 122.667 24 158 72c8.66699 11.333 15.667 23.333 21 36l-26 8c-23.333 -48.667 -61.333 -77.334 -114 -86.001c-8.66699 -1.33301 -17.334 -2 -26.001 -2
c-49.333 0 -86.333 25.333 -111 76c-16 33.333 -24 74 -24 122c0 103.333 27.667 166 83 188c13.333 5.33301 27.333 8 42 8c34.667 0 55.667 -14.333 63 -43c1.33301 -4.66699 2.66602 -12.667 3.99902 -24c4 -28 11.667 -45.333 23 -52c6.66699 -4 15 -6.33301 25 -7
c25.333 -0.666992 41 9.66602 47 30.999c1.33301 4.66699 2 9 2 13c0 32.667 -20.667 60 -62 82c-32 16.667 -67.333 25 -106 25c-84 0 -145 -32.333 -183 -97c-22 -38 -33 -81.333 -33 -130zM247.002 501.002c18.667 0 39.001 13 61.001 39
c5.33301 5.33301 13.666 15.333 24.999 30c22.667 28 41.667 50.333 57 67l-14 16c-35.333 -22.667 -78.333 -47 -129 -73c-61.333 31.333 -105 56 -131 74l-14 -18c16.667 -18 36.667 -41 60 -69c28 -34 48 -54 60 -60c8.66699 -4 17 -6 25 -6z" />
    <glyph glyph-name="Dcaron" unicode="&#x10e;" horiz-adv-x="677" 
d="M36 600v-26h80v-548h-80v-26h280c91.333 -0 166.333 28.333 225 85c56.667 55.333 85 127 85 215c0 114 -42 197.667 -126 251c-52 32.667 -112.667 49 -182 49h-282zM316 574c99.333 0 162 -46.666 188 -139.999c10 -36.667 15 -80 15 -130
c-0.666992 -184.667 -67.667 -277.334 -201 -278.001h-106v548h104zM332 631.001c18.667 0 39.001 13 61.001 39c5.33301 5.33301 13.666 15.333 24.999 30c22.667 28 41.667 50.333 57 67l-14 16c-35.333 -22.667 -78.333 -47 -129 -73c-61.333 31.333 -105 56 -131 74
l-14 -18c16.667 -18 36.667 -41 60 -69c28 -34 48 -54 60 -60c8.66699 -4 17 -6 25 -6z" />
    <glyph glyph-name="dcaron" unicode="&#x10f;" horiz-adv-x="562" 
d="M380 0h149.999c0 14 -4.33301 22 -13 24c-3.33301 0.666992 -7 1 -11 1h-50l-1 625h-180v-25h94v-239c-33.333 34 -76.666 51 -129.999 51c-70.667 0 -125 -30.333 -163 -91c-25.333 -42 -38 -89.667 -38 -143c0 -82 26.333 -142.333 79 -181
c29.333 -21.333 62 -32 98 -32c73.333 1.33301 125.333 39.333 156 114zM132.999 215c0 93.333 24.002 154 72.002 182c15.333 9.33301 32.666 14 51.999 14c47.333 0 80.666 -26.333 99.999 -79c10 -28 15 -60.667 15 -98c0 -84 -20.333 -143.667 -61 -179
c-19.333 -16 -41.333 -24 -66 -24c-51.333 0 -85.333 32.667 -102 98c-6.66699 25.333 -10 54 -10 86zM604.001 586c0 38.667 -14.333 62.667 -43 72c-6.66699 2 -13.667 3 -21 3c-24 0 -41 -11 -51 -33c-3.33301 -8 -5 -16.333 -5 -25c0 -26 13.333 -43.333 40 -52l8 -2
c16 -5.33301 24.333 -12 25 -20c0 -18.667 -15 -44 -45 -76l-2 -2l23 -16c43.333 44 67 91 71 141v10z" />
    <glyph glyph-name="Dcroat" unicode="&#x110;" horiz-adv-x="677" 
d="M36 600v-26h80v-243h-71v-41h71v-264h-80v-26h280c91.333 -0 166.333 28.333 225 85c56.667 55.333 85 127 85 215c0 114 -42 197.667 -126 251c-52 32.667 -112.667 49 -182 49h-282zM316 574c99.333 0 162 -46.666 188 -139.999c10 -36.667 15 -80 15 -130
c-0.666992 -184.667 -67.667 -277.334 -201 -278.001h-106v264h117v41h-117v243h104z" />
    <glyph glyph-name="dcroat" unicode="&#x111;" horiz-adv-x="553" 
d="M184 509h184.999v-123c-33.333 34 -76.666 51 -129.999 51c-70.667 0 -125 -30.333 -163 -91c-25.333 -42 -38 -89.667 -38 -143c0 -82 26.333 -142.333 79 -181c29.333 -21.333 62 -32 98 -32c73.333 1.33301 125.333 39.333 156 114l9 -104h150
c0 14 -4.33301 22 -13 24c-3.33301 0.666992 -7 1 -11 1h-50l-1 484h75v33h-75v108h-180v-25h94v-83h-185v-33zM132.999 215c0 93.333 24.002 154 72.002 182c15.333 9.33301 32.666 14 51.999 14c47.333 0 80.666 -26.333 99.999 -79c10 -28 15 -60.667 15 -98
c0 -84 -20.333 -143.667 -61 -179c-19.333 -16 -41.333 -24 -66 -24c-51.333 0 -85.333 32.667 -102 98c-6.66699 25.333 -10 54 -10 86z" />
    <glyph glyph-name="Emacron" unicode="&#x112;" horiz-adv-x="559" 
d="M510 418l-5 181.999h-469v-26h80v-548h-80v-26h469l5 182h-22l-16 -51c-17.333 -57.333 -44 -91 -80 -101c-9.33301 -2.66699 -19 -4 -29 -4h-151v269h204v29h-204v250h151c51.333 0 87.333 -33.667 108 -101c0.666992 -1.33301 1 -2.66602 1 -3.99902l16 -51h22z
M143 669.999h304v51h-304v-51z" />
    <glyph glyph-name="emacron" unicode="&#x113;" horiz-adv-x="466" 
d="M250 412c45.333 0 74.667 -20.667 88 -62c4 -12.667 6 -26 6 -40c0 -32.667 -14.667 -52.667 -44 -60c-16.667 -4 -39.667 -5.66699 -69 -5l-98 3c2.66699 78.667 26.667 129.667 72 153c14 7.33301 29 11 45 11zM427.001 97l-24.999 8.99805
c-21.333 -46.667 -55.333 -75 -102 -85c-10.667 -2 -21 -3 -31 -3c-70.667 0 -114 44.667 -130 134c-3.33301 20.667 -5.33301 43.334 -6 68.001l115 -2c85.333 -1.33301 139.666 7.33398 162.999 26.001c15.333 13.333 23 31.333 23 54c0 47.333 -24 84.666 -72 111.999
c-33.333 18 -71.333 27 -114 27c-80.667 0 -140 -32.333 -178 -97c-21.333 -37.333 -32 -80.333 -32 -129c0 -85.333 31 -148 93 -188c35.333 -22 75.333 -33 120 -33c74.667 0 129 27 163 81c4.66699 8.66699 9 17.334 13 26.001zM84.002 539.998h304v51h-304v-51z" />
    <glyph glyph-name="Edotaccent" unicode="&#x116;" horiz-adv-x="559" 
d="M510 418l-5 181.999h-469v-26h80v-548h-80v-26h469l5 182h-22l-16 -51c-17.333 -57.333 -44 -91 -80 -101c-9.33301 -2.66699 -19 -4 -29 -4h-151v269h204v29h-204v250h151c51.333 0 87.333 -33.667 108 -101c0.666992 -1.33301 1 -2.66602 1 -3.99902l16 -51h22z
M351 698.999c0 24 -10.665 41.667 -31.998 53c-8.66699 4 -17.334 6 -26.001 6c-24.667 0 -42.334 -11 -53.001 -33c-4 -8.66699 -6 -17.334 -6 -26.001c0 -25.333 11.333 -43.333 34 -54c8 -3.33301 16.333 -5 25 -5c24 0 41.333 11 52 33c4 8.66699 6 17.334 6 26.001z
" />
    <glyph glyph-name="edotaccent" unicode="&#x117;" horiz-adv-x="466" 
d="M250 412c45.333 0 74.667 -20.667 88 -62c4 -12.667 6 -26 6 -40c0 -32.667 -14.667 -52.667 -44 -60c-16.667 -4 -39.667 -5.66699 -69 -5l-98 3c2.66699 78.667 26.667 129.667 72 153c14 7.33301 29 11 45 11zM427.001 97l-24.999 8.99805
c-21.333 -46.667 -55.333 -75 -102 -85c-10.667 -2 -21 -3 -31 -3c-70.667 0 -114 44.667 -130 134c-3.33301 20.667 -5.33301 43.334 -6 68.001l115 -2c85.333 -1.33301 139.666 7.33398 162.999 26.001c15.333 13.333 23 31.333 23 54c0 47.333 -24 84.666 -72 111.999
c-33.333 18 -71.333 27 -114 27c-80.667 0 -140 -32.333 -178 -97c-21.333 -37.333 -32 -80.333 -32 -129c0 -85.333 31 -148 93 -188c35.333 -22 75.333 -33 120 -33c74.667 0 129 27 163 81c4.66699 8.66699 9 17.334 13 26.001zM292.002 568.998
c0 24 -10.665 41.667 -31.998 53c-8.66699 4 -17.334 6 -26.001 6c-24.667 0 -42.334 -11 -53.001 -33c-4 -8.66699 -6 -17.334 -6 -26.001c0 -25.333 11.333 -43.333 34 -54c8 -3.33301 16.333 -5 25 -5c24 0 41.333 11 52 33c4 8.66699 6 17.334 6 26.001z" />
    <glyph glyph-name="Eogonek" unicode="&#x118;" horiz-adv-x="559" 
d="M510 418l-5.00098 181.999h-469v-26h80v-548h-80v-26h417c-74 -19.333 -117.667 -50.333 -131 -93c-2.66699 -8 -4 -15.667 -4 -23c0 -30.667 16.333 -52.667 49 -66c14.667 -6 31 -9 49 -9c38 0.666992 68.333 13 91 37l-12 15c-18.667 -15.333 -36.667 -23 -54 -23
c-23.333 0 -36.666 13 -39.999 39c-0.666992 4 -1 7.66699 -1 11c0 32.667 17.333 62 52 88c13.333 9.33301 28 17.333 44 24h9l5 182h-22l-16 -51c-17.333 -57.333 -44 -91 -80 -101c-9.33301 -2.66699 -19 -4 -29 -4h-151v269h204v29h-204v250h151
c51.333 0 87.333 -33.667 108 -101c0.666992 -1.33301 1 -2.66602 1 -3.99902l16 -51h22z" />
    <glyph glyph-name="eogonek" unicode="&#x119;" horiz-adv-x="466" 
d="M250 412c45.333 0 74.667 -20.667 88 -62c4 -12.667 6 -26 6 -40c0 -32.667 -14.667 -52.667 -44 -60c-16.667 -4 -39.667 -5.66699 -69 -5l-98 3c2.66699 78.667 26.667 129.667 72 153c14 7.33301 29 11 45 11zM427.001 97l-24.999 8.99805
c-21.333 -46.667 -55.333 -75 -102 -85c-10.667 -2 -21 -3 -31 -3c-70.667 0 -114 44.667 -130 134c-3.33301 20.667 -5.33301 43.334 -6 68.001l115 -2c85.333 -1.33301 139.666 7.33398 162.999 26.001c15.333 13.333 23 31.333 23 54c0 47.333 -24 84.666 -72 111.999
c-33.333 18 -71.333 27 -114 27c-80.667 0 -140 -32.333 -178 -97c-21.333 -37.333 -32 -80.333 -32 -129c0 -85.333 31 -148 93 -188c35.333 -22 75.333 -33 120 -33c74.667 0 129 27 163 81c4.66699 8.66699 9 17.334 13 26.001zM325.002 -162.002
c-23.333 0 -36.667 13 -40 39c-0.666992 4 -1 7.66699 -1 11c0 32.667 17.333 62 52 88c13.333 9.33301 28 17.333 44 24l-1 9c-90.667 -15.333 -147 -46 -169 -92c-5.33301 -10.667 -8 -21.667 -8 -33c0 -30.667 16.333 -52.667 49 -66c14.667 -6 31 -9 49 -9
c38 0.666992 68.333 13 91 37l-12 15c-18.667 -15.333 -36.667 -23 -54 -23z" />
    <glyph glyph-name="Ecaron" unicode="&#x11a;" horiz-adv-x="559" 
d="M510 418l-5 181.999h-469v-26h80v-548h-80v-26h469l5 182h-22l-16 -51c-17.333 -57.333 -44 -91 -80 -101c-9.33301 -2.66699 -19 -4 -29 -4h-151v269h204v29h-204v250h151c51.333 0 87.333 -33.667 108 -101c0.666992 -1.33301 1 -2.66602 1 -3.99902l16 -51h22z
M294 630.999c18.667 0 39.001 13 61.001 39c5.33301 5.33301 13.666 15.333 24.999 30c22.667 28 41.667 50.333 57 67l-14 16c-35.333 -22.667 -78.333 -47 -129 -73c-61.333 31.333 -105 56 -131 74l-14 -18c16.667 -18 36.667 -41 60 -69c28 -34 48 -54 60 -60
c8.66699 -4 17 -6 25 -6z" />
    <glyph glyph-name="ecaron" unicode="&#x11b;" horiz-adv-x="466" 
d="M250 412c45.333 0 74.667 -20.667 88 -62c4 -12.667 6 -26 6 -40c0 -32.667 -14.667 -52.667 -44 -60c-16.667 -4 -39.667 -5.66699 -69 -5l-98 3c2.66699 78.667 26.667 129.667 72 153c14 7.33301 29 11 45 11zM427.001 97l-24.999 8.99805
c-21.333 -46.667 -55.333 -75 -102 -85c-10.667 -2 -21 -3 -31 -3c-70.667 0 -114 44.667 -130 134c-3.33301 20.667 -5.33301 43.334 -6 68.001l115 -2c85.333 -1.33301 139.666 7.33398 162.999 26.001c15.333 13.333 23 31.333 23 54c0 47.333 -24 84.666 -72 111.999
c-33.333 18 -71.333 27 -114 27c-80.667 0 -140 -32.333 -178 -97c-21.333 -37.333 -32 -80.333 -32 -129c0 -85.333 31 -148 93 -188c35.333 -22 75.333 -33 120 -33c74.667 0 129 27 163 81c4.66699 8.66699 9 17.334 13 26.001zM235.002 500.998
c18.667 0 39.001 13 61.001 39c5.33301 5.33301 13.666 15.333 24.999 30c22.667 28 41.667 50.333 57 67l-14 16c-35.333 -22.667 -78.333 -47 -129 -73c-61.333 31.333 -105 56 -131 74l-14 -18c16.667 -18 36.667 -41 60 -69c28 -34 48 -54 60 -60
c8.66699 -4 17 -6 25 -6z" />
    <glyph glyph-name="Gbreve" unicode="&#x11e;" horiz-adv-x="694" 
d="M409 271l0.000976562 -26h89v-165c-39.333 -37.333 -86.333 -57.333 -141 -60c-118.667 0 -183 77 -193 231c-1.33301 16 -2 32.333 -2 49c0 166 51.667 258.667 155 278c12.667 2 25.667 3 39 3c68 0 117.333 -20.667 148 -62c19.333 -26.667 36 -66.334 50 -119.001h27
l-4 198l-89 -19c-42 20.667 -87.333 31 -136 31c-82 0 -151.667 -26.667 -209 -80c-61.333 -57.333 -92 -132.666 -92 -225.999c0 -109.333 38.667 -193.333 116 -252c54.667 -41.333 116.667 -62 186 -62c51.333 0 97.666 11.333 138.999 34c3.33301 2 6.33301 3.66699 9 5
l92 -29v245h73v26h-257zM354.001 706c56 0 89 19.667 99 59c0.666992 2 1 3.66699 1 5h21c0 -59.333 -21.333 -99 -64 -119c-18 -8 -38 -12 -60 -12c-60.667 0 -99.667 26.333 -117 79c-5.33301 16.667 -8 34 -8 52h20c10 -42.667 46 -64 108 -64z" />
    <glyph glyph-name="gbreve" unicode="&#x11f;" horiz-adv-x="486" 
d="M138 277c0 83.333 26.665 128 79.998 134c4.66699 0.666992 9.33398 1 14.001 1c54.667 0 85.334 -34 92.001 -102c0.666992 -10 1 -21 1 -33c-6 -88 -37 -134 -93 -138c-58.667 0 -90 40 -94 120v18zM232.998 437c-64 0 -113.669 -20.6689 -149.002 -62.002
c-23.333 -28 -35 -60.667 -35 -98c0 -50 24 -92 72 -126l17 -11c-41.333 0 -68 -18 -80 -54c-2.66699 -9.33301 -4 -19 -4 -29c0.666992 -35.333 14.667 -61.666 42 -78.999c-21.333 -23.333 -32 -46.333 -32 -69c0 -36.667 22 -64 66 -82
c28.667 -12 63.334 -18 104.001 -18c102.667 0 170.334 24.667 203.001 74c10.667 16.667 16 34.334 16 53.001c0 59.333 -33.667 93.333 -101 102c-8.66699 1.33301 -17.667 2 -27 2l-187 4c-28.667 2 -43.334 14.667 -44.001 38c0 16.667 10 27 30 31
c4.66699 1.33301 9.66699 2 15 2l89 -1h3c61.333 0 110 20.667 146 62c24.667 29.333 37 63.333 37 102c-0.666992 50 -19.667 89.667 -57 119c10 23.333 24 36 42 38c9.33301 0 19.666 -5.33301 30.999 -16c7.33301 -6.66699 14.333 -10 21 -10
c16.667 0 26.667 8.33301 30 25c0.666992 3.33301 1 6 1 8c0 22 -10.667 37 -32 45c-7.33301 2.66699 -15 4 -23 4c-31.333 0 -56.666 -15 -75.999 -45c-7.33301 -10.667 -12.666 -22 -15.999 -34c-30.667 16.667 -64.667 25 -102 25zM233.996 -165.002
c-68 0 -111 17.0029 -129 51.0029c-4.66699 9.33301 -7 18.666 -7 27.999c0.666992 17.333 8 34.666 22 51.999c12 -3.33301 23.667 -5 35 -5l164 -2c46.667 -0.666992 74 -10.334 82 -29.001c2.66699 -6.66699 4 -13.667 4 -21c0 -30 -27.667 -51.667 -83 -65
c-26.667 -6 -56 -9 -88 -9zM247.996 576.001c-62.667 0.666992 -98.668 22 -108.001 64h-20c0 -56 20 -94.667 60 -116c18.667 -10 40.334 -15 65.001 -15c63.333 0 102.666 28.333 117.999 85c4 14 6 29.333 6 46h-21c-11.333 -42 -44.666 -63.333 -99.999 -64z" />
    <glyph glyph-name="uni0122" unicode="&#x122;" horiz-adv-x="694" 
d="M409 271l0.000976562 -26h89v-165c-39.333 -37.333 -86.333 -57.333 -141 -60c-118.667 0 -183 77 -193 231c-1.33301 16 -2 32.333 -2 49c0 166 51.667 258.667 155 278c12.667 2 25.667 3 39 3c68 0 117.333 -20.667 148 -62c19.333 -26.667 36 -66.334 50 -119.001h27
l-4 198l-89 -19c-42 20.667 -87.333 31 -136 31c-82 0 -151.667 -26.667 -209 -80c-61.333 -57.333 -92 -132.666 -92 -225.999c0 -109.333 38.667 -193.333 116 -252c54.667 -41.333 116.667 -62 186 -62c51.333 0 97.666 11.333 138.999 34c3.33301 2 6.33301 3.66699 9 5
l92 -29v245h73v26h-257zM410.001 -111c0 38.667 -14.332 62.666 -42.999 71.999c-6.66699 2 -13.667 3 -21 3c-24 0 -41 -11 -51 -33c-3.33301 -8.66699 -5 -17 -5 -25c0 -26 13 -43.333 39 -52c3.33301 -1.33301 6.33301 -2.33301 9 -3c16 -4 24.333 -10.333 25 -19
c-0.666992 -19.333 -16.334 -45.666 -47.001 -78.999l23 -16c44 52 67.667 102.667 71 152z" />
    <glyph glyph-name="uni0123" unicode="&#x123;" horiz-adv-x="486" 
d="M138 277c0 83.333 26.665 128 79.998 134c4.66699 0.666992 9.33398 1 14.001 1c54.667 0 85.334 -34 92.001 -102c0.666992 -10 1 -21 1 -33c-6 -88 -37 -134 -93 -138c-58.667 0 -90 40 -94 120v18zM232.998 437c-64 0 -113.669 -20.6689 -149.002 -62.002
c-23.333 -28 -35 -60.667 -35 -98c0 -50 24 -92 72 -126l17 -11c-41.333 0 -68 -18 -80 -54c-2.66699 -9.33301 -4 -19 -4 -29c0.666992 -35.333 14.667 -61.666 42 -78.999c-21.333 -23.333 -32 -46.333 -32 -69c0 -36.667 22 -64 66 -82
c28.667 -12 63.334 -18 104.001 -18c102.667 0 170.334 24.667 203.001 74c10.667 16.667 16 34.334 16 53.001c0 59.333 -33.667 93.333 -101 102c-8.66699 1.33301 -17.667 2 -27 2l-187 4c-28.667 2 -43.334 14.667 -44.001 38c0 16.667 10 27 30 31
c4.66699 1.33301 9.66699 2 15 2l89 -1h3c61.333 0 110 20.667 146 62c24.667 29.333 37 63.333 37 102c-0.666992 50 -19.667 89.667 -57 119c10 23.333 24 36 42 38c9.33301 0 19.666 -5.33301 30.999 -16c7.33301 -6.66699 14.333 -10 21 -10
c16.667 0 26.667 8.33301 30 25c0.666992 3.33301 1 6 1 8c0 22 -10.667 37 -32 45c-7.33301 2.66699 -15 4 -23 4c-31.333 0 -56.666 -15 -75.999 -45c-7.33301 -10.667 -12.666 -22 -15.999 -34c-30.667 16.667 -64.667 25 -102 25zM233.996 -165.002
c-68 0 -111 17.0029 -129 51.0029c-4.66699 9.33301 -7 18.666 -7 27.999c0.666992 17.333 8 34.666 22 51.999c12 -3.33301 23.667 -5 35 -5l164 -2c46.667 -0.666992 74 -10.334 82 -29.001c2.66699 -6.66699 4 -13.667 4 -21c0 -30 -27.667 -51.667 -83 -65
c-26.667 -6 -56 -9 -88 -9zM182.996 566.001c0 -38.667 14.332 -62.666 42.999 -71.999c6.66699 -2 13.667 -3 21 -3c24 0 41 11 51 33c3.33301 8.66699 5 17 5 25c0 26 -13 43.333 -39 52c-3.33301 1.33301 -6.33301 2.33301 -9 3c-16 4 -24.333 10.333 -25 19
c0.666992 19.333 16.334 45.666 47.001 78.999l-23 16c-44 -52 -67.667 -102.667 -71 -152z" />
    <glyph glyph-name="Imacron" unicode="&#x12a;" horiz-adv-x="328" 
d="M292 0c0 14.667 -5.33398 23 -16.001 25c-3.33301 0.666992 -6.66602 1 -9.99902 1h-54v548h80v26h-256v-26h80v-548h-80v-26h256zM14.999 670h304v51h-304v-51z" />
    <glyph glyph-name="imacron" unicode="&#x12b;" horiz-adv-x="286" 
d="M24 540h244v51h-244v-51zM239 26l-48 0.000976562v400h-163v-26h72v-322c-3.33301 -34 -27.333 -51.333 -72 -52v-26h235c0 15.333 -4.33301 23.666 -13 24.999c-3.33301 0.666992 -7 1 -11 1z" />
    <glyph glyph-name="Iogonek" unicode="&#x12e;" horiz-adv-x="328" 
d="M292 0c0 14.667 -5.33496 23 -16.002 25c-3.33301 0.666992 -6.66602 1 -9.99902 1h-54v548h80v26h-256v-26h80v-548h-80v-26h209c-74 -19.333 -117.667 -50.333 -131 -93c-2.66699 -8 -4 -15.667 -4 -23c0 -30.667 16.333 -52.667 49 -66c14.667 -6 31 -9 49 -9
c38 0.666992 68.333 13 91 37l-12 15c-18.667 -15.333 -36.667 -23 -54 -23c-23.333 0 -36.666 13 -39.999 39c-0.666992 4 -1 7.66699 -1 11c0 32.667 17.333 62 52 88c13.333 9.33301 28 17.333 44 24h4z" />
    <glyph glyph-name="iogonek" unicode="&#x12f;" horiz-adv-x="286" 
d="M239 26l-48.001 -0.000976562v400h-163v-26h72v-322c-3.33301 -34 -27.333 -51.333 -72 -52v-26h193c-74 -19.333 -117.667 -50.333 -131 -93c-2.66699 -8 -4 -15.667 -4 -23c0 -30.667 16.333 -52.667 49 -66c14.667 -6 31 -9 49 -9c38 0.666992 68.333 13 91 37l-12 15
c-18.667 -15.333 -36.667 -23 -54 -23c-23.333 0 -36.666 13 -39.999 39c-0.666992 4 -1 7.66699 -1 11c0 32.667 17.333 62 52 88c13.333 9.33301 28 17.333 44 24l-1 9c-5.33301 10.667 -13.333 16.334 -24 17.001zM201.999 568.999c0 24 -10.665 41.667 -31.998 53
c-8.66699 4 -17.334 6 -26.001 6c-24.667 0 -42.334 -11 -53.001 -33c-4 -8.66699 -6 -17.334 -6 -26.001c0 -25.333 11.333 -43.333 34 -54c8 -3.33301 16.333 -5 25 -5c24 0 41.333 11 52 33c4 8.66699 6 17.334 6 26.001z" />
    <glyph glyph-name="Idotaccent" unicode="&#x130;" horiz-adv-x="328" 
d="M292 0c0 14.667 -5.33398 23 -16.001 25c-3.33301 0.666992 -6.66602 1 -9.99902 1h-54v548h80v26h-256v-26h80v-548h-80v-26h256zM222.999 699c0 24 -10.665 41.667 -31.998 53c-8.66699 4 -17.334 6 -26.001 6c-24.667 0 -42.334 -11 -53.001 -33
c-4 -8.66699 -6 -17.334 -6 -26.001c0 -25.333 11.333 -43.333 34 -54c8 -3.33301 16.333 -5 25 -5c24 0 41.333 11 52 33c4 8.66699 6 17.334 6 26.001z" />
    <glyph glyph-name="dotlessi" unicode="&#x131;" horiz-adv-x="286" 
d="M239 26l-48 0.000976562v400h-163v-26h72v-322c-3.33301 -34 -27.333 -51.333 -72 -52v-26h235c0 15.333 -4.33301 23.666 -13 24.999c-3.33301 0.666992 -7 1 -11 1z" />
    <glyph glyph-name="uni0136" unicode="&#x136;" horiz-adv-x="641" 
d="M418 -111c0 38.667 -14.332 62.666 -42.999 71.999c-6.66699 2 -13.667 3 -21 3c-24 0 -41 -11 -51 -33c-3.33301 -8.66699 -5 -17 -5 -25c0 -26 13 -43.333 39 -52c3.33301 -1.33301 6.33301 -2.33301 9 -3c16 -4 24.333 -10.333 25 -19
c-0.666992 -19.333 -16.334 -45.666 -47.001 -78.999l23 -16c44 52 67.667 102.667 71 152zM292.001 -0.000976562c0 14.667 -5.33398 23.001 -16.001 25.001c-3.33301 0.666992 -6.66602 1 -9.99902 1h-54v233l49 46l228 -305h149c0 14.667 -5.33301 23 -16 25
c-3.33301 0.666992 -6.66602 1 -9.99902 1h-24l-258 343l174 162c25.333 24 44 37.667 56 41c6 1.33301 12.333 2 19 2c15.333 0 23.666 5.33301 24.999 16c0.666992 3.33301 1 6.66602 1 9.99902h-181v-26h80l-292 -268v268h80v26h-256v-26h80v-548h-80v-26h256z" />
    <glyph glyph-name="uni0137" unicode="&#x137;" horiz-adv-x="505" 
d="M235 25l-47.001 0.000976562v149l50 47l138 -221h139c0 14 -4.33301 22 -13 24c-3.33301 0.666992 -7 1 -11 1h-33l-161 252l91 85c23.333 22 41 34.333 53 37c5.33301 1.33301 11.333 2 18 2c14.667 0 22.667 5 24 15c0.666992 3.33301 1 6.66602 1 9.99902h-170v-25h75
l-201 -187v436h-160v-25h75v-541c0 -30.667 -10 -49 -30 -55c-10 -2.66699 -25 -4 -45 -4v-25h232c0 14.667 -5 22.667 -15 24c-3.33301 0.666992 -6.66602 1 -9.99902 1zM348.999 -110.999c0 38.667 -14.332 62.666 -42.999 71.999c-6.66699 2 -13.667 3 -21 3
c-24 0 -41 -11 -51 -33c-3.33301 -8.66699 -5 -17 -5 -25c0 -26 13 -43.333 39 -52c3.33301 -1.33301 6.33301 -2.33301 9 -3c16 -4 24.333 -10.333 25 -19c-0.666992 -19.333 -16.334 -45.666 -47.001 -78.999l23 -16c44 52 67.667 102.667 71 152z" />
    <glyph glyph-name="Lacute" unicode="&#x139;" horiz-adv-x="497" 
d="M484 0l5 203h-22l-19 -72c-15.333 -58.667 -41.333 -92.667 -78 -102c-8.66699 -2 -17.667 -3 -27 -3h-131v548h85v26h-261v-26h80v-548h-80v-26h448zM337 707c9.33301 8.66699 14.333 18.999 15 30.999c0 17.333 -8.66699 31.333 -26 42c-8 4 -15.333 6 -22 6
c-10.667 -0.666992 -20.667 -5 -30 -13c-6 -5.33301 -22 -27.666 -48 -66.999c-21.333 -30.667 -41.333 -55.667 -60 -75l16 -18c16.667 12 53.667 33.667 111 65c21.333 12 36 21.667 44 29z" />
    <glyph glyph-name="lacute" unicode="&#x13a;" horiz-adv-x="293" 
d="M220 735c12 6.66699 19.332 15.335 21.999 26.002c4.66699 19.333 -1.66602 35.666 -18.999 48.999c-6 4.66699 -12 7.66699 -18 9c-10.667 2 -21 0.333008 -31 -5c-7.33301 -4.66699 -28 -22.667 -62 -54c-28 -26 -53.333 -46.667 -76 -62l12 -20
c16.667 7.33301 58.667 20.666 126 39.999c22 6 37.333 11.667 46 17zM243.999 25.001h-54.001v625h-161v-25h76v-541c0 -30 -9 -48 -27 -54c-10.667 -3.33301 -27 -5 -49 -5v-25h239c0 14.667 -4.66699 22.667 -14 24c-3.33301 0.666992 -6.66602 1 -9.99902 1z" />
    <glyph glyph-name="uni013B" unicode="&#x13b;" horiz-adv-x="497" 
d="M484 0l5 203h-22l-19 -72c-15.333 -58.667 -41.333 -92.667 -78 -102c-8.66699 -2 -17.667 -3 -27 -3h-131v548h85v26h-261v-26h80v-548h-80v-26h448zM314 -111c0 38.667 -14.332 62.666 -42.999 71.999c-6.66699 2 -13.667 3 -21 3c-24 0 -41 -11 -51 -33
c-3.33301 -8.66699 -5 -17 -5 -25c0 -26 13 -43.333 39 -52c3.33301 -1.33301 6.33301 -2.33301 9 -3c16 -4 24.333 -10.333 25 -19c-0.666992 -19.333 -16.334 -45.666 -47.001 -78.999l23 -16c44 52 67.667 102.667 71 152z" />
    <glyph glyph-name="uni013C" unicode="&#x13c;" horiz-adv-x="294" 
d="M244 25h-54.001v625h-161v-25h76v-541c0 -30 -9 -48 -27 -54c-10.667 -3.33301 -27 -5 -49 -5v-25h239c0 14.667 -4.66699 22.667 -14 24c-3.33301 0.666992 -6.66602 1 -9.99902 1zM202.999 -111c0 38.667 -14.332 62.666 -42.999 71.999c-6.66699 2 -13.667 3 -21 3
c-24 0 -41 -11 -51 -33c-3.33301 -8.66699 -5 -17 -5 -25c0 -26 13 -43.333 39 -52c3.33301 -1.33301 6.33301 -2.33301 9 -3c16 -4 24.333 -10.333 25 -19c-0.666992 -19.333 -16.334 -45.666 -47.001 -78.999l23 -16c44 52 67.667 102.667 71 152z" />
    <glyph glyph-name="Lcaron" unicode="&#x13d;" horiz-adv-x="497" 
d="M484 0l5 203h-22l-19 -72c-15.333 -58.667 -41.333 -92.667 -78 -102c-8.66699 -2 -17.667 -3 -27 -3h-131v548h85v26h-261v-26h80v-548h-80v-26h448zM179 631c18.667 0 39.001 13 61.001 39c5.33301 5.33301 13.666 15.333 24.999 30c22.667 28 41.667 50.333 57 67
l-14 16c-35.333 -22.667 -78.333 -47 -129 -73c-61.333 31.333 -105 56 -131 74l-14 -18c16.667 -18 36.667 -41 60 -69c28 -34 48 -54 60 -60c8.66699 -4 17 -6 25 -6z" />
    <glyph glyph-name="lcaron" unicode="&#x13e;" horiz-adv-x="322" 
d="M244 25h-54.001v625h-161v-25h76v-541c0 -30 -9 -48 -27 -54c-10.667 -3.33301 -27 -5 -49 -5v-25h239c0 14.667 -4.66699 22.667 -14 24c-3.33301 0.666992 -6.66602 1 -9.99902 1zM341.999 586c0 38.667 -14.333 62.667 -43 72c-6.66699 2 -13.667 3 -21 3
c-24 0 -41 -11 -51 -33c-3.33301 -8 -5 -16.333 -5 -25c0 -26 13.333 -43.333 40 -52l8 -2c16 -5.33301 24.333 -12 25 -20c0 -18.667 -15 -44 -45 -76l-2 -2l23 -16c43.333 44 67 91 71 141v10z" />
    <glyph glyph-name="Lslash" unicode="&#x141;" horiz-adv-x="502" 
d="M484 0l5 203h-22l-19 -72c-15.333 -58.667 -41.333 -92.667 -78 -102c-8.66699 -2 -17.667 -3 -27 -3h-131v233l202 114l-15 26l-187 -105v280h85v26h-261v-26h80v-334l-104 -58l15 -27l89 50v-179h-80v-26h448z" />
    <glyph glyph-name="lslash" unicode="&#x142;" horiz-adv-x="293" 
d="M16 233l88.999 50v-199c0 -30 -9 -48 -27 -54c-10.667 -3.33301 -27 -5 -49 -5v-25h239c0 14.667 -4.66699 22.667 -14 24c-3.33301 0.666992 -6.66602 1 -9.99902 1h-54v306l111 63l-15 26l-96 -54v284h-161v-25h76v-307l-104 -58z" />
    <glyph glyph-name="Nacute" unicode="&#x143;" horiz-adv-x="668" 
d="M455 574h83.999v-437l-375 463h-145v-26h80v-548h-80v-26h205c0 14.667 -5.33301 23 -16 25c-3.33301 0.666992 -6.66602 1 -9.99902 1h-59v454l392 -485l48 10v569h80v26h-204v-26zM427.999 707c9.33301 8.66699 14.333 18.999 15 30.999
c0 17.333 -8.66699 31.333 -26 42c-8 4 -15.333 6 -22 6c-10.667 -0.666992 -20.667 -5 -30 -13c-6 -5.33301 -22 -27.666 -48 -66.999c-21.333 -30.667 -41.333 -55.667 -60 -75l16 -18c16.667 12 53.667 33.667 111 65c21.333 12 36 21.667 44 29z" />
    <glyph glyph-name="nacute" unicode="&#x144;" horiz-adv-x="567" 
d="M226 25l-41 -0.000976562v220c1.33301 60.667 22 104.334 62 131.001c17.333 10.667 34.666 16 51.999 16c40.667 0 67.667 -19.333 81 -58c4.66699 -14.667 7 -30.667 7 -48v-202c0 -30 -8.66699 -48 -26 -54c-9.33301 -3.33301 -23.666 -5 -42.999 -5v-25h226
c0 14.667 -5 22.667 -15 24c-2.66699 0.666992 -6 1 -10 1h-47v250c0 70 -24 118.333 -72 145c-20.667 11.333 -42.667 17 -66 17c-49.333 0 -90.333 -20 -123 -60c-11.333 -13.333 -20.333 -28.333 -27 -45l-4 94h-152v-25h72v-317c0 -30.667 -9.33301 -49 -28 -55
c-10 -2.66699 -24.667 -4 -44 -4v-25h223c0 14.667 -5 22.667 -15 24c-2.66699 0.666992 -6 1 -10 1zM375 576.999c9.33301 8.66699 14.333 18.999 15 30.999c0 17.333 -8.66699 31.333 -26 42c-8 4 -15.333 6 -22 6c-10.667 -0.666992 -20.667 -5 -30 -13
c-6 -5.33301 -22 -27.666 -48 -66.999c-21.333 -30.667 -41.333 -55.667 -60 -75l16 -18c16.667 12 53.667 33.667 111 65c21.333 12 36 21.667 44 29z" />
    <glyph glyph-name="uni0145" unicode="&#x145;" horiz-adv-x="668" 
d="M455 574h83.999v-437l-375 463h-145v-26h80v-548h-80v-26h205c0 14.667 -5.33301 23 -16 25c-3.33301 0.666992 -6.66602 1 -9.99902 1h-59v454l392 -485l48 10v569h80v26h-204v-26zM395.999 -111c0 38.667 -14.332 62.666 -42.999 71.999c-6.66699 2 -13.667 3 -21 3
c-24 0 -41 -11 -51 -33c-3.33301 -8.66699 -5 -17 -5 -25c0 -26 13 -43.333 39 -52c3.33301 -1.33301 6.33301 -2.33301 9 -3c16 -4 24.333 -10.333 25 -19c-0.666992 -19.333 -16.334 -45.666 -47.001 -78.999l23 -16c44 52 67.667 102.667 71 152z" />
    <glyph glyph-name="uni0146" unicode="&#x146;" horiz-adv-x="567" 
d="M226 25l-41 -0.000976562v220c1.33301 60.667 22 104.334 62 131.001c17.333 10.667 34.666 16 51.999 16c40.667 0 67.667 -19.333 81 -58c4.66699 -14.667 7 -30.667 7 -48v-202c0 -30 -8.66699 -48 -26 -54c-9.33301 -3.33301 -23.666 -5 -42.999 -5v-25h226
c0 14.667 -5 22.667 -15 24c-2.66699 0.666992 -6 1 -10 1h-47v250c0 70 -24 118.333 -72 145c-20.667 11.333 -42.667 17 -66 17c-49.333 0 -90.333 -20 -123 -60c-11.333 -13.333 -20.333 -28.333 -27 -45l-4 94h-152v-25h72v-317c0 -30.667 -9.33301 -49 -28 -55
c-10 -2.66699 -24.667 -4 -44 -4v-25h223c0 14.667 -5 22.667 -15 24c-2.66699 0.666992 -6 1 -10 1zM343 -111.001c0 38.667 -14.332 62.666 -42.999 71.999c-6.66699 2 -13.667 3 -21 3c-24 0 -41 -11 -51 -33c-3.33301 -8.66699 -5 -17 -5 -25c0 -26 13 -43.333 39 -52
c3.33301 -1.33301 6.33301 -2.33301 9 -3c16 -4 24.333 -10.333 25 -19c-0.666992 -19.333 -16.334 -45.666 -47.001 -78.999l23 -16c44 52 67.667 102.667 71 152z" />
    <glyph glyph-name="Ncaron" unicode="&#x147;" horiz-adv-x="668" 
d="M455 574h83.999v-437l-375 463h-145v-26h80v-548h-80v-26h205c0 14.667 -5.33301 23 -16 25c-3.33301 0.666992 -6.66602 1 -9.99902 1h-59v454l392 -485l48 10v569h80v26h-204v-26zM337.999 631c18.667 0 39.001 13 61.001 39c5.33301 5.33301 13.666 15.333 24.999 30
c22.667 28 41.667 50.333 57 67l-14 16c-35.333 -22.667 -78.333 -47 -129 -73c-61.333 31.333 -105 56 -131 74l-14 -18c16.667 -18 36.667 -41 60 -69c28 -34 48 -54 60 -60c8.66699 -4 17 -6 25 -6z" />
    <glyph glyph-name="ncaron" unicode="&#x148;" horiz-adv-x="567" 
d="M226 25l-41 -0.000976562v220c1.33301 60.667 22 104.334 62 131.001c17.333 10.667 34.666 16 51.999 16c40.667 0 67.667 -19.333 81 -58c4.66699 -14.667 7 -30.667 7 -48v-202c0 -30 -8.66699 -48 -26 -54c-9.33301 -3.33301 -23.666 -5 -42.999 -5v-25h226
c0 14.667 -5 22.667 -15 24c-2.66699 0.666992 -6 1 -10 1h-47v250c0 70 -24 118.333 -72 145c-20.667 11.333 -42.667 17 -66 17c-49.333 0 -90.333 -20 -123 -60c-11.333 -13.333 -20.333 -28.333 -27 -45l-4 94h-152v-25h72v-317c0 -30.667 -9.33301 -49 -28 -55
c-10 -2.66699 -24.667 -4 -44 -4v-25h223c0 14.667 -5 22.667 -15 24c-2.66699 0.666992 -6 1 -10 1zM284 500.999c18.667 0 39.001 13 61.001 39c5.33301 5.33301 13.666 15.333 24.999 30c22.667 28 41.667 50.333 57 67l-14 16c-35.333 -22.667 -78.333 -47 -129 -73
c-61.333 31.333 -105 56 -131 74l-14 -18c16.667 -18 36.667 -41 60 -69c28 -34 48 -54 60 -60c8.66699 -4 17 -6 25 -6z" />
    <glyph glyph-name="Omacron" unicode="&#x14c;" horiz-adv-x="705" 
d="M355 610c-81.333 0 -151.333 -26.666 -210 -79.999c-62.667 -58.667 -94 -134 -94 -226c0 -106.667 37 -189.667 111 -249c55.333 -43.333 118.666 -65 189.999 -65c80.667 0 150 27 208 81c62.667 59.333 94 135.666 94 228.999c0 110 -38.333 193.667 -115 251
c-53.333 39.333 -114.666 59 -183.999 59zM355 18.001c-120 0 -184 82 -192 246c-0.666992 12 -1 24 -1 36c0 172.667 53.667 266 161 280c10 1.33301 19.667 2 29 2c126 -1.33301 189.333 -94 190 -278c0 -163.333 -47 -257 -141 -281c-14.667 -3.33301 -30 -5 -46 -5z
M204 670.001h304v51h-304v-51z" />
    <glyph glyph-name="omacron" unicode="&#x14d;" horiz-adv-x="515" 
d="M133 214c0.666992 131.333 42.001 197.335 124.001 198.002c82 -1.33301 123.333 -66 124 -194c-0.666992 -134.667 -41.334 -202.334 -122.001 -203.001c-83.333 1.33301 -125.333 67.666 -126 198.999zM260.001 437.002c-67.333 0 -122.668 -22.999 -166.001 -68.999
c-37.333 -40.667 -56 -90.667 -56 -150c0 -81.333 29.333 -143.333 88 -186c38.667 -28 82 -42 130 -42c66 0 120.333 23.333 163 70c38.667 42 58 93.667 58 155c0 81.333 -30 142.666 -90 183.999c-37.333 25.333 -79.666 38 -126.999 38zM113.999 540.003h304v51h-304
v-51z" />
    <glyph glyph-name="Ohungarumlaut" unicode="&#x150;" horiz-adv-x="705" 
d="M355 610c-81.333 0 -151.333 -26.666 -210 -79.999c-62.667 -58.667 -94 -134 -94 -226c0 -106.667 37 -189.667 111 -249c55.333 -43.333 118.666 -65 189.999 -65c80.667 0 150 27 208 81c62.667 59.333 94 135.666 94 228.999c0 110 -38.333 193.667 -115 251
c-53.333 39.333 -114.666 59 -183.999 59zM355 18.001c-120 0 -184 82 -192 246c-0.666992 12 -1 24 -1 36c0 172.667 53.667 266 161 280c10 1.33301 19.667 2 29 2c126 -1.33301 189.333 -94 190 -278c0 -163.333 -47 -257 -141 -281c-14.667 -3.33301 -30 -5 -46 -5z
M385 723.001c8.66699 8 13 18 13 30c0 18 -8.66699 31.667 -26 41c-7.33301 3.33301 -14.333 5 -21 5c-10.667 -0.666992 -20 -4.66699 -28 -12c-5.33301 -5.33301 -20.666 -27.333 -45.999 -66c-20.667 -30 -40 -54.667 -58 -74l15 -17c15.333 11.333 52.333 33.333 111 66
c19.333 11.333 32.666 20.333 39.999 27zM549 693.001c10 6 16.3301 14.998 18.9971 26.998c3.33301 18.667 -3 33.667 -19 45c-5.33301 4.66699 -11.333 7.33398 -18 8.00098c-12 2 -22 0 -30 -6c-8 -4.66699 -27.667 -23 -59 -55
c-25.333 -25.333 -48.666 -45.666 -69.999 -60.999l11 -20c16.667 8 57.334 22.667 122.001 44c20.667 6.66699 35.334 12.667 44.001 18z" />
    <glyph glyph-name="ohungarumlaut" unicode="&#x151;" horiz-adv-x="515" 
d="M133 214c0.666992 131.333 42.001 197.335 124.001 198.002c82 -1.33301 123.333 -66 124 -194c-0.666992 -134.667 -41.334 -202.334 -122.001 -203.001c-83.333 1.33301 -125.333 67.666 -126 198.999zM260.001 437.002c-67.333 0 -122.668 -22.999 -166.001 -68.999
c-37.333 -40.667 -56 -90.667 -56 -150c0 -81.333 29.333 -143.333 88 -186c38.667 -28 82 -42 130 -42c66 0 120.333 23.333 163 70c38.667 42 58 93.667 58 155c0 81.333 -30 142.666 -90 183.999c-37.333 25.333 -79.666 38 -126.999 38zM294.999 593.003
c8.66699 8 13 18 13 30c0 18 -8.66699 31.667 -26 41c-7.33301 3.33301 -14.333 5 -21 5c-10.667 -0.666992 -20 -4.66699 -28 -12c-5.33301 -5.33301 -20.666 -27.333 -45.999 -66c-20.667 -30 -40 -54.667 -58 -74l15 -17c15.333 11.333 52.333 33.333 111 66
c19.333 11.333 32.666 20.333 39.999 27zM458.999 563.003c10 6 16.3301 14.998 18.9971 26.998c3.33301 18.667 -3 33.667 -19 45c-5.33301 4.66699 -11.333 7.33398 -18 8.00098c-12 2 -22 0 -30 -6c-8 -4.66699 -27.667 -23 -59 -55
c-25.333 -25.333 -48.666 -45.666 -69.999 -60.999l11 -20c16.667 8 57.334 22.667 122.001 44c20.667 6.66699 35.334 12.667 44.001 18z" />
    <glyph glyph-name="OE" unicode="&#x152;" horiz-adv-x="905" 
d="M368 22c-136.667 1.33301 -205.334 94 -206.001 278c0 172 57.667 264 173 276c10 1.33301 20 2 30 2c34 0 66.333 -5 97 -15v-526c-31.333 -10 -62.666 -15 -93.999 -15zM497 0h354l5 183h-22l-16 -52c-22 -69.333 -62 -104.333 -120 -105h-140v269h204v29h-204v250h140
c57.333 -0.666992 97 -35.667 119 -105l17 -52h22l-5 183h-353c-14.667 0 -38 0.666992 -70 2c-32 2 -55 3 -69 3c-86 0 -158.333 -27 -217 -81c-60.667 -56 -91 -129.333 -91 -220c0 -109.333 39 -192.333 117 -249c54.667 -40 118.667 -60 192 -60c20 0 48.667 1 86 3
c25.333 1.33301 42.333 2 51 2z" />
    <glyph glyph-name="oe" unicode="&#x153;" horiz-adv-x="804" 
d="M587 412c46.667 0 76.668 -21.333 90.001 -64c3.33301 -12 5 -24.667 5 -38c0 -32.667 -14.667 -52.667 -44 -60c-16.667 -4 -39.667 -5.66699 -69 -5l-98 3c3.33301 88 30.666 141 81.999 159c10.667 3.33301 22 5 34 5zM133.001 214
c0.666992 131.333 42.001 197.335 124.001 198.002c82 -1.33301 123.333 -66 124 -194c-0.666992 -134.667 -41.334 -202.334 -122.001 -203.001c-83.333 1.33301 -125.333 67.666 -126 198.999zM260.002 437.002c-67.333 0 -122.665 -23.001 -165.998 -69.001
c-37.333 -40.667 -56 -90.667 -56 -150c0 -81.333 29.333 -143.333 88 -186c38.667 -28 82 -42 130 -42c62 0 113.667 23.333 155 70c4.66699 5.33301 9 10.666 13 15.999c32.667 -52 82 -80.333 148 -85c6 -0.666992 11.667 -1 17 -1c74.667 0 128.667 26.667 162 80
c6 10 11 20.333 15 31l-26 5c-21.333 -46.667 -55.333 -75 -102 -85c-10.667 -2 -21 -3 -31 -3c-70.667 0 -114 44.667 -130 134c-3.33301 20.667 -5.33301 43.334 -6 68.001l115 -2c85.333 -1.33301 139.666 7.33398 162.999 26.001c15.333 13.333 23 31.333 23 54
c0 47.333 -24 84.333 -72 111c-32.667 18.667 -70.334 28 -113.001 28c-72 -0.666992 -126 -28.667 -162 -84c-36 52 -87 80 -153 84h-12z" />
    <glyph glyph-name="Racute" unicode="&#x154;" horiz-adv-x="612" 
d="M292 0v26h-80v249h86l158 -275h156c0 15.333 -4.33301 23.666 -13 24.999c-3.33301 0.666992 -7 1 -11 1h-33l-160 258c64 16.667 107.333 50.334 130 101.001c8 19.333 12 39 12 59c0 50 -21.667 90 -65 120c-36 24 -80 36 -132 36h-304v-26h80v-548h-80v-26h256z
M304 574c56 0 94.668 -23.668 116.001 -71.001c8 -19.333 12 -39.666 12 -60.999c0 -49.333 -16.667 -87 -50 -113c-20.667 -16.667 -45.334 -25 -74.001 -25h-96v270h92zM397.001 706.999c9.33301 8.66699 14.333 18.999 15 30.999c0 17.333 -8.66699 31.333 -26 42
c-8 4 -15.333 6 -22 6c-10.667 -0.666992 -20.667 -5 -30 -13c-6 -5.33301 -22 -27.666 -48 -66.999c-21.333 -30.667 -41.333 -55.667 -60 -75l16 -18c16.667 12 53.667 33.667 111 65c21.333 12 36 21.667 44 29z" />
    <glyph glyph-name="racute" unicode="&#x155;" horiz-adv-x="399" 
d="M259 25h-72.002v220c4.66699 57.333 24 100.333 58 129c11.333 9.33301 21 14 29 14c10 0 19.667 -8.33301 29 -25c10.667 -18.667 21.334 -29.667 32.001 -33c4.66699 -1.33301 9.33398 -2 14.001 -2c22 0 36.333 10.333 43 31c1.33301 5.33301 2 10.333 2 15
c0 30.667 -15.333 49.334 -46 56.001c-6.66699 1.33301 -13.667 2 -21 2c-41.333 0 -78 -17.333 -110 -52c-13.333 -14.667 -24 -31.334 -32 -50.001l-4 96h-151v-25h71v-317c0 -30.667 -9 -49 -27 -55c-9.33301 -2.66699 -24 -4 -44 -4v-25h254c0 14.667 -5 22.667 -15 24
c-2.66699 0.666992 -6 1 -10 1zM290.998 577c9.33301 8.66699 14.333 18.999 15 30.999c0 17.333 -8.66699 31.333 -26 42c-8 4 -15.333 6 -22 6c-10.667 -0.666992 -20.667 -5 -30 -13c-6 -5.33301 -22 -27.666 -48 -66.999c-21.333 -30.667 -41.333 -55.667 -60 -75
l16 -18c16.667 12 53.667 33.667 111 65c21.333 12 36 21.667 44 29z" />
    <glyph glyph-name="uni0156" unicode="&#x156;" horiz-adv-x="612" 
d="M292 0v26h-80v249h86l158 -275h156c0 15.333 -4.33301 23.666 -13 24.999c-3.33301 0.666992 -7 1 -11 1h-33l-160 258c64 16.667 107.333 50.334 130 101.001c8 19.333 12 39 12 59c0 50 -21.667 90 -65 120c-36 24 -80 36 -132 36h-304v-26h80v-548h-80v-26h256z
M304 574c56 0 94.668 -23.668 116.001 -71.001c8 -19.333 12 -39.666 12 -60.999c0 -49.333 -16.667 -87 -50 -113c-20.667 -16.667 -45.334 -25 -74.001 -25h-96v270h92zM390.001 -111.001c0 38.667 -14.332 62.666 -42.999 71.999c-6.66699 2 -13.667 3 -21 3
c-24 0 -41 -11 -51 -33c-3.33301 -8.66699 -5 -17 -5 -25c0 -26 13 -43.333 39 -52c3.33301 -1.33301 6.33301 -2.33301 9 -3c16 -4 24.333 -10.333 25 -19c-0.666992 -19.333 -16.334 -45.666 -47.001 -78.999l23 -16c44 52 67.667 102.667 71 152z" />
    <glyph glyph-name="uni0157" unicode="&#x157;" horiz-adv-x="399" 
d="M259 25h-72.002v220c4.66699 57.333 24 100.333 58 129c11.333 9.33301 21 14 29 14c10 0 19.667 -8.33301 29 -25c10.667 -18.667 21.334 -29.667 32.001 -33c4.66699 -1.33301 9.33398 -2 14.001 -2c22 0 36.333 10.333 43 31c1.33301 5.33301 2 10.333 2 15
c0 30.667 -15.333 49.334 -46 56.001c-6.66699 1.33301 -13.667 2 -21 2c-41.333 0 -78 -17.333 -110 -52c-13.333 -14.667 -24 -31.334 -32 -50.001l-4 96h-151v-25h71v-317c0 -30.667 -9 -49 -27 -55c-9.33301 -2.66699 -24 -4 -44 -4v-25h254c0 14.667 -5 22.667 -15 24
c-2.66699 0.666992 -6 1 -10 1zM204.998 -111c0 38.667 -14.332 62.666 -42.999 71.999c-6.66699 2 -13.667 3 -21 3c-24 0 -41 -11 -51 -33c-3.33301 -8.66699 -5 -17 -5 -25c0 -26 13 -43.333 39 -52c3.33301 -1.33301 6.33301 -2.33301 9 -3c16 -4 24.333 -10.333 25 -19
c-0.666992 -19.333 -16.334 -45.666 -47.001 -78.999l23 -16c44 52 67.667 102.667 71 152z" />
    <glyph glyph-name="Rcaron" unicode="&#x158;" horiz-adv-x="612" 
d="M292 0v26h-80v249h86l158 -275h156c0 15.333 -4.33301 23.666 -13 24.999c-3.33301 0.666992 -7 1 -11 1h-33l-160 258c64 16.667 107.333 50.334 130 101.001c8 19.333 12 39 12 59c0 50 -21.667 90 -65 120c-36 24 -80 36 -132 36h-304v-26h80v-548h-80v-26h256z
M304 574c56 0 94.668 -23.668 116.001 -71.001c8 -19.333 12 -39.666 12 -60.999c0 -49.333 -16.667 -87 -50 -113c-20.667 -16.667 -45.334 -25 -74.001 -25h-96v270h92zM306.001 630.999c18.667 0 39.001 13 61.001 39c5.33301 5.33301 13.666 15.333 24.999 30
c22.667 28 41.667 50.333 57 67l-14 16c-35.333 -22.667 -78.333 -47 -129 -73c-61.333 31.333 -105 56 -131 74l-14 -18c16.667 -18 36.667 -41 60 -69c28 -34 48 -54 60 -60c8.66699 -4 17 -6 25 -6z" />
    <glyph glyph-name="rcaron" unicode="&#x159;" horiz-adv-x="399" 
d="M259 25h-72.002v220c4.66699 57.333 24 100.333 58 129c11.333 9.33301 21 14 29 14c10 0 19.667 -8.33301 29 -25c10.667 -18.667 21.334 -29.667 32.001 -33c4.66699 -1.33301 9.33398 -2 14.001 -2c22 0 36.333 10.333 43 31c1.33301 5.33301 2 10.333 2 15
c0 30.667 -15.333 49.334 -46 56.001c-6.66699 1.33301 -13.667 2 -21 2c-41.333 0 -78 -17.333 -110 -52c-13.333 -14.667 -24 -31.334 -32 -50.001l-4 96h-151v-25h71v-317c0 -30.667 -9 -49 -27 -55c-9.33301 -2.66699 -24 -4 -44 -4v-25h254c0 14.667 -5 22.667 -15 24
c-2.66699 0.666992 -6 1 -10 1zM199.998 501c18.667 0 39.001 13 61.001 39c5.33301 5.33301 13.666 15.333 24.999 30c22.667 28 41.667 50.333 57 67l-14 16c-35.333 -22.667 -78.333 -47 -129 -73c-61.333 31.333 -105 56 -131 74l-14 -18c16.667 -18 36.667 -41 60 -69
c28 -34 48 -54 60 -60c8.66699 -4 17 -6 25 -6z" />
    <glyph glyph-name="Sacute" unicode="&#x15a;" horiz-adv-x="540" 
d="M492 159c0 58.667 -31.999 106.333 -95.999 143c-10.667 6.66699 -48.667 24.667 -114 54c-58.667 26 -95.667 52.667 -111 80c-7.33301 14.667 -11 30 -11 46c0 42.667 20.667 72.334 62 89.001c18 7.33301 37.667 11 59 11c55.333 0 97.333 -19 126 -57
c20 -26 29.667 -58 29 -96h32v176c-17.333 0 -27 -5.66699 -29 -17c-1.33301 -4.66699 -2 -10.334 -2 -17.001c-49.333 26 -103.666 39 -162.999 39c-72.667 0 -129.334 -20 -170.001 -60c-27.333 -27.333 -41 -60 -41 -98c0 -56 31 -101.667 93 -137
c11.333 -6.66699 49.333 -24.667 114 -54c59.333 -26.667 97 -54 113 -82c8 -14.667 12 -30.667 12 -48c0 -46.667 -22 -80 -66 -100c-20.667 -8.66699 -43.334 -13 -68.001 -13c-96.667 0 -152.667 55.667 -168 167l-2 21h-32v-208c16 0 25.667 4.66699 29 14
c1.33301 6 2 15.667 2 29c51.333 -34 110.333 -51 177 -51c77.333 0 137.333 20.667 180 62c30 30 45 65.667 45 107zM381.001 706.999c9.33301 8.66699 14.333 18.999 15 30.999c0 17.333 -8.66699 31.333 -26 42c-8 4 -15.333 6 -22 6
c-10.667 -0.666992 -20.667 -5 -30 -13c-6 -5.33301 -22 -27.666 -48 -66.999c-21.333 -30.667 -41.333 -55.667 -60 -75l16 -18c16.667 12 53.667 33.667 111 65c21.333 12 36 21.667 44 29z" />
    <glyph glyph-name="sacute" unicode="&#x15b;" horiz-adv-x="404" 
d="M191 17c46 0 76.0029 14.3311 90.0029 42.998c4.66699 9.33301 7 19 7 29c0 29.333 -20.667 54.333 -62 75c-8.66699 4.66699 -23 11.334 -43 20.001c-53.333 22.667 -89 44 -107 64c-18.667 21.333 -28 46.333 -28 75c0 47.333 26 81 78 101
c24.667 8.66699 51.334 13 80.001 13c45.333 0 83.666 -9.33301 114.999 -28c0 19.333 4.66699 30.333 14 33c3.33301 0.666992 7.66602 1 12.999 1v-125h-27c-1.33301 61.333 -35.333 92.333 -102 93c-48 0 -78 -14.667 -90 -44c-2.66699 -8 -4 -16 -4 -24
c0 -28.667 20.333 -53 61 -73c9.33301 -4.66699 23.666 -11 42.999 -19c54 -22 90 -42.667 108 -62c19.333 -22 29 -48 29 -78c0 -55.333 -29 -92 -87 -110c-22.667 -7.33301 -47.334 -11 -74.001 -11c-50 0.666992 -93.333 12.334 -130 35.001
c0 -17.333 -4.33301 -27.333 -13 -30c-4 -0.666992 -8.66699 -1 -14 -1v152h29c1.33301 -85.333 39.333 -128.333 114 -129zM294.003 576.998c9.33301 8.66699 14.333 18.999 15 30.999c0 17.333 -8.66699 31.333 -26 42c-8 4 -15.333 6 -22 6
c-10.667 -0.666992 -20.667 -5 -30 -13c-6 -5.33301 -22 -27.666 -48 -66.999c-21.333 -30.667 -41.333 -55.667 -60 -75l16 -18c16.667 12 53.667 33.667 111 65c21.333 12 36 21.667 44 29z" />
    <glyph glyph-name="uni015E" unicode="&#x15e;" horiz-adv-x="540" 
d="M492 159c0 58.667 -32.001 106.333 -96.001 143c-10.667 6.66699 -48.667 24.667 -114 54c-58.667 26 -95.667 52.667 -111 80c-7.33301 14.667 -11 30 -11 46c0 42.667 20.667 72.334 62 89.001c18 7.33301 37.667 11 59 11c55.333 0 97.333 -19 126 -57
c20 -26 29.667 -58 29 -96h32v176c-17.333 0 -27 -5.66699 -29 -17c-1.33301 -4.66699 -2 -10.334 -2 -17.001c-49.333 26 -103.666 39 -162.999 39c-72.667 0 -129.334 -20 -170.001 -60c-27.333 -27.333 -41 -60 -41 -98c0 -56 31 -101.667 93 -137
c11.333 -6.66699 49.333 -24.667 114 -54c59.333 -26.667 97 -54 113 -82c8 -14.667 12 -30.667 12 -48c0 -46.667 -22 -80 -66 -100c-20.667 -8.66699 -43.334 -13 -68.001 -13c-96.667 0 -152.667 55.667 -168 167l-2 21h-32v-208c16 0 25.667 4.66699 29 14
c1.33301 6 2 15.667 2 29c44.667 -29.333 95.334 -46 152.001 -50l-38 -76l14 -9c16 11.333 32.667 17 50 17c30 0 47 -15 51 -45c0.666992 -4 1 -8 1 -12c0 -35.333 -13.333 -57 -40 -65c-5.33301 -1.33301 -10.666 -2 -15.999 -2c-26 0.666992 -49 13.667 -69 39l-16 -12
c23.333 -34.667 58.666 -52.334 105.999 -53.001c46.667 0 81 14.667 103 44c10 14.667 15 30.334 15 47.001c0 35.333 -18.333 60.333 -55 75c-16 6.66699 -33 10 -51 10s-35.667 -3.66699 -53 -11l24 52c76.667 0 136.334 20.667 179.001 62c30 30 45 65.667 45 107z" />
    <glyph glyph-name="uni015F" unicode="&#x15f;" horiz-adv-x="404" 
d="M191 17c-75.333 1.33301 -113.331 44.333 -113.998 129h-29v-152c14.667 0 23 4.33301 25 13c1.33301 4.66699 2 10.667 2 18c29.333 -18 61 -29 95 -33l-38 -77l14 -9c16 11.333 32.667 17 50 17c30 0 47 -15 51 -45c0.666992 -4 1 -8 1 -12
c0 -35.333 -13.333 -57 -40 -65c-5.33301 -1.33301 -10.666 -2 -15.999 -2c-26 0.666992 -49 13.667 -69 39l-16 -12c23.333 -34.667 58.666 -52.334 105.999 -53.001c46.667 0 81 14.667 103 44c10 14.667 15 30.334 15 47.001c0 35.333 -18.333 60.333 -55 75
c-16 6.66699 -33 10 -51 10s-35.667 -3.66699 -53 -11l24 52c-7.33301 0 -16 0.666992 -26 2l6 12h26l-6 -14h9c70 0 118 20 144 60c11.333 18 17 38.333 17 61c0 48 -26.667 86 -80 114c-12 6.66699 -31 15.334 -57 26.001c-47.333 20 -77.333 37.333 -90 52
c-9.33301 12 -14 25.333 -14 40c0 34 20 55.333 60 64c10.667 2.66699 22 4 34 4c67.333 -1.33301 101.333 -32.333 102 -93h27v125c-14.667 0 -23.334 -5.66699 -26.001 -17c-0.666992 -4.66699 -1 -10.334 -1 -17.001c-32 18.667 -70.333 28 -115 28
c-63.333 0 -109 -17.333 -137 -52c-14 -18 -21 -38.667 -21 -62c0 -47.333 26.333 -85 79 -113c12 -6.66699 30.667 -15.334 56 -26.001c48 -20.667 78.333 -39 91 -55c9.33301 -12 14 -25.333 14 -40c0 -33.333 -18.667 -55.666 -56 -66.999
c-12.667 -3.33301 -26.334 -5 -41.001 -5z" />
    <glyph glyph-name="Scaron" unicode="&#x160;" horiz-adv-x="540" 
d="M492 159c0 58.667 -31.999 106.333 -95.999 143c-10.667 6.66699 -48.667 24.667 -114 54c-58.667 26 -95.667 52.667 -111 80c-7.33301 14.667 -11 30 -11 46c0 42.667 20.667 72.334 62 89.001c18 7.33301 37.667 11 59 11c55.333 0 97.333 -19 126 -57
c20 -26 29.667 -58 29 -96h32v176c-17.333 0 -27 -5.66699 -29 -17c-1.33301 -4.66699 -2 -10.334 -2 -17.001c-49.333 26 -103.666 39 -162.999 39c-72.667 0 -129.334 -20 -170.001 -60c-27.333 -27.333 -41 -60 -41 -98c0 -56 31 -101.667 93 -137
c11.333 -6.66699 49.333 -24.667 114 -54c59.333 -26.667 97 -54 113 -82c8 -14.667 12 -30.667 12 -48c0 -46.667 -22 -80 -66 -100c-20.667 -8.66699 -43.334 -13 -68.001 -13c-96.667 0 -152.667 55.667 -168 167l-2 21h-32v-208c16 0 25.667 4.66699 29 14
c1.33301 6 2 15.667 2 29c51.333 -34 110.333 -51 177 -51c77.333 0 137.333 20.667 180 62c30 30 45 65.667 45 107zM290.001 630.999c18.667 0 39.001 13 61.001 39c5.33301 5.33301 13.666 15.333 24.999 30c22.667 28 41.667 50.333 57 67l-14 16
c-35.333 -22.667 -78.333 -47 -129 -73c-61.333 31.333 -105 56 -131 74l-14 -18c16.667 -18 36.667 -41 60 -69c28 -34 48 -54 60 -60c8.66699 -4 17 -6 25 -6z" />
    <glyph glyph-name="scaron" unicode="&#x161;" horiz-adv-x="404" 
d="M191 17c46 0 76.0029 14.3311 90.0029 42.998c4.66699 9.33301 7 19 7 29c0 29.333 -20.667 54.333 -62 75c-8.66699 4.66699 -23 11.334 -43 20.001c-53.333 22.667 -89 44 -107 64c-18.667 21.333 -28 46.333 -28 75c0 47.333 26 81 78 101
c24.667 8.66699 51.334 13 80.001 13c45.333 0 83.666 -9.33301 114.999 -28c0 19.333 4.66699 30.333 14 33c3.33301 0.666992 7.66602 1 12.999 1v-125h-27c-1.33301 61.333 -35.333 92.333 -102 93c-48 0 -78 -14.667 -90 -44c-2.66699 -8 -4 -16 -4 -24
c0 -28.667 20.333 -53 61 -73c9.33301 -4.66699 23.666 -11 42.999 -19c54 -22 90 -42.667 108 -62c19.333 -22 29 -48 29 -78c0 -55.333 -29 -92 -87 -110c-22.667 -7.33301 -47.334 -11 -74.001 -11c-50 0.666992 -93.333 12.334 -130 35.001
c0 -17.333 -4.33301 -27.333 -13 -30c-4 -0.666992 -8.66699 -1 -14 -1v152h29c1.33301 -85.333 39.333 -128.333 114 -129zM203.003 500.998c18.667 0 39.001 13 61.001 39c5.33301 5.33301 13.666 15.333 24.999 30c22.667 28 41.667 50.333 57 67l-14 16
c-35.333 -22.667 -78.333 -47 -129 -73c-61.333 31.333 -105 56 -131 74l-14 -18c16.667 -18 36.667 -41 60 -69c28 -34 48 -54 60 -60c8.66699 -4 17 -6 25 -6z" />
    <glyph glyph-name="uni0162" unicode="&#x162;" horiz-adv-x="579" 
d="M217 -85l13.999 -9c16 11.333 32.667 17 50 17c30 0 47 -15 51 -45c0.666992 -4 1 -8 1 -12c0 -35.333 -13.333 -57 -40 -65c-5.33301 -1.33301 -10.666 -2 -15.999 -2c-26 0.666992 -49 13.667 -69 39l-16 -12c23.333 -34.667 58.666 -52.334 105.999 -53.001
c46.667 0 81 14.667 103 44c10 14.667 15 30.334 15 47.001c0 35.333 -18.333 60.333 -55 75c-16 6.66699 -33 10 -51 10s-35.667 -3.66699 -53 -11l28 62h141c0 14.667 -5.33301 23 -16 25c-3.33301 0.666992 -6.66602 1 -9.99902 1h-69v548h51
c55.333 -0.666992 92 -35 110 -103l19 -71h28l-4 200h-499l-5 -200h28l19 71c18.667 68 55.667 102.333 111 103h46v-548h-95v-26h119z" />
    <glyph glyph-name="uni0163" unicode="&#x163;" horiz-adv-x="332" 
d="M19 400h70v-276c0.666992 -66 23 -108 67 -126l-41 -83l14 -9c16 11.333 32.667 17 50 17c30 0 47 -15 51 -45c0.666992 -4 1 -8 1 -12c0 -35.333 -13.333 -57 -40 -65c-5.33301 -1.33301 -10.666 -2 -15.999 -2c-26 0.666992 -49 13.667 -69 39l-16 -12
c23.333 -34.667 58.666 -52.334 105.999 -53.001c46.667 0 81 14.667 103 44c10 14.667 15 30.334 15 47.001c0 35.333 -18.333 60.333 -55 75c-16 6.66699 -33 10 -51 10s-35.667 -3.66699 -53 -11l24 54c10 -2 20.333 -3 31 -3c62.667 0 101.667 37.667 117 113v2l-27 5
c-14 -59.333 -38 -89.333 -72 -90c-35.333 1.33301 -53.333 27 -54 77v304h151v25h-151v116l-85 -21v-95h-70v-25z" />
    <glyph glyph-name="Tcaron" unicode="&#x164;" horiz-adv-x="570" 
d="M426 0c0 14.667 -5.33398 23 -16.001 25c-3.33301 0.666992 -6.66602 1 -9.99902 1h-69v548h51c55.333 -0.666992 92 -35 110 -103l19 -71h28l-4 200h-499l-5 -200h28l19 71c18.667 68 55.667 102.333 111 103h46v-548h-95v-26h286zM284.999 631
c18.667 0 39.001 13 61.001 39c5.33301 5.33301 13.666 15.333 24.999 30c22.667 28 41.667 50.333 57 67l-14 16c-35.333 -22.667 -78.333 -47 -129 -73c-61.333 31.333 -105 56 -131 74l-14 -18c16.667 -18 36.667 -41 60 -69c28 -34 48 -54 60 -60
c8.66699 -4 17 -6 25 -6z" />
    <glyph glyph-name="tcaron" unicode="&#x165;" horiz-adv-x="332" 
d="M19 400h70v-276c4.66699 -87.333 45 -132.333 121 -135c62.667 0 101.667 37.667 117 113v2l-27 5c-14 -59.333 -38 -89.333 -72 -90c-35.333 1.33301 -53.333 27 -54 77v304h151v25h-151v116l-85 -21v-95h-70v-25zM326 599c0 38.667 -14.333 62.667 -43 72
c-6.66699 2 -13.667 3 -21 3c-24 0 -41 -11 -51 -33c-3.33301 -8 -5 -16.333 -5 -25c0 -26 13.333 -43.333 40 -52l8 -2c16 -5.33301 24.333 -12 25 -20c0 -18.667 -15 -44 -45 -76l-2 -2l23 -16c43.333 44 67 91 71 141v10z" />
    <glyph glyph-name="Umacron" unicode="&#x16a;" horiz-adv-x="635" 
d="M10 574h80.001v-350c1.33301 -155.333 80.333 -233.333 237 -234c115.333 0 185.666 46.333 210.999 139c8 30 12 65 12 105v340h80v26h-195v-26h80v-346c0 -132.667 -50.667 -202.667 -152 -210h-15c-80 0 -130 36 -150 108c-8 29.333 -12 64 -12 104v344h79v26h-255
v-26zM189.001 670h304v51h-304v-51z" />
    <glyph glyph-name="umacron" unicode="&#x16b;" horiz-adv-x="566" 
d="M516 25h-47.001v401h-161v-25h75v-223c-0.666992 -58.667 -21.334 -101 -62.001 -127c-16.667 -10.667 -34 -16 -52 -16c-52 0 -81.667 28 -89 84c-1.33301 8.66699 -2 17.334 -2 26.001v281h-159v-25h73v-241c0.666992 -112.667 48.334 -169.334 143.001 -170.001
c50.667 0 92 20.667 124 62c10.667 14 19.334 29.333 26.001 46l7 -98h148c0 14 -4.33301 22 -13 24c-3.33301 0.666992 -7 1 -11 1zM133.999 540h304v51h-304v-51z" />
    <glyph glyph-name="Uring" unicode="&#x16e;" horiz-adv-x="635" 
d="M10 574h80.001v-350c1.33301 -155.333 80.333 -233.333 237 -234c115.333 0 185.666 46.333 210.999 139c8 30 12 65 12 105v340h80v26h-195v-26h80v-346c0 -132.667 -50.667 -202.667 -152 -210h-15c-80 0 -130 36 -150 108c-8 29.333 -12 64 -12 104v344h79v26h-255
v-26zM312.001 703c0 40.667 12.667 63.667 38 69c3.33301 0.666992 6.66602 1 9.99902 1c28 0 44 -18 48 -54c0.666992 -4.66699 1 -9.33398 1 -14.001c0 -36 -11 -58.333 -33 -67c-5.33301 -2 -10.666 -3 -15.999 -3c-31.333 0.666992 -47.333 23.334 -48 68.001z
M363.001 796c-51.333 0 -85.332 -17.667 -101.999 -53c-5.33301 -12 -8 -24.667 -8 -38c0 -40 17.667 -67.667 53 -83c16 -6.66699 33.333 -10 52 -10c49.333 0 82.666 18 99.999 54c6 12.667 9 26 9 40c0 38 -17.333 64.667 -52 80c-16 6.66699 -33.333 10 -52 10z" />
    <glyph glyph-name="uring" unicode="&#x16f;" horiz-adv-x="566" 
d="M516 25h-47.001v401h-161v-25h75v-223c-0.666992 -58.667 -21.334 -101 -62.001 -127c-16.667 -10.667 -34 -16 -52 -16c-52 0 -81.667 28 -89 84c-1.33301 8.66699 -2 17.334 -2 26.001v281h-159v-25h73v-241c0.666992 -112.667 48.334 -169.334 143.001 -170.001
c50.667 0 92 20.667 124 62c10.667 14 19.334 29.333 26.001 46l7 -98h148c0 14 -4.33301 22 -13 24c-3.33301 0.666992 -7 1 -11 1zM234.999 573c0 40.667 12.667 63.667 38 69c3.33301 0.666992 6.66602 1 9.99902 1c28 0 44 -18 48 -54
c0.666992 -4.66699 1 -9.33398 1 -14.001c0 -36 -11 -58.333 -33 -67c-5.33301 -2 -10.666 -3 -15.999 -3c-31.333 0.666992 -47.333 23.334 -48 68.001zM285.999 666c-51.333 0 -85.332 -17.667 -101.999 -53c-5.33301 -12 -8 -24.667 -8 -38c0 -40 17.667 -67.667 53 -83
c16 -6.66699 33.333 -10 52 -10c49.333 0 82.666 18 99.999 54c6 12.667 9 26 9 40c0 38 -17.333 64.667 -52 80c-16 6.66699 -33.333 10 -52 10z" />
    <glyph glyph-name="Uhungarumlaut" unicode="&#x170;" horiz-adv-x="635" 
d="M10 574h80.001v-350c1.33301 -155.333 80.333 -233.333 237 -234c115.333 0 185.666 46.333 210.999 139c8 30 12 65 12 105v340h80v26h-195v-26h80v-346c0 -132.667 -50.667 -202.667 -152 -210h-15c-80 0 -130 36 -150 108c-8 29.333 -12 64 -12 104v344h79v26h-255
v-26zM371.001 723c8.66699 8 13 18 13 30c0 18 -8.66699 31.667 -26 41c-7.33301 3.33301 -14.333 5 -21 5c-10.667 -0.666992 -20 -4.66699 -28 -12c-5.33301 -5.33301 -20.666 -27.333 -45.999 -66c-20.667 -30 -40 -54.667 -58 -74l15 -17
c15.333 11.333 52.333 33.333 111 66c19.333 11.333 32.666 20.333 39.999 27zM535.001 693c10 6 16.3301 14.998 18.9971 26.998c3.33301 18.667 -3 33.667 -19 45c-6 4.66699 -12 7.33398 -18 8.00098c-12 2 -22 0 -30 -6c-8 -4.66699 -27.667 -23 -59 -55
c-25.333 -25.333 -48.666 -45.666 -69.999 -60.999l11 -20c16.667 8 57.334 22.667 122.001 44c20.667 6.66699 35.334 12.667 44.001 18z" />
    <glyph glyph-name="uhungarumlaut" unicode="&#x171;" horiz-adv-x="566" 
d="M516 25h-47.001v401h-161v-25h75v-223c-0.666992 -58.667 -21.334 -101 -62.001 -127c-16.667 -10.667 -34 -16 -52 -16c-52 0 -81.667 28 -89 84c-1.33301 8.66699 -2 17.334 -2 26.001v281h-159v-25h73v-241c0.666992 -112.667 48.334 -169.334 143.001 -170.001
c50.667 0 92 20.667 124 62c10.667 14 19.334 29.333 26.001 46l7 -98h148c0 14 -4.33301 22 -13 24c-3.33301 0.666992 -7 1 -11 1zM314.999 593c8.66699 8 13 18 13 30c0 18 -8.66699 31.667 -26 41c-7.33301 3.33301 -14.333 5 -21 5
c-10.667 -0.666992 -20 -4.66699 -28 -12c-5.33301 -5.33301 -20.666 -27.333 -45.999 -66c-20.667 -30 -40 -54.667 -58 -74l15 -17c15.333 11.333 52.333 33.333 111 66c19.333 11.333 32.666 20.333 39.999 27zM478.999 563c10 6 16.3301 14.998 18.9971 26.998
c3.33301 18.667 -3 33.667 -19 45c-5.33301 4.66699 -11.333 7.33398 -18 8.00098c-12 2 -22 0 -30 -6c-8 -4.66699 -27.667 -23 -59 -55c-25.333 -25.333 -48.666 -45.666 -69.999 -60.999l11 -20c16.667 8 57.334 22.667 122.001 44
c20.667 6.66699 35.334 12.667 44.001 18z" />
    <glyph glyph-name="Uogonek" unicode="&#x172;" horiz-adv-x="635" 
d="M10 574h80.001v-350c1.33301 -155.333 80.333 -233.333 237 -234c115.333 0 185.666 46.333 210.999 139c8 30 12 65 12 105v340h80v26h-195v-26h80v-346c0 -132.667 -50.667 -202.667 -152 -210h-15c-80 0 -130 36 -150 108c-8 29.333 -12 64 -12 104v344h79v26h-255
v-26zM404.001 -162c-23.333 0 -36.667 13 -40 39c-0.666992 4 -1 7.66699 -1 11c0 32.667 17.333 62 52 88c13.333 9.33301 28 17.333 44 24l-1 9c-90.667 -15.333 -147 -46 -169 -92c-5.33301 -10.667 -8 -21.667 -8 -33c0 -30.667 16.333 -52.667 49 -66
c14.667 -6 31 -9 49 -9c38 0.666992 68.333 13 91 37l-12 15c-18.667 -15.333 -36.667 -23 -54 -23z" />
    <glyph glyph-name="uogonek" unicode="&#x173;" horiz-adv-x="566" 
d="M516 25h-47.001v401h-161v-25h75v-223c-0.666992 -58.667 -21.334 -101 -62.001 -127c-16.667 -10.667 -34 -16 -52 -16c-52 0 -81.667 28 -89 84c-1.33301 8.66699 -2 17.334 -2 26.001v281h-159v-25h73v-241c0.666992 -112.667 48.334 -169.334 143.001 -170.001
c50.667 0 92 20.667 124 62c10.667 14 19.334 29.333 26.001 46l7 -98h106c-74 -19.333 -117.667 -50.333 -131 -93c-2.66699 -8 -4 -15.667 -4 -23c0 -30.667 16.333 -52.667 49 -66c14.667 -6 31 -9 49 -9c38 0.666992 68.333 13 91 37l-12 15
c-18.667 -15.333 -36.667 -23 -54 -23c-23.333 0 -36.666 13 -39.999 39c-0.666992 4 -1 7.66699 -1 11c0 32.667 17.333 62 52 88c13.333 9.33301 28 17.333 44 24l-1 9h-1c-4.66699 10 -12.334 15.333 -23.001 16z" />
    <glyph glyph-name="Ydieresis" unicode="&#x178;" horiz-adv-x="559" 
d="M413 0c-5.33301 16 -14.334 24.6689 -27.001 26.002h-54v225l148 295c14.667 17.333 32.334 26.666 53.001 27.999c14.667 0 23 5.33301 25 16c0.666992 3.33301 1 6.66602 1 9.99902h-178v-26h80l-148 -288l-157 288h76v26h-236v-26h53l187 -332v-216h-81v-26h258z
M257.999 701.002c0 23.333 -10.333 39.333 -31 48c-7.33301 3.33301 -14.666 5 -21.999 5c-24 0 -40.333 -10.333 -49 -31c-3.33301 -7.33301 -5 -14.666 -5 -21.999c0 -24 10.667 -40.667 32 -50c7.33301 -2.66699 14.666 -4 21.999 -4c23.333 0 39.333 10.667 48 32
c3.33301 7.33301 5 14.666 5 21.999zM441.999 701.002c0 23.333 -10.6689 39.668 -32.002 49.001c-7.33301 2.66699 -14.666 4 -21.999 4c-24 0 -40.333 -10.667 -49 -32c-2.66699 -7.33301 -4 -14.333 -4 -21c0 -24.667 11 -41.334 33 -50.001
c6.66699 -2.66699 13.334 -4 20.001 -4c24 0 40.333 10.667 49 32c3.33301 6.66699 5 14 5 22z" />
    <glyph glyph-name="Zacute" unicode="&#x179;" horiz-adv-x="550" 
d="M519 0l2.00098 206.999h-23l-23 -96c-14.667 -56 -47.334 -84.333 -98.001 -85h-237l376 553v21h-446l-9 -181h22l40 90c20 42.667 47 64.334 81 65.001h207l-387 -554v-20h495zM392.001 706.999c9.33301 8.66699 14.333 18.999 15 30.999
c0 17.333 -8.66699 31.333 -26 42c-8 4 -15.333 6 -22 6c-10.667 -0.666992 -20.667 -5 -30 -13c-6 -5.33301 -22 -27.666 -48 -66.999c-21.333 -30.667 -41.333 -55.667 -60 -75l16 -18c16.667 12 53.667 33.667 111 65c21.333 12 36 21.667 44 29z" />
    <glyph glyph-name="zacute" unicode="&#x17a;" horiz-adv-x="421" 
d="M121 26l268 383v21h-342l-9 -134h17l26 59c15.333 32 37 48.333 65 49h152l-278 -382v-22h369l3 155h-17l-13 -60c-9.33301 -39.333 -29 -62 -59 -68c-4.66699 -0.666992 -9 -1 -13 -1h-169zM303 577c9.33301 8.66699 14.333 18.999 15 30.999
c0 17.333 -8.66699 31.333 -26 42c-8 4 -15.333 6 -22 6c-10.667 -0.666992 -20.667 -5 -30 -13c-6 -5.33301 -22 -27.666 -48 -66.999c-21.333 -30.667 -41.333 -55.667 -60 -75l16 -18c16.667 12 53.667 33.667 111 65c21.333 12 36 21.667 44 29z" />
    <glyph glyph-name="Zdotaccent" unicode="&#x17b;" horiz-adv-x="550" 
d="M519 0l2.00098 206.999h-23l-23 -96c-14.667 -56 -47.334 -84.333 -98.001 -85h-237l376 553v21h-446l-9 -181h22l40 90c20 42.667 47 64.334 81 65.001h207l-387 -554v-20h495zM359.001 698.999c0 24 -10.665 41.667 -31.998 53c-8.66699 4 -17.334 6 -26.001 6
c-24.667 0 -42.334 -11 -53.001 -33c-4 -8.66699 -6 -17.334 -6 -26.001c0 -25.333 11.333 -43.333 34 -54c8 -3.33301 16.333 -5 25 -5c24 0 41.333 11 52 33c4 8.66699 6 17.334 6 26.001z" />
    <glyph glyph-name="zdotaccent" unicode="&#x17c;" horiz-adv-x="421" 
d="M121 26l268 383v21h-342l-9 -134h17l26 59c15.333 32 37 48.333 65 49h152l-278 -382v-22h369l3 155h-17l-13 -60c-9.33301 -39.333 -29 -62 -59 -68c-4.66699 -0.666992 -9 -1 -13 -1h-169zM269 569c0 24 -10.665 41.667 -31.998 53c-8.66699 4 -17.334 6 -26.001 6
c-24.667 0 -42.334 -11 -53.001 -33c-4 -8.66699 -6 -17.334 -6 -26.001c0 -25.333 11.333 -43.333 34 -54c8 -3.33301 16.333 -5 25 -5c24 0 41.333 11 52 33c4 8.66699 6 17.334 6 26.001z" />
    <glyph glyph-name="Zcaron" unicode="&#x17d;" horiz-adv-x="550" 
d="M519 0l2.00098 206.999h-23l-23 -96c-14.667 -56 -47.334 -84.333 -98.001 -85h-237l376 553v21h-446l-9 -181h22l40 90c20 42.667 47 64.334 81 65.001h207l-387 -554v-20h495zM302.001 630.999c18.667 0 39.001 13 61.001 39c5.33301 5.33301 13.666 15.333 24.999 30
c22.667 28 41.667 50.333 57 67l-14 16c-35.333 -22.667 -78.333 -47 -129 -73c-61.333 31.333 -105 56 -131 74l-14 -18c16.667 -18 36.667 -41 60 -69c28 -34 48 -54 60 -60c8.66699 -4 17 -6 25 -6z" />
    <glyph glyph-name="zcaron" unicode="&#x17e;" horiz-adv-x="421" 
d="M121 26l268 383v21h-342l-9 -134h17l26 59c15.333 32 37 48.333 65 49h152l-278 -382v-22h369l3 155h-17l-13 -60c-9.33301 -39.333 -29 -62 -59 -68c-4.66699 -0.666992 -9 -1 -13 -1h-169zM212 501c18.667 0 39.001 13 61.001 39
c5.33301 5.33301 13.666 15.333 24.999 30c22.667 28 41.667 50.333 57 67l-14 16c-35.333 -22.667 -78.333 -47 -129 -73c-61.333 31.333 -105 56 -131 74l-14 -18c16.667 -18 36.667 -41 60 -69c28 -34 48 -54 60 -60c8.66699 -4 17 -6 25 -6z" />
    <glyph glyph-name="florin" unicode="&#x192;" horiz-adv-x="459" 
d="M258 288l0.00390625 12.999c0.666992 6 1 10.333 1 13h121v27h-119c5.33301 111.333 14.666 181.333 27.999 210c10.667 21.333 25 32.333 43 33c20 0 32.667 -11.667 38 -35c0.666992 -4 1.66699 -9.66699 3 -17c4.66699 -26.667 12.334 -43 23.001 -49
c6.66699 -2.66699 13.667 -4 21 -4c24 0 39 11.333 45 34c1.33301 4.66699 2 9.33398 2 14.001c0 29.333 -14 52 -42 68c-18 10 -39 15 -63 15c-75.333 0 -129 -45.667 -161 -137c-12.667 -36.667 -22.667 -80.667 -30 -132h-101v-27h98
c-2.66699 -20 -4.33398 -37.333 -5.00098 -52c-2 -24.667 -4.33301 -62 -7 -112c-8.66699 -137.333 -19.334 -226 -32.001 -266c-12.667 -36.667 -29.334 -55.334 -50.001 -56.001c-18.667 0 -29 11.333 -31 34c0 3.33301 -0.333008 9 -1 17
c-0.666992 28.667 -6.33398 46.334 -17.001 53.001c-7.33301 4 -16 6 -26 6c-26.667 0 -42.334 -13 -47.001 -39c-0.666992 -4 -1 -7.66699 -1 -11c0 -28.667 14.333 -51 43 -67c18.667 -10.667 40 -16 64 -16c76.667 0 131.334 60.333 164.001 181c20 75.333 33 176 39 302
z" />
    <glyph glyph-name="uni0218" unicode="&#x218;" horiz-adv-x="540" 
d="M492 159c0 58.667 -31.999 106.333 -95.999 143c-10.667 6.66699 -48.667 24.667 -114 54c-58.667 26 -95.667 52.667 -111 80c-7.33301 14.667 -11 30 -11 46c0 42.667 20.667 72.334 62 89.001c18 7.33301 37.667 11 59 11c55.333 0 97.333 -19 126 -57
c20 -26 29.667 -58 29 -96h32v176c-17.333 0 -27 -5.66699 -29 -17c-1.33301 -4.66699 -2 -10.334 -2 -17.001c-49.333 26 -103.666 39 -162.999 39c-72.667 0 -129.334 -20 -170.001 -60c-27.333 -27.333 -41 -60 -41 -98c0 -56 31 -101.667 93 -137
c11.333 -6.66699 49.333 -24.667 114 -54c59.333 -26.667 97 -54 113 -82c8 -14.667 12 -30.667 12 -48c0 -46.667 -22 -80 -66 -100c-20.667 -8.66699 -43.334 -13 -68.001 -13c-96.667 0 -152.667 55.667 -168 167l-2 21h-32v-208c16 0 25.667 4.66699 29 14
c1.33301 6 2 15.667 2 29c51.333 -34 110.333 -51 177 -51c77.333 0 137.333 20.667 180 62c30 30 45 65.667 45 107zM333.001 -111.001c0 38.667 -14.332 62.666 -42.999 71.999c-6.66699 2 -13.667 3 -21 3c-24 0 -41 -11 -51 -33c-3.33301 -8.66699 -5 -17 -5 -25
c0 -26 13 -43.333 39 -52c3.33301 -1.33301 6.33301 -2.33301 9 -3c16 -4 24.333 -10.333 25 -19c-0.666992 -19.333 -16.334 -45.666 -47.001 -78.999l23 -16c44 52 67.667 102.667 71 152z" />
    <glyph glyph-name="uni0219" unicode="&#x219;" horiz-adv-x="404" 
d="M191 17c46 0 76.0029 14.3311 90.0029 42.998c4.66699 9.33301 7 19 7 29c0 29.333 -20.667 54.333 -62 75c-8.66699 4.66699 -23 11.334 -43 20.001c-53.333 22.667 -89 44 -107 64c-18.667 21.333 -28 46.333 -28 75c0 47.333 26 81 78 101
c24.667 8.66699 51.334 13 80.001 13c45.333 0 83.666 -9.33301 114.999 -28c0 19.333 4.66699 30.333 14 33c3.33301 0.666992 7.66602 1 12.999 1v-125h-27c-1.33301 61.333 -35.333 92.333 -102 93c-48 0 -78 -14.667 -90 -44c-2.66699 -8 -4 -16 -4 -24
c0 -28.667 20.333 -53 61 -73c9.33301 -4.66699 23.666 -11 42.999 -19c54 -22 90 -42.667 108 -62c19.333 -22 29 -48 29 -78c0 -55.333 -29 -92 -87 -110c-22.667 -7.33301 -47.334 -11 -74.001 -11c-50 0.666992 -93.333 12.334 -130 35.001
c0 -17.333 -4.33301 -27.333 -13 -30c-4 -0.666992 -8.66699 -1 -14 -1v152h29c1.33301 -85.333 39.333 -128.333 114 -129zM262.003 -111.002c0 38.667 -14.332 62.666 -42.999 71.999c-6.66699 2 -13.667 3 -21 3c-24 0 -41 -11 -51 -33c-3.33301 -8.66699 -5 -17 -5 -25
c0 -26 13 -43.333 39 -52c3.33301 -1.33301 6.33301 -2.33301 9 -3c16 -4 24.333 -10.333 25 -19c-0.666992 -19.333 -16.334 -45.666 -47.001 -78.999l23 -16c44 52 67.667 102.667 71 152z" />
    <glyph glyph-name="uni021A" unicode="&#x21a;" horiz-adv-x="570" 
d="M426 0c0 14.667 -5.33398 23 -16.001 25c-3.33301 0.666992 -6.66602 1 -9.99902 1h-69v548h51c55.333 -0.666992 92 -35 110 -103l19 -71h28l-4 200h-499l-5 -200h28l19 71c18.667 68 55.667 102.333 111 103h46v-548h-95v-26h286zM342.999 -111
c0 38.667 -14.332 62.666 -42.999 71.999c-6.66699 2 -13.667 3 -21 3c-24 0 -41 -11 -51 -33c-3.33301 -8.66699 -5 -17 -5 -25c0 -26 13 -43.333 39 -52c3.33301 -1.33301 6.33301 -2.33301 9 -3c16 -4 24.333 -10.333 25 -19
c-0.666992 -19.333 -16.334 -45.666 -47.001 -78.999l23 -16c44 52 67.667 102.667 71 152z" />
    <glyph glyph-name="uni021B" unicode="&#x21b;" horiz-adv-x="332" 
d="M19 400h70v-276c4.66699 -87.333 45 -132.333 121 -135c62.667 0 101.667 37.667 117 113v2l-27 5c-14 -59.333 -38 -89.333 -72 -90c-35.333 1.33301 -53.333 27 -54 77v304h151v25h-151v116l-85 -21v-95h-70v-25zM245 -111c0 38.667 -14.332 62.666 -42.999 71.999
c-6.66699 2 -13.667 3 -21 3c-24 0 -41 -11 -51 -33c-3.33301 -8.66699 -5 -17 -5 -25c0 -26 13 -43.333 39 -52c3.33301 -1.33301 6.33301 -2.33301 9 -3c16 -4 24.333 -10.333 25 -19c-0.666992 -19.333 -16.334 -45.666 -47.001 -78.999l23 -16
c44 52 67.667 102.667 71 152z" />
    <glyph glyph-name="circumflex" unicode="&#x2c6;" horiz-adv-x="500" 
d="M372 499l12 17.001c-8.66699 9.33301 -33.334 38.666 -74.001 87.999c-25.333 25.333 -45.666 39 -60.999 41c-17.333 0 -36 -12 -56 -36l-20 -26c-22.667 -28 -41.667 -50.667 -57 -68l12 -15c34 21.333 75 44 123 68c50 -25.333 90.333 -48.333 121 -69z" />
    <glyph glyph-name="caron" unicode="&#x2c7;" horiz-adv-x="500" 
d="M251 501c18.667 0 39.001 13 61.001 39c5.33301 5.33301 13.666 15.333 24.999 30c22.667 28 41.667 50.333 57 67l-14 16c-35.333 -22.667 -78.333 -47 -129 -73c-61.333 31.333 -105 56 -131 74l-14 -18c16.667 -18 36.667 -41 60 -69c28 -34 48 -54 60 -60
c8.66699 -4 17 -6 25 -6z" />
    <glyph glyph-name="uni02C9" unicode="&#x2c9;" horiz-adv-x="500" 
d="M98 540h304v51h-304v-51z" />
    <glyph glyph-name="breve" unicode="&#x2d8;" horiz-adv-x="500" 
d="M254 576c56 0 89 19.667 99 59c0.666992 2 1 3.66699 1 5h21c0 -59.333 -21.333 -99 -64 -119c-18 -8 -38 -12 -60 -12c-60.667 0 -99.667 26.333 -117 79c-5.33301 16.667 -8 34 -8 52h20c10 -42.667 46 -64 108 -64z" />
    <glyph glyph-name="dotaccent" unicode="&#x2d9;" horiz-adv-x="286" 
d="M200 569c0 24 -10.665 41.667 -31.998 53c-8.66699 4 -17.334 6 -26.001 6c-24.667 0 -42.334 -11 -53.001 -33c-4 -8.66699 -6 -17.334 -6 -26.001c0 -25.333 11.333 -43.333 34 -54c8 -3.33301 16.333 -5 25 -5c24 0 41.333 11 52 33c4 8.66699 6 17.334 6 26.001z" />
    <glyph glyph-name="ring" unicode="&#x2da;" horiz-adv-x="500" 
d="M199 573c0 40.667 12.667 63.667 38 69c3.33301 0.666992 6.66602 1 9.99902 1c28 0 44 -18 48 -54c0.666992 -4.66699 1 -9.33398 1 -14.001c0 -36 -11 -58.333 -33 -67c-5.33301 -2 -10.666 -3 -15.999 -3c-31.333 0.666992 -47.333 23.334 -48 68.001zM250 666
c-51.333 0 -85.332 -17.667 -101.999 -53c-5.33301 -12 -8 -24.667 -8 -38c0 -40 17.667 -67.667 53 -83c16 -6.66699 33.333 -10 52 -10c49.333 0 82.666 18 99.999 54c6 12.667 9 26 9 40c0 38 -17.333 64.667 -52 80c-16 6.66699 -33.333 10 -52 10z" />
    <glyph glyph-name="ogonek" unicode="&#x2db;" horiz-adv-x="500" 
d="M260 -162c-23.333 0 -36.667 13 -40 39c-0.666992 4 -1 7.66699 -1 11c0 32.667 17.333 62 52 88c13.333 9.33301 28 17.333 44 24l-1 9c-90.667 -15.333 -147 -46 -169 -92c-5.33301 -10.667 -8 -21.667 -8 -33c0 -30.667 16.333 -52.667 49 -66c14.667 -6 31 -9 49 -9
c38 0.666992 68.333 13 91 37l-12 15c-18.667 -15.333 -36.667 -23 -54 -23z" />
    <glyph glyph-name="tilde" unicode="&#x2dc;" horiz-adv-x="500" 
d="M200 637c20 0 44.667 -10.999 74 -32.999c24 -18 42.667 -27 56 -27c25.333 0 43 17.667 53 53c0.666992 1.33301 1 2.66602 1 3.99902l21 -5c-14 -73.333 -44.333 -110.333 -91 -111c-20 0 -44.333 10.667 -73 32c-24 18 -43 27 -57 27c-24.667 0 -42 -16 -52 -48l-2 -8
l-20 4c14 74 44 111.333 90 112z" />
    <glyph glyph-name="hungarumlaut" unicode="&#x2dd;" horiz-adv-x="580" 
d="M335 593c8.66699 8 13 18 13 30c0 18 -8.66699 31.667 -26 41c-7.33301 3.33301 -14.333 5 -21 5c-10.667 -0.666992 -20 -4.66699 -28 -12c-5.33301 -5.33301 -20.666 -27.333 -45.999 -66c-20.667 -30 -40 -54.667 -58 -74l15 -17c15.333 11.333 52.333 33.333 111 66
c19.333 11.333 32.666 20.333 39.999 27zM499 563c10 6 16.3301 14.998 18.9971 26.998c3.33301 18.667 -3 33.667 -19 45c-5.33301 4.66699 -11.333 7.33398 -18 8.00098c-12 2 -22 0 -30 -6c-8 -4.66699 -27.667 -23 -59 -55
c-25.333 -25.333 -48.666 -45.666 -69.999 -60.999l11 -20c16.667 8 57.334 22.667 122.001 44c20.667 6.66699 35.334 12.667 44.001 18z" />
    <glyph glyph-name="pi" unicode="&#x3c0;" horiz-adv-x="574" 
d="M556 77l-23.999 5.00293c-6.66699 -34.667 -20.334 -55.334 -41.001 -62.001c-4 -1.33301 -7.33301 -2 -10 -2c-20 1.33301 -30 23.333 -30 66v316h85v26h-512v-26h75v-322c0 -32 -20 -49.333 -60 -52h-15v-26h235c0 15.333 -4.33301 23.666 -13 24.999
c-3.33301 0.666992 -7 1 -11 1h-51v374h181v-269c0 -88.667 29.333 -135.334 88 -140.001h11c39.333 0 67 18.667 83 56c4 9.33301 7 19.333 9 30z" />
    <glyph glyph-name="anusvara" unicode="&#xd82;" horiz-adv-x="355" 
d="M68 175c0 -34.667 15.335 -61.667 46.002 -81c16.667 -10.667 35 -16 55 -16c37.333 0 65.666 15.333 84.999 46c10 16 15 33 15 51c0 36 -15.667 63.333 -47 82c-16.667 9.33301 -34.334 14 -53.001 14c-38 0 -66.667 -15 -86 -45c-10 -16 -15 -33 -15 -51zM29.002 161
c0 45.333 18.667 81.666 56 108.999c25.333 18.667 53.333 28 84 28c47.333 0 85 -18.667 113 -56c18 -24.667 27 -51.667 27 -81c0 -45.333 -18.667 -81.666 -56 -108.999c-25.333 -18.667 -53.333 -28 -84 -28c-47.333 0 -85 18.667 -113 56c-18 24.667 -27 51.667 -27 81
z" />
    </font>
</defs>
</svg>
