<svg width="22" height="22" viewBox="0 0 22 22" fill="none" xmlns="http://www.w3.org/2000/svg">
<path d="M20.6937 0H1.20892C0.541705 0 0 0.540623 0 1.20892V20.6937C0 21.362 0.541705 21.9033 1.20892 21.9033H11.699V13.4211H8.84472V10.115H11.699V7.67692C11.699 4.8483 13.4261 3.30721 15.95 3.30721C17.16 3.30721 18.1976 3.39774 18.5002 3.43705V6.3937L16.7496 6.39443C15.3773 6.39443 15.1126 7.04685 15.1126 8.00367V10.1139H18.3866L17.9585 13.4196H15.1122V21.9023H20.6933C21.3613 21.9023 21.9033 21.3602 21.9033 20.6937V1.2082C21.903 0.540623 21.3616 0 20.6937 0Z" fill="black"/>
</svg>
