<svg width="60" height="36" viewBox="0 0 60 36" fill="none" xmlns="http://www.w3.org/2000/svg">
<mask id="mask0" style="mask-type:alpha" maskUnits="userSpaceOnUse" x="0" y="1" width="60" height="34">
<path fill-rule="evenodd" clip-rule="evenodd" d="M0 1.07178H59.1943V34.6235H0V1.07178Z" fill="white"/>
</mask>
<g mask="url(#mask0)">
<path fill-rule="evenodd" clip-rule="evenodd" d="M56.3364 19.1532C53.2335 23.1314 49.2146 26.4217 44.7146 28.6685C43.4385 29.306 42.1346 29.8557 40.806 30.3217C44.2239 27.2478 46.3775 22.795 46.3775 17.8471C46.3775 12.8971 44.2218 8.44209 40.8018 5.36816C42.1314 5.83531 43.4364 6.38709 44.7146 7.02566C49.2146 9.27245 53.2335 12.5628 56.3364 16.541C56.9364 17.3103 56.9364 18.3849 56.3364 19.1532ZM29.5967 32.2181C21.6724 32.2181 15.2256 25.7713 15.2256 17.847C15.2256 9.92274 21.6724 3.47595 29.5967 3.47595C37.522 3.47595 43.9688 9.92274 43.9688 17.847C43.9688 25.7724 37.522 32.2181 29.5967 32.2181ZM14.4802 28.6684C9.98016 26.4227 5.96123 23.1313 2.85838 19.1531C2.25945 18.3849 2.25945 17.3102 2.85838 16.5409C5.96123 12.5638 9.98016 9.27236 14.4802 7.02664C15.7573 6.38807 17.0634 5.83628 18.3919 5.36914C14.973 8.44307 12.8184 12.8981 12.8184 17.847C12.8184 22.797 14.973 27.252 18.393 30.3259C17.0634 29.8588 15.7584 29.307 14.4802 28.6684ZM58.2348 15.0603C54.9123 10.8013 50.6095 7.27739 45.7902 4.87204C40.8713 2.41525 35.5795 1.14132 30.0552 1.07382C29.903 1.07061 29.2913 1.07061 29.1391 1.07382C23.6148 1.14132 18.323 2.41525 13.4041 4.87204C8.58482 7.27739 4.28196 10.8013 0.959464 15.0603C-0.319821 16.7017 -0.319821 18.9935 0.959464 20.6349C4.28196 24.8938 8.58482 28.4167 13.4041 30.8231C18.323 33.2799 23.6148 34.5538 29.1391 34.6203C29.2913 34.6245 29.903 34.6245 30.0552 34.6203C35.5784 34.5538 40.8713 33.2799 45.7902 30.8231C50.6095 28.4167 54.9123 24.8938 58.2348 20.6349C59.5141 18.9935 59.5141 16.7017 58.2348 15.0603Z" fill="black"/>
</g>
<path fill-rule="evenodd" clip-rule="evenodd" d="M29.597 21.5895C27.5334 21.5895 25.8545 19.9117 25.8545 17.847C25.8545 15.7845 27.5334 14.1056 29.597 14.1056C31.6606 14.1056 33.3395 15.7845 33.3395 17.847C33.3395 19.9117 31.6606 21.5895 29.597 21.5895ZM29.5973 11.697C26.2062 11.697 23.4473 14.456 23.4473 17.847C23.4473 21.2381 26.2062 23.9981 29.5973 23.9981C32.9883 23.9981 35.7473 21.2381 35.7473 17.847C35.7473 14.456 32.9894 11.697 29.5973 11.697Z" fill="black"/>
</svg>
