<svg width="22" height="22" viewBox="0 0 22 22" fill="none" xmlns="http://www.w3.org/2000/svg">
<path fill-rule="evenodd" clip-rule="evenodd" d="M5.94531 0H16.0547C19.334 0 22 2.66663 22 5.94434V16.0557C22 19.3334 19.334 22 16.0547 22H5.94531C2.66602 22 0 19.3334 0 16.0557V5.94434C0 2.66663 2.66602 0 5.94531 0ZM16.0547 20.2227C18.3535 20.2227 20.2227 18.3533 20.2227 16.0557V5.94434C20.2227 3.64661 18.3535 1.77734 16.0547 1.77734H5.94336C3.64648 1.77734 1.77734 3.64667 1.77734 5.94434V16.0557C1.77734 18.3533 3.64648 20.2227 5.94336 20.2227H16.0547Z" fill="black"/>
<path fill-rule="evenodd" clip-rule="evenodd" d="M14.4219 7.44495C15.1758 8.19891 15.6582 9.15491 15.8145 10.2097C16.0078 11.5131 15.6816 12.8138 14.8965 13.8721C14.1113 14.9305 12.9609 15.6198 11.6582 15.8131C11.4121 15.8495 11.168 15.8674 10.9238 15.8674C9.87305 15.8674 8.85547 15.5328 7.99609 14.8956C6.9375 14.1105 6.24805 12.9604 6.05469 11.6569C5.86133 10.3535 6.1875 9.05273 6.97266 7.99438C7.75781 6.93604 8.90625 6.2467 10.2109 6.05341C10.5312 6.00592 10.8535 5.99011 11.1758 6.00592C11.3379 6.01385 11.498 6.02966 11.6582 6.05341C12.7129 6.20978 13.668 6.69104 14.4219 7.44495ZM9.05469 13.468C9.73047 13.9702 10.5625 14.1788 11.3965 14.0549C13.1172 13.7997 14.3105 12.1917 14.0547 10.4704C13.8496 9.08539 12.7812 8.01697 11.3965 7.81158C11.2422 7.78882 11.0879 7.7774 10.9336 7.7774C10.7793 7.7774 10.625 7.78882 10.4707 7.81158C9.63672 7.93524 8.90039 8.37616 8.39844 9.05322C7.89648 9.73029 7.6875 10.5624 7.8125 11.3962C7.93555 12.23 8.37695 12.9658 9.05469 13.468Z" fill="black"/>
<path d="M17.0171 4.7603C16.8516 4.59483 16.6226 4.5 16.3887 4.5C16.1549 4.5 15.9258 4.59479 15.7603 4.7603C15.5948 4.92582 15.5 5.1545 15.5 5.38872C15.5 5.62295 15.5948 5.85162 15.7603 6.01714C15.9258 6.18261 16.1549 6.27745 16.3887 6.27745C16.6226 6.27745 16.8516 6.18266 17.0171 6.01714C17.1826 5.85162 17.2774 5.62256 17.2774 5.38872C17.2774 5.15484 17.1826 4.92578 17.0171 4.7603Z" fill="black"/>
</svg>
