<svg width="22" height="18" viewBox="0 0 22 18" fill="none" xmlns="http://www.w3.org/2000/svg">
<path d="M21.7708 2.11493C20.9695 2.47382 20.1098 2.71722 19.2064 2.82589C20.1288 2.26757 20.8349 1.382 21.1695 0.330021C20.3043 0.847058 19.3493 1.22249 18.3316 1.42601C17.5168 0.547313 16.3577 0 15.0721 0C12.6056 0 10.6058 2.02144 10.6058 4.51317C10.6058 4.86656 10.6452 5.21172 10.7214 5.54178C7.01022 5.35336 3.71937 3.55608 1.51685 0.825051C1.13184 1.49063 0.912811 2.26617 0.912811 3.09402C0.912811 4.66031 1.70186 6.04231 2.89905 6.85086C2.16713 6.82612 1.47875 6.6226 0.8761 6.28431V6.34069C0.8761 8.52714 2.4161 10.3519 4.45808 10.7672C4.08396 10.869 3.68945 10.9254 3.28132 10.9254C2.99293 10.9254 2.71403 10.8965 2.44058 10.8415C3.00922 12.636 4.65808 13.941 6.61166 13.9768C5.08389 15.1869 3.15752 15.9061 1.06521 15.9061C0.704708 15.9061 0.349615 15.8841 0 15.8442C1.9767 17.1272 4.32344 17.8753 6.84566 17.8753C15.0612 17.8753 19.552 10.9969 19.552 5.03161L19.537 4.44719C20.4145 3.81458 21.1736 3.01977 21.7708 2.11493Z" fill="black"/>
</svg>
